<?xml version="1.0" encoding="utf-8"?>
<!-- Generator: Adobe Illustrator 23.0.1, SVG Export Plug-In . SVG Version: 6.00 Build 0)  -->
<svg version="1.1" id="Lag_1" xmlns="http://www.w3.org/2000/svg" xmlns:xlink="http://www.w3.org/1999/xlink" x="0px" y="0px"
	 viewBox="0 0 768 1080" style="enable-background:new 0 0 768 1080;" xml:space="preserve">
<style type="text/css">
	.st0{fill:#DFDFE5;}
	.st1{fill:#A2E9FF;}
	.st2{fill:#020202;}
	.st3{fill:#247F89;}
	.st4{fill:#207070;}
	.st5{fill:#125A5E;}
	.st6{fill:#81B3C1;}
	.st7{fill:#034242;}
	.st8{fill:#85C7D6;}
	.st9{fill:#0D3F3F;}
	.st10{fill:#FFFFFF;stroke:#020202;stroke-width:2;stroke-miterlimit:10;}
	.st11{fill:#CAD9DD;}
	.st12{fill:#B9DDEA;stroke:#020202;stroke-width:3;stroke-miterlimit:10;}
	.st13{fill:#D9E8ED;}
	.st14{fill:#1D1D1B;}
	.st15{fill:#FFFFFF;}
	.st16{fill:#F2F6F7;stroke:#020202;stroke-width:2;stroke-miterlimit:10;}
	.st17{fill:#F2F6F7;}
	.st18{fill:#022625;}
	.st19{fill:url(#SVGID_1_);}
</style>
<rect x="-151.1" y="151.1" transform="matrix(7.044814e-16 1 -1 7.044814e-16 925.1873 151.1126)" class="st0" width="1076.3" height="774.1"/>
<g>
	<path class="st1" d="M456.1,1079.2l25.4-5.8C472.9,1075.2,464.5,1077.1,456.1,1079.2z"/>
	<g>
		<g>
			<path class="st2" d="M601.3,291.7c-21-30.3-53.9-51.1-90.2-57.3c-18.6-3.2-37.6-2.4-55.9,2.3c-21.7,5.5-41.9,15.5-63,22.8
				c-19.5,6.7-40.8,11.1-55.9,26.2c-14.8,14.8-27.4,32.5-39.1,49.8c-23.8,35.5-43.4,74.3-59.2,113.9c-8.7,21.9-15.9,44.3-21.8,67.1
				c-2.7,10.5-6.2,21.3-7.7,32c-1.6,11.3-4.1,22.6-5.6,34c-3.1,22.6-5.3,45.3-10,67.7c-4.7,22-12.1,43.2-23.2,62.9
				c-19.9,35.2-50.4,65.3-86,84.6c-20.6,11.2-42.6,18.3-65.3,23.9c-22.2,5.4-44.6,9.8-65.8,18.6c-21.1,8.8-40.6,21.7-60.5,33
				c-20.3,11.5-40.9,22.8-60.2,35.8c-16.5,11.1-31.1,24.3-42.9,40.5c-12.1,16.5-20.9,35.2-27.1,54.6c-3.1,9.8-5.6,19.8-7.7,29.9
				c-0.4,1.9,2.5,2.7,2.9,0.8c8.5-40.9,25-80.5,57.1-108.5c16.6-14.5,36-25.4,54.9-36.4C-110.6,878.1-90,867-69.8,855
				c19.9-11.8,41.1-19.1,63.5-24.5c22-5.3,44.2-9.8,65.4-18c36.7-14.2,68.8-38.3,93.5-68.8c26.1-32.3,40.1-70.2,46.7-110.9
				c3.6-22.2,5.1-44.7,9.3-66.7c0.9-4.5,2.4-9,3.1-13.5c0.5-3,0.4-6,1.1-9c0.7-3,1.4-6.1,2.1-9.1c2.6-10.8,5.4-21.5,8.4-32.2
				c12.5-43.3,30.4-84.8,52-124.4c9.8-17.9,20.4-35.2,32.2-51.8c6.4-9,13.2-17.8,20.4-26.2c7-8.3,13.9-16.1,23.4-21.7
				c9.6-5.6,20.2-8.7,30.7-12.1c10.7-3.5,21.3-7.3,31.8-11.5c20.1-8,40.5-16.4,62.2-18.4c37.8-3.5,76.4,9.8,104.1,35.6
				c7,6.5,13.1,13.7,18.5,21.5C599.8,294.7,602.4,293.2,601.3,291.7L601.3,291.7z"/>
		</g>
	</g>
	<g>
		<g>
			<path class="st2" d="M574,302.3c-58.9-52.8-154.7-55.3-216.6-6.1c-31.1,24.7-51.2,60.4-68,95.6c-18.1,37.9-34.7,76.6-50.4,115.5
				c-16.2,40-31.2,80.4-45.1,121.3c-6.7,19.6-12.6,39.5-20.3,58.8s-18.1,36.9-31.1,53s-27.5,31-41.8,45.9
				C86.5,801,72,815.4,56.3,828.5c-15.8,13.1-32.7,24.3-50.9,33.9c-18,9.5-36.8,17.6-54.8,27c-17.2,8.9-33.7,19.2-48.5,31.8
				c-15.2,13-28.7,27.8-41.1,43.4c-26.2,32.9-49.5,68.2-73.1,103.1c-6.1,9.1-12.2,18.2-18.2,27.3c-2.1,3.2,3.1,6.2,5.2,3
				c23.4-35.2,47.1-70.3,71.9-104.6c23.4-32.4,49.3-63.9,83.5-85.5C-36,886.6,2.5,874,35.7,851.7c32.8-22,60.2-51,87-79.7
				c13.2-14.1,26.3-28.5,37.1-44.6c10.8-16,18.4-33.7,24.8-51.8c14-39.6,26.8-79.5,41.6-118.8c14.9-39.3,30.8-78.1,47.8-116.5
				c16.2-36.7,32.3-74.7,56.5-107c24-32,56.9-54.3,96.3-62.6c40.5-8.5,84.5-2.2,120.2,19.1c8.2,4.9,15.9,10.6,23,16.9
				C572.7,309.1,576.9,304.9,574,302.3L574,302.3z"/>
		</g>
	</g>
	<g>
		<g>
			<path class="st2" d="M581.3,316.6c-64.1-30.5-141-52.3-208.3-18.1c-15.1,7.7-28.5,18.1-39.6,30.8c-12.3,14-22.3,30.1-32.4,45.7
				c-21.4,32.8-42.2,66.2-56.7,102.8c-14.6,36.8-23.4,75.6-29.7,114.6c-3.1,19.2-5.9,38.4-11,57.2c-5.2,19.2-13.3,36.9-24.3,53.4
				c-11.1,16.7-23.8,32.5-36.3,48.2c-12.2,15.4-25.1,30.2-39.5,43.5C75.2,820.8,42.2,841.1,8.8,860c-35.3,19.9-71.6,38.3-108.6,54.8
				c-18.8,8.4-37.8,16.4-57,24c-16.6,6.5-34,12-49.7,20.5c-7.3,4-14.2,8.7-20.2,14.5c-1.4,1.3,0.7,3.4,2.1,2.1
				c13.6-12.9,31-19.8,48.2-26.3c17.8-6.7,35.6-13.7,53.2-21.2c36.8-15.6,72.8-32.8,108-51.7C17.9,858.9,51,840.2,81,817.4
				c14.7-11.2,28.6-23.5,41.2-37.1c13-14,24.7-29.1,36.3-44.2c11.7-15.2,23.6-30.3,32.7-47.2c8.9-16.4,14.5-34.2,18.5-52.5
				c4-18.4,6.4-37.2,9.7-55.7c3.3-19.1,7.4-38.1,12.5-56.7c10.6-38.5,26.6-74.6,47.1-108.9c10-16.8,20.8-33.1,31.5-49.5
				c10.4-15.9,21.1-31.9,35.2-44.8c25.7-23.5,60.6-34.9,95-36.6c38.1-1.9,75.7,8.2,110.8,22.5c9.5,3.9,18.9,8.1,28.2,12.5
				C581.5,320,583,317.5,581.3,316.6L581.3,316.6z"/>
		</g>
	</g>
	<g>
		<g>
			<path class="st2" d="M596.3,301.2c-26.7-26.3-63-41.2-100.3-43.2c-38.3-2-75,10.4-104.8,34.5c-31.5,25.5-53.5,60.8-73.4,95.6
				c-23.2,40.8-46.9,82-62.4,126.5c-15.3,43.7-22.6,89.6-33.8,134.5c-10.8,43.4-26,85-51.8,121.7c-24.6,35-56.8,64-93.7,85.7
				C39,878.3-1.3,893.6-40.3,911.4c-38.3,17.5-75.5,38-105.8,67.7c-29.3,28.6-51.8,64.1-65.5,102.7c-3.4,9.5-6.1,19.1-8.4,28.9
				c-1.3,5.6,7.4,8,8.7,2.4c9.1-39.5,27.4-76.6,53.3-107.8c26.9-32.3,61-55.9,98.4-74.6c37.6-18.9,77.2-33.5,114.9-52.5
				c37.3-18.8,71.5-42.7,99.5-73.9s48.8-67.8,62.5-107.4c14.7-42.9,22-87.9,32.9-131.8c5.5-22.2,11.9-44.1,20.5-65.3
				c8.9-22.1,19.8-43.4,31.2-64.3c19.8-36.4,39.4-74.3,65.8-106.5c24.7-30,56.2-53.3,95.1-60.1c36.1-6.3,74.9,1.5,105.7,21.4
				c7.8,5,14.9,10.8,21.5,17.3C594,311.7,600.4,305.3,596.3,301.2L596.3,301.2z"/>
		</g>
	</g>
	<g>
		<g>
			<path class="st2" d="M596.2,296.2c-18.2-31.4-52.9-49.4-88.4-52.5c-38.8-3.4-76.5,12.7-106.4,36.5C368,307,344.5,343.7,326,381.8
				c-20.5,42.2-37.4,86.4-52.9,130.6c-15.7,44.6-28.3,90-41.3,135.4c-12.4,43-28.2,84.2-55.4,120.3c-24.7,32.8-55.9,60.4-88.4,85.3
				C52.9,880.3,16,904.8-20.3,930c-20.6,14.2-41.2,28.4-61.7,42.7c-18.9,13-38,25.8-55.7,40.4c-34.1,28-57.2,64-76.5,103.2
				c-4.8,9.8-9.4,19.7-14.1,29.6c-2.4,5.2,5.3,9.8,7.8,4.5c17.9-38.4,36.2-77.9,65.5-109.1c15.3-16.3,33.2-29.9,51.4-42.8
				c19.4-13.7,39.1-27.1,58.6-40.6c37.6-26,75.5-51.5,112.5-78.2c32.4-23.4,64.1-48.2,91.5-77.4c28.2-30,50.3-64.2,65.2-102.7
				C240.7,657,250.5,612,264,568.5c14.1-45.1,30.1-89.6,48.2-133.3c16.8-40.7,35.1-82,63.2-116.4c24.8-30.3,58.1-55.4,97-63.8
				c34.8-7.5,73.9,1,100.1,25.8c6.2,5.9,11.5,12.6,15.8,20C591.3,305.8,599.1,301.2,596.2,296.2L596.2,296.2z"/>
		</g>
	</g>
	<g>
		<g>
			<path class="st2" d="M585.3,315.8c-14.1-39.4-62.3-39.1-96.7-38c-39,1.2-80.6,3.7-114.1,26c-32.8,21.8-55.2,57.8-73.3,91.9
				c-20.2,38.1-33.6,78.6-43.3,120.5c-9.8,42.2-17.4,85.5-35.1,125.4c-17.2,38.7-43.3,72.5-72.3,103c-29.1,30.6-61.3,58.2-96.1,82.2
				s-72.3,42.7-109.8,62c-65.9,33.9-139.6,79.9-155.4,158.5c-1.7,8.7-2.6,17.5-2.5,26.4c0,1.9,3,1.9,3,0
				c-0.1-37.8,17.1-72.8,41.4-101c25.7-29.7,58.8-51.2,93-69.8c36.1-19.6,73.5-36.5,108.3-58.2c34.1-21.2,66-45.8,95.3-73.3
				c29-27.2,56.2-57.2,77.5-90.9c22.1-35,34.9-73.7,44.3-113.8c9.7-41,17.3-82.3,32.5-121.8c14.7-38.4,34.7-76.6,61.2-108.3
				c12.4-14.9,27-28.2,44.4-37.1c18.3-9.5,38.8-14,59.2-16.2c19.9-2.2,40.1-2.8,60.2-3c20.5-0.1,42.1,1.8,59.1,14.5
				c7.5,5.6,13.3,12.9,16.5,21.7C583.1,318.4,586,317.6,585.3,315.8L585.3,315.8z"/>
		</g>
	</g>
	<g>
		<g>
			<path class="st2" d="M-201,1108.1c39.7-72.3,111.7-121.2,178.3-166.6c37.2-25.4,75.6-48.8,114.1-72.3
				c17.9-10.9,35.6-22.4,51.4-36.1c15.9-13.8,29.8-29.8,42.7-46.4c12.7-16.5,24.8-33.5,36.5-50.7c11.9-17.5,22.8-35.8,30.4-55.6
				c7.8-20.4,12.3-41.7,16.7-63c4.1-19.8,8.4-39.6,13.5-59.3c19.4-74.8,48.6-149.1,97.7-209.6c24.6-30.3,54.3-58.7,90-75.5
				c34.4-16.2,76.1-19.6,110.2-0.7c8,4.4,15.1,10,21.4,16.5c1.3,1.4,3.5-0.7,2.1-2.1c-24.5-25.6-61.9-34.2-96.2-28.7
				c-38.9,6.2-72.9,29.8-100.7,56.7c-56,54.3-91.5,125.7-115,199.2C279.6,553,271.5,593,262.6,633c-4.9,22.2-11,44.3-21.2,64.7
				c-9.8,19.6-22.5,37.6-35.1,55.5c-12.6,17.8-25.4,35.6-39.9,52c-14.6,16.6-31,31.1-49.1,43.7c-18.3,12.7-37.7,23.7-56.7,35.3
				c-19.7,12-39.2,24.3-58.5,37c-36.5,24-72.6,48.9-106.9,76c-30.9,24.5-60.3,51.7-83.1,84c-5.7,8.1-11,16.6-15.8,25.3
				C-204.5,1108.3-201.9,1109.8-201,1108.1L-201,1108.1z"/>
		</g>
	</g>
	<g>
		<g>
			<path class="st2" d="M578.4,317.2c-37.3-14.8-82.1-32.5-122-16.3c-16,6.5-28.9,18.1-40.3,30.8c-5.9,6.7-11.5,13.7-17,20.7
				c-6.1,7.7-12.6,14.8-18.4,22.7c-22.9,31.3-42.2,65.1-56.3,101.3c-7.2,18.4-13.9,37.1-19.4,56.1c-5.8,20.2-12.6,39.8-18.6,59.9
				c-3.1,10.3-6.4,20.5-9.2,30.8c-1.3,4.8-3,9.1-4.7,13.7c-2.1,5.5-3.4,11.5-5.1,17.1c-6.1,20.5-12.7,40.9-20.1,61
				c-13.8,37.7-35.1,71.8-66.2,97.6C151.7,837,116.2,853.5,80,864.8c-20.6,6.4-41.4,12-62.4,16.6c-21.5,4.7-43.2,8.6-64.7,13.9
				c-18.9,4.6-38.8,9.4-55.5,19.6c-15.2,9.3-27.7,22.4-38.9,36.2c-26.8,33-51.7,67.8-74.6,103.6c-5.6,8.8-11.1,17.7-16.5,26.6
				c-1,1.7,1.6,3.2,2.6,1.5c21.8-36.2,45.7-71.2,71.3-104.8c12.1-15.9,24-32.2,38.6-45.8c14.6-13.7,31-21.8,50-27.5
				c41.3-12.6,84.4-18.2,126-29.7c36.7-10.2,72.7-22.8,104.9-43.6c30.1-19.5,54.7-45.4,72.1-76.8c10.2-18.3,17.3-37.6,24.1-57.4
				c3.4-9.9,6.6-19.9,9.7-29.9c3.2-10.2,5.2-21.6,9.7-31.3c4.2-9.1,6-19.5,9-29.1c3.2-10.3,6.5-20.6,9.7-30.9c0.8-2.6,2-5.2,2.7-7.8
				c0.5-2,0.4-4,1-5.9c1.5-5.3,4-10.3,5.6-15.5c2.8-9.4,6.2-19,8.6-28.5c2.3-8.9,6.2-17.7,9.2-26.4c3.3-9.6,7-19,11-28.3
				c7.6-17.7,16.6-34.9,26.6-51.4c10.4-17.1,21.6-34.7,35-49.6c12.1-13.4,22.2-28.4,35.5-40.7c15.4-14.2,33.5-22.4,54.6-23.7
				c21.6-1.3,42.9,4,63.2,11c10,3.4,19.9,7.3,29.7,11.2C579.4,320.8,580.2,317.9,578.4,317.2L578.4,317.2z"/>
		</g>
	</g>
	<g>
		<g>
			<path class="st2" d="M556.5,324.3c-6.9-12.6-19.7-21.4-33.8-23.9c-15.9-2.8-29.4,3.1-41.1,13.6c-16.6,14.9-32.3,30.8-48.4,46.2
				c-15.3,14.7-30.7,29.3-45.9,44.1c-26.9,26.3-53,53.7-73.8,85.2c-10.3,15.5-19.1,32-25.8,49.4c-6.9,17.7-11.2,36.3-14.5,55
				c-6.5,36.7-9.1,74.4-20.9,109.9c-6.2,18.8-15.3,36.6-27.9,52c-12.7,15.6-28.2,28.8-44.4,40.6C113.5,845,35.1,872.7-37.8,909.8
				c-63.5,32.3-126.3,74.4-164.2,136.3c-4.6,7.6-8.8,15.4-12.5,23.4c-0.8,1.7,1.8,3.3,2.6,1.5c30.9-66.1,90.8-112.2,153.3-146.8
				C10.7,886,86.3,860,153.6,818c31.7-19.8,63.8-43.2,84.1-75.3c19.4-30.8,26.1-67,31.4-102.4c5.5-37,9.9-74.5,25-109.1
				c14.9-34.3,38-64.4,63.3-91.8c27.1-29.5,56.8-56.6,85.7-84.3c8.1-7.7,16.2-15.5,24.2-23.2c7.6-7.2,14.9-15.2,23.4-21.3
				c13.9-9.9,31.9-10,46.6-1.5c7,4,12.7,9.8,16.6,16.9C554.9,327.5,557.5,326,556.5,324.3L556.5,324.3z"/>
		</g>
	</g>
	<g>
		<g>
			<path class="st2" d="M573.3,332.8c-17.6-10.6-36.4-18.8-56.2-24.3c-18.1-5-37.5-8.6-56.3-7.2c-15.8,1.2-31.9,6.5-42,19.5
				c-5.4,7-8.7,15.3-11.8,23.5c-3.5,9.5-7.3,18.9-11.7,28.1c-16.6,34.7-39.5,65.8-59.4,98.5c-9.8,16-18.9,32.5-26.1,49.9
				c-7.5,18-12.5,36.8-16,56c-7.3,39.4-9.7,81.1-28.2,117.4c-18.8,36.8-52.8,62.9-84.7,87.8c-35.2,27.4-71.6,53.3-109.1,77.6
				C35.6,883.1-2,904.1-38.9,926.4c-64.5,38.9-132.2,91.7-145.6,170.9c-1.5,8.8-2.2,17.6-2.1,26.5c0,1.9,3,1.9,3,0
				c-0.4-38.3,14.9-74.4,37.6-104.7c24.1-32.2,56.2-57,89.9-78.4c35.1-22.4,71.9-42.1,107.2-64.2c36.6-22.9,72.3-47.3,106.9-73.2
				c16.6-12.4,33-25,48.9-38.1c15.2-12.4,29.9-25.6,42.3-40.8c11.8-14.4,21-30.5,27.3-48.1c6.5-18.3,10.2-37.4,13.3-56.5
				c3.2-19.6,5.8-39.4,10.3-58.7c4.4-18.9,10.9-37.1,19.5-54.5c16.6-33.7,38.8-64.2,58.3-96.2c9.5-15.6,18.4-31.7,25.5-48.5
				c7.5-17.6,11.6-38.5,29.1-49.2c14.9-9.1,33.7-9.5,50.6-7.6c21.3,2.4,42.3,8.2,61.9,16.7c9.2,4,18.1,8.7,26.7,13.8
				C573.4,336.4,574.9,333.8,573.3,332.8L573.3,332.8z"/>
		</g>
	</g>
	<g>
		<g>
			<path class="st2" d="M359.2,434.6c-33.2,45.5-57.9,97-72.9,151.3c-7.3,26.6-12.3,53.9-14.8,81.5c-1.3,14.6-1.8,29.1-1.9,43.7
				c-0.1,15.2-0.3,30.7-3.9,45.5c-6.9,28.5-27.9,50.2-49.4,68.8s-45.3,34.4-70.7,47.1C93,898.7,33.2,905.7-17.9,935.3
				c-53.7,31-96.1,77.4-137.3,122.8c-1.3,1.4,0.8,3.6,2.1,2.1c37.5-41.2,75.6-83,122.6-113.6c25.1-16.3,52.1-27.8,80.6-36.7
				c28-8.8,56.3-16.2,83.2-28.2c25.7-11.4,49.9-26,72-43.2c20.8-16.2,41.9-35,54.6-58.4c14.1-25.9,12.2-55,13-83.5
				c0.8-29.1,4.4-58.1,10.6-86.5c13.8-62.6,40.6-122.1,78.4-173.9C362.9,434.6,360.3,433.1,359.2,434.6L359.2,434.6z"/>
		</g>
	</g>
	<g>
		<g>
			<path class="st2" d="M592.5,294.8c-30.9-25.3-70-35.2-108.6-42.3c-20.8-3.8-42.7-9-64-5.9c-20.6,3-37.1,15.7-51.9,29.4
				c-57.6,53.1-94.6,124.3-119.3,197.7c-12.7,37.7-22.1,76.4-30.3,115.3c-8.8,41.9-17.3,84.5-35.1,123.7
				C150.1,785.6,83.8,832.8,15,869.2c-72.3,38.2-150.3,66.9-215.1,118c-8,6.3-15.7,12.9-23.1,19.9c-4.2,4,2.1,10.3,6.4,6.4
				c60.1-56.1,137.4-87.2,210.1-123c67.2-33.2,135.3-73.6,177.9-137.2c23.1-34.5,36-74.3,45.6-114.3c9.4-39.4,16.5-79.3,27.2-118.5
				c20.3-74.1,50.5-147.7,100.7-206.9c12.5-14.7,26.1-28.9,41.1-41c8-6.4,16.9-12.2,26.8-15.2c10.6-3.2,21.9-3.2,32.8-2.1
				c20.5,2.1,41.2,6.3,61.3,10.9c18.9,4.3,37.6,10,54.9,18.9c8.7,4.5,17.1,9.8,24.7,16C590.6,304.8,597,298.5,592.5,294.8
				L592.5,294.8z"/>
		</g>
	</g>
	<g>
		<g>
			<path class="st2" d="M254,760.5c-47.6,37.2-92.6,79.7-124.7,131.4c-31.1,50.1-49.7,111.6-36.4,170.5c3.3,14.4,9.2,28.3,11.3,43
				c2.6,17.6-2.8,32.8-15.6,45.2c-1.4,1.3,0.7,3.5,2.1,2.1c9.1-8.8,15.7-19.5,16.9-32.4c1.3-12.6-2.2-25.2-5.8-37.2
				c-4.3-14.3-8.2-28.5-9.6-43.4c-1.5-16.2-0.8-32.7,1.8-48.8c9.7-60.8,44-114.4,85.2-158.8c23.5-25.3,49.6-48.2,76.8-69.4
				C257.6,761.4,255.5,759.3,254,760.5L254,760.5z"/>
		</g>
	</g>
	<g>
		<g>
			<path class="st2" d="M253.3,766.9c-31.3,37.9-52.7,83.6-61.6,132c-4.8,26.1-5.2,52.8-3.8,79.3c1.4,26.7,4.1,53.3,2.4,80.1
				c-1.7,28.5-9.6,56.6-26.4,80c-1.1,1.6,1.5,3.1,2.6,1.5c30.2-42,28.6-93.7,25.5-143c-1.7-26.4-2.9-52.9,0-79.3
				c2.9-25.9,9.7-51.4,19.6-75.5c10.9-26.4,25.7-51,43.8-73C256.6,767.6,254.5,765.5,253.3,766.9L253.3,766.9z"/>
		</g>
	</g>
	<g>
		<g>
			<path class="st2" d="M254.6,758.7c-3.6,25.6-12.4,50.1-21.6,74.2c-9.6,25.1-20.2,49.8-28.9,75.2c-15.9,46.3-26.4,99.7-8.9,147.2
				c8.3,22.6,29.9,47.9,14.6,72.3c-1,1.6,1.6,3.1,2.6,1.5c12.1-19.2,2.3-40-6.8-58.1c-11.6-23.4-16.7-48-16.2-74.1
				c1-54,23.3-103.9,42.6-153.3c10.7-27.3,21.3-54.9,25.4-84.1C257.7,757.6,254.9,756.8,254.6,758.7L254.6,758.7z"/>
		</g>
	</g>
	<g>
		<g>
			<path class="st2" d="M271.2,736c-8,24.9-14,50.3-19.9,75.8c-1.5,6.2-2.9,12.5-4.4,18.7c-0.7,3.1-1.9,6.3-2.3,9.4
				c-0.3,2.6-0.3,5.1-0.7,7.7c-2.1,12.9-4.6,25.6-5.9,38.6c-2.6,25.5-2.6,51.2,0.8,76.7c3.3,25,12.8,48.4,17.2,73.1
				c5.2,29-1.2,57.7-13.5,84.2c-0.8,1.7,1.8,3.3,2.6,1.5c9.8-21.2,16.6-44.4,15.8-68c-0.9-25.3-10.5-49-16-73.4
				c-5.9-25.9-6.7-53.3-5-79.7c0.9-13.7,2.5-27.3,4.9-40.7c2.2-12.4,4.2-24.6,7.1-36.9c6.8-28.9,13.3-57.8,22.3-86
				C274.6,735,271.7,734.2,271.2,736L271.2,736z"/>
		</g>
	</g>
	<g>
		<g>
			<path class="st2" d="M267,753.9c12.2,93.8-13.5,191-68.6,267.7c-15.6,21.7-33.6,41.7-53.6,59.4c-1.4,1.3,0.7,3.4,2.1,2.1
				C218.1,1020,262.8,929,271.5,834.3c2.5-26.8,2-53.8-1.5-80.4C269.8,752,266.8,752,267,753.9L267,753.9z"/>
		</g>
	</g>
	<g>
		<g>
			<path class="st2" d="M269.5,654.2c13.8,64.9,38.2,127.7,44.2,194.2c2.8,31.4,1.7,63.5-6.9,94c-8.1,28.9-23.6,54.1-40.7,78.6
				c-18.1,25.9-37.3,51.5-48.8,81.2c-0.7,1.8,2.2,2.6,2.9,0.8c21.3-54.8,68.4-95.1,86.9-151.3c20.1-61,9.4-126.7-6.1-187.4
				c-9.5-37-20.8-73.5-28.7-110.9C272,651.5,269.1,652.3,269.5,654.2L269.5,654.2z"/>
		</g>
	</g>
	<g>
		<g>
			<path class="st2" d="M578.6,327.3c-75.1,5-157.3,11.5-212.5,69.3c-12.8,13.4-23.7,28.5-33.2,44.4c-10.1,16.8-18.2,34.3-26,52.3
				c-8.2,18.9-14.5,38.6-19.1,58.7c-4.5,19.3-8,38.3-10.2,57.9c-5.1,43.9-7.4,89-27.9,129.1c-18.1,35.4-49.9,62.6-82.1,84.9
				c-30.6,21.2-64,37.9-97.9,53.1c-35.2,15.8-71.8,29.2-106.2,46.7c-18,9.2-34.1,20-49.7,33c-15.3,12.8-29.8,26.6-43.6,40.9
				c-14.4,14.9-28.1,30.4-41.8,46c-13.6,15.5-27.2,31-39.1,47.9c-5.7,8.1-11,16.5-15.8,25.1c-2.9,5,4.9,9.6,7.8,4.5
				c20.3-35.8,48.6-66.3,76.1-96.7c13.5-14.8,27.3-29.4,42-43.1c14.7-13.8,30.2-27.6,47.4-38.2C-21,922.9,16,909.9,51,894.8
				c33.7-14.5,67.2-29.7,98.6-48.7c32.3-19.5,63.6-43.2,87.8-72.3c27.1-32.7,38.2-73.6,43.6-114.9c1.4-10.8,2.5-21.7,3.7-32.6
				c1.1-10.5,1.2-22.1,4-32.3c1.1-4.2,0.8-8.1,1.6-12.3c1-5.3,2.5-10.6,3.6-15.9c2-9.9,4.3-19.7,7.1-29.4c2.8-10,6.1-19.8,9.9-29.5
				c3.7-9.6,9-18.6,12.4-28.2c6.1-17.1,16.9-33.7,27.2-48.6c21.8-31.6,50.8-55.7,86.6-69.8c36-14.1,74.8-18.9,113.1-21.8
				c9.4-0.7,18.8-1.4,28.3-2C584.3,335.9,584.4,326.9,578.6,327.3L578.6,327.3z"/>
		</g>
	</g>
	<g>
		<g>
			<path class="st2" d="M244.5,758.8c-32.6,35.5-55,79.4-65.8,126.3c-5.9,25.6-8.3,52.1-6.7,78.3c0.8,13.5,2.2,27,5.1,40.2
				c3,13.1,7.2,25.9,11,38.8c4.4,14.9,8.1,29.9,7.9,45.5c-0.2,15.4-5.1,29.1-9.5,43.7c-1.7,5.6,7,7.9,8.7,2.4
				c3.7-12.3,8-24.2,9.3-37.1s0-25.7-2.8-38.3c-5.9-26.4-16.3-51.4-19.3-78.5c-5.6-50.5,2.3-101.6,23.8-147.8
				c11.4-24.5,26.4-47.3,44.7-67.2C254.8,760.9,248.5,754.5,244.5,758.8L244.5,758.8z"/>
		</g>
	</g>
	<g>
		<g>
			<path class="st2" d="M263.9,724.8c2.1,14.3-3,28.2-6.3,41.9c-3.1,12.7-5.5,25.6-7.1,38.6c-3.2,26.4-2.6,53.7,3.6,79.7
				c5.9,24.4,18.1,46.5,26.2,70.1c8.8,25.7,9.6,53.1,4.4,79.6c-5.7,28.8-17.8,55.7-32,81.1c-2.8,5.1,4.9,9.6,7.8,4.5
				c25.7-45.9,44.7-98.9,33-151.9c-5.6-25.5-18.9-48.5-27-73.2c-8.6-26.2-10.2-54.2-7.8-81.5c1.4-15.7,4.3-31.3,8.1-46.5
				c3.8-14.9,8.1-29.3,5.9-44.8C271.8,716.7,263.1,719.1,263.9,724.8L263.9,724.8z"/>
		</g>
	</g>
	<g>
		<g>
			<path class="st2" d="M269.6,698.6c11.9,51,24.1,102.7,23.8,155.4c-0.2,46.1-10,92.2-28.3,134.5c-10.5,24.2-23.7,47.1-39.4,68.2
				c-3.4,4.7,4.4,9.2,7.8,4.5c28.1-38.1,48.4-81.8,59.4-127.9c11.6-48.7,11.6-98.4,4-147.7c-4.6-30.1-11.6-59.8-18.5-89.5
				C277,690.6,268.3,693,269.6,698.6L269.6,698.6z"/>
		</g>
	</g>
	<g>
		<g>
			<path class="st2" d="M158.2,856.1c-5.8,37.5-7.3,75.6-1.9,113.2c2.7,18.4,7.1,36.6,13.6,54c6.5,17.6,15.7,33.3,24.9,49.5
				c8.4,14.9,17.5,40-0.4,52.2c-4.8,3.2-0.3,11,4.5,7.8c13.3-9,16.9-26,13.6-41c-4.2-18.9-17.5-34.6-25.8-51.8
				c-17.2-35.5-24.3-75.2-24.8-114.5c-0.3-22.4,1.5-44.9,5-67.1C167.8,852.8,159.1,850.4,158.2,856.1L158.2,856.1z"/>
		</g>
	</g>
	<g>
		<g>
			<path class="st2" d="M167.8,861.6c-2.5-14.4,7-29.4,20.9-33.7c5.5-1.7,3.2-10.4-2.4-8.7c-18.9,5.8-30.5,25.4-27.1,44.7
				C160.1,869.7,168.8,867.3,167.8,861.6L167.8,861.6z"/>
		</g>
	</g>
	<g>
		<g>
			<path class="st2" d="M563.3,315.7c-14.1-14.1-32.7-21.7-51.8-26.4c-4.5-1.1-8.7-2-13.2-2.2c-6.1-0.2-12.1-2-18.2-2.4
				c-11.4-0.8-22.8,0-34.2,1.4c-21.6,2.7-43.8,5.7-63.8,14.9c-4.2,1.9-7.6,4.3-11.2,6.8c-4.2,2.9-8.6,5.2-12.5,8.4
				c-7.1,5.7-13.1,12.7-18.1,20.4c-2.4,3.8-3.8,7.8-5.9,11.7c-2.8,5-5.4,9.9-7.8,15.1c-4.5,9.6-8.3,19.6-12.2,29.5
				c-2,5.2-3.8,10.5-6.5,15.4c-2.4,4.4-5.3,8.6-6.8,13.4s-2.5,9.7-4.4,14.4c-2.3,5.7-4.6,11.4-6.9,17.1
				c-8.4,21.3-16.4,42.9-23.8,64.6s-13.2,44-21.2,65.5c-8.1,22-13.5,45.1-19.2,67.8c-5.8,22.9-11.6,45.9-16.2,69.1
				c-8.9,45.3-14.5,92.5-36.8,133.7C137.9,918,63.9,942.8-0.7,964.9c-38.8,13.3-77.6,27.1-112.6,49c-35.8,22.4-68.5,49.8-94.7,83
				c-6.2,7.8-12,16-17.5,24.3c-3.2,4.9,4.6,9.4,7.8,4.5c22.9-35,52.7-65.1,86.8-89.2c17.7-12.5,36-23.9,55.6-33.2
				c18.6-8.9,38-16.1,57.5-23c63.1-22.2,133.2-41.2,178.5-94c27.3-31.8,39.6-71.9,47.7-112.4c4.7-23.2,8.1-46.6,13.5-69.6
				c5.3-22.5,10.7-45,16.6-67.4c2.9-11.1,6-22.2,9.1-33.2c3.2-11,7.2-21.6,10.5-32.5c6.5-21.2,13.3-42.3,20.7-63.3
				c7.6-21.6,15.7-42.9,24.2-64.1c4.1-10,6.3-20.4,11.7-29.8c5.2-9,8.3-19.2,12.1-28.9c4-10,8.2-19.9,13.4-29.3
				c4.6-8.3,8.1-16.6,14.5-23.9c3-3.5,6.3-6.7,9.9-9.6c3.8-3,8.1-5,12.1-7.7c1.9-1.3,3-2.6,5-3.7c2.1-1.1,4.2-2.1,6.4-3.1
				c5.3-2.3,10.8-4.1,16.4-5.6c10.8-2.9,21.9-4.6,32.9-6.2c11.6-1.7,23.2-3,34.9-2.8c5.6,0.1,11.2,0.4,16.7,1.3
				c5,0.8,10.3,1.1,15.2,2.2c9.6,2.2,19.2,4.8,28.2,8.8c9.1,4,17.3,9.4,24.4,16.4C561.1,326.1,567.4,319.7,563.3,315.7L563.3,315.7z
				"/>
		</g>
	</g>
	<g>
		<g>
			<path class="st2" d="M576.1,326.1c-17.2-8.8-36.1-12.7-55.2-14.1c-19.3-1.4-39.1-1.2-58.3,0.7c-18.9,1.9-37.7,6-54.8,14.5
				c-16,8-29.9,19.8-41.6,33.3c-25.7,29.4-43.6,65.5-61.1,100.1c-9.6,19-19.3,38-28.2,57.4c-4.2,9.1-8.1,18.5-10.2,28.4
				c-2.1,10.2-2.2,20.7-2.3,31.1c-0.9,76-33.8,149.5-91.4,199.5c-27.3,23.7-59.6,41.8-94,52.8c-19,6.1-38.6,9.1-58.2,12.7
				c-19.1,3.5-37.4,8.8-54.9,17.4c-70.1,34.3-113.2,102.5-169.1,154c-7.4,6.8-15,13.3-22.9,19.5c-4.6,3.6,1.8,9.9,6.4,6.4
				C-159,992.4-118.2,923.3-53.2,881c15.3-9.9,31.7-18.2,49.1-23.5c20.1-6.1,41.1-8.2,61.5-12.6c34.4-7.5,67.3-21.9,96.4-41.8
				c60.5-41.4,102.4-106.4,115.2-178.6c3.3-18.8,3.9-37.4,4.4-56.5c0.3-10.5,1.6-20.6,5-30.6c3.3-9.7,8-19,12.5-28.2
				c18.3-37.5,36.4-75.4,58.5-110.7c19.2-30.7,43.8-58.8,79.3-70c18.8-5.9,38.6-7.6,58.2-8c19.2-0.4,38.7-0.1,57.4,4
				c9.4,2.1,18.5,5.1,27.1,9.5C576.7,336.5,581.3,328.8,576.1,326.1L576.1,326.1z"/>
		</g>
	</g>
	<g>
		<g>
			<path class="st2" d="M283.9,702.1c2,27.7,12.8,53.2,24.4,78.1c12.2,26,25.8,52,29,80.9c1.6,14.2,0.7,28.7-3.6,42.4
				c-4.3,13.7-11.8,26.3-18.8,38.7c-14.2,24.8-27.3,50.2-37.8,76.8c-12.8,32.3-22.8,66.1-29.1,100.3c-0.3,1.9,2.5,2.7,2.9,0.8
				c11.1-60.6,33.7-118.2,63.9-171.7c6.8-12,13.7-23.5,18.9-36.2c5.2-12.5,7.4-25.9,7.2-39.4c-0.4-28-11.2-53.6-22.8-78.6
				c-13.8-29.5-28.9-59.1-31.4-92.1C286.8,700.2,283.8,700.2,283.9,702.1L283.9,702.1z"/>
		</g>
	</g>
	<g>
		<g>
			<path class="st2" d="M581.9,338.9c5.9-22,31.5-33.2,52.7-27.6c23.5,6.3,38.8,28.5,47.6,49.7c5.1,12.4,7.6,25.7,10.8,38.7
				c3.2,12.8,6.3,25.6,9.5,38.4c6.7,26.9,13.4,53.7,20,80.6c3.3,13.2,6.6,26,6.8,39.7c0.2,13.3-1.1,26.5-2.2,39.7
				c-2.1,25.2-1.7,49.7,2.3,74.7c4.1,25.2,10.4,49.9,14.6,75.1c4.2,25.6,3.2,51.6,3.6,77.4c0.2,13.7,0.1,26.6,3.9,39.9
				c3.9,13.5,10.1,26.1,14.8,39.3C776,932,782,960.7,780.6,990c-0.1,1.9,2.9,1.9,3,0c1.2-26.4-3.4-52.5-11.5-77.5
				c-8.1-25.2-21.6-48.5-21.5-75.5c0.1-13.8-0.6-27.6-0.6-41.5c0-13.2,0.1-26.2-1.8-39.3c-3.7-25.9-10.2-51.3-14.8-77
				c-2.4-13.6-4.3-27.4-4.8-41.2c-0.6-13.9,0.4-27.9,1.6-41.8c1.1-13.5,2.4-27.1,2-40.6c-0.4-13.7-4.1-26.4-7.3-39.6
				c-6.9-28.2-14-56.3-21-84.4c-3.3-13.4-6.7-26.9-10-40.4c-3.2-13-6.2-25.7-11.7-38c-9.5-21.4-28.8-42.9-53.2-46.1
				c-21.1-2.7-44.3,9.7-50,30.9C578.5,339.9,581.4,340.7,581.9,338.9L581.9,338.9z"/>
		</g>
	</g>
	<g>
		<g>
			<path class="st2" d="M587.7,347.9c16.4-12.3,38.9-16,57.8-7.2c20,9.4,31.4,30.5,36,51.2c5.5,24.8,5.3,51.1,6.1,76.4
				c0.8,24.6,1.8,49.2,7.3,73.4c5.3,23.6,15.8,45.4,27.5,66.4c11.5,20.7,23.2,41.7,28.8,64.8c6,24.9,5.3,51.3,6.1,76.7
				c0.8,24.9,1.6,49.8,2.4,74.7c0.9,28.7,2.2,57.4,2.8,86.1c0.6,28.6,0.9,57.3,2.6,85.9c0.1,1.9,3.1,1.9,3,0
				c-1.6-26.7-2-53.4-2.5-80.1c-0.5-26.5-1.6-53.1-2.5-79.6c-0.8-25.8-1.7-51.6-2.5-77.5c-0.9-26.2-1-52.3-4.8-78.2
				c-3.4-23.2-14.5-44.8-25.7-65.1c-12.3-22.3-24.9-44.6-31.1-69.6c-6.6-26.6-7.7-53.7-8.5-80.9c-0.8-25.1-0.6-51.2-6.5-75.8
				c-5.1-21.4-17.4-42.9-38.4-52.1c-19.6-8.6-42.6-4.8-59.5,7.8C584.6,346.5,586.1,349.1,587.7,347.9L587.7,347.9z"/>
		</g>
	</g>
	<g>
		<g>
			<path class="st2" d="M599,364.7c10.3-4,22.3-8.5,33.4-5.3c11.5,3.4,18.7,15.9,25.5,24.8c12.9,16.8,25.3,34.3,34.2,53.7
				c4.6,10.1,8.2,20.7,10.1,31.6c1.8,10.1,0.4,21.3,4.3,30.9c3.3,8.2,10.5,13.5,16.9,19.1c8,6.9,12.3,14.4,14.4,24.7
				c2,9.7,3.1,19.9,9.7,27.8c6.2,7.3,18.2,12.4,19.2,23c0.2,1.9,3.2,1.9,3,0c-0.8-8.5-7.2-13.6-13.4-18.8c-3.7-3.1-7.3-6.4-9.6-10.7
				c-2.6-4.8-3.7-10.2-4.7-15.6c-1.8-9.1-3.3-18.3-9.4-25.7c-6.5-7.8-16.2-12.6-21.5-21.4c-6-9.9-4-23.2-6-34.2
				c-1.9-10.6-5.3-20.9-9.7-30.8c-9.3-21-23-39.7-36.9-57.8c-6.8-8.8-13.4-19.8-24.5-23.3c-11.8-3.8-24.7,0.8-35.7,5.1
				C596.4,362.5,597.2,365.4,599,364.7L599,364.7z"/>
		</g>
	</g>
	<g>
		<g>
			<path class="st2" d="M615.3,397.2c11.2,0.2,23.9,6.7,32.3,13.9c8.2,7,15.2,15.3,20.8,24.4c6.3,10.1,10.6,21.1,15.1,32.1
				c4.5,11.1,9.7,21.9,14.6,32.8c19.2,42.6,45.3,92,31.2,139.8c-12.9,43.8-49.3,78.5-85.4,104.3c-3.7,2.6-7.3,4.9-10.2,8.5
				c-1.5,1.9-2.7,4-4.2,6c-1.7,2.4-4.1,4.6-5.6,7.2c-1.1,2-1.6,4.5-2.6,6.6c-1.4,2.7-2.9,5.4-4.2,8.1c-2.6,5.3-5.1,10.6-7.4,16
				c-9.3,22-15.2,45-18.5,68.6c-2,14.4-1.2,29,0.6,43.4c0.9,6.7,1.9,13.4,2.9,20.1c0.5,3.5,1.1,6.9,1.6,10.4c0.3,2.6-0.2,4.9,0,7.5
				c0.6,7.4,1.9,14.7,2.3,22.1c0.4,7.6,0.7,15.1,1.2,22.7c0.9,14.1-0.7,28.3-0.1,42.4c0.1,1.9,3.1,1.9,3,0
				c-0.5-12.9,1-25.7,0.4-38.6c-0.6-13.2-1-26.5-2.5-39.6c-0.3-2.7-0.7-5.3-1.1-7.9c-0.4-2.5,0.2-4.6,0-7.1
				c-0.3-6.4-1.9-13-2.9-19.3c-2.1-13.5-3.9-27.1-3.6-40.8c0.5-25.5,7.4-51.9,16.6-75.6c2.3-6.1,4.9-12,7.7-17.9
				c2.7-5.6,6.1-10.9,8.6-16.6c1.1-2.5,1.9-4.5,3.6-6.7c1.4-1.8,2.7-3.5,4-5.4c4-5.8,8.9-9.3,14.5-13.3
				c35-25.3,69.3-58.8,83.1-100.9c15.4-46.9-7.6-95.1-26.8-137.3c-5.9-13.1-12.2-26.1-17.7-39.4c-4.9-11.8-9.4-23.5-16.2-34.3
				c-6.3-10-14.1-19-23.4-26.4c-8.5-6.8-20.9-12.5-32-12.7C613.3,394.2,613.3,397.2,615.3,397.2L615.3,397.2z"/>
		</g>
	</g>
	<g>
		<g>
			<path class="st2" d="M627.8,431.5c19.5-1.5,35.8,10.5,47.6,25c13,16,21.6,35.4,29,54.5c7.8,20.1,13.5,40.9,19,61.8
				c5.7,21.4,12.1,43,13.6,65.2c1.5,21.7-3.8,42.7-12.9,62.3c-9,19.5-20,37.9-28.8,57.5c-18.1,40.6-30.2,83.5-42.7,126
				c-14.2,48-30.8,95.5-42.3,144.3c-0.9,3.8,4.9,5.4,5.8,1.6c10.7-45.3,25.9-89.5,39.2-134c13.3-44.4,25.3-89.6,44-132.2
				c17.4-39.8,45.5-76.4,43.9-121.8c-0.8-22.1-6.9-43.7-12.5-64.9c-5.8-21.8-11.6-43.5-19.5-64.7c-7.9-21-17.3-42.2-31.5-59.8
				c-12.7-15.6-30.8-28.4-51.8-26.8C623.9,425.9,623.9,431.9,627.8,431.5L627.8,431.5z"/>
		</g>
	</g>
	<g>
		<g>
			<path class="st2" d="M634.6,470.2c16.5,4.2,31.9,14.8,40.8,29.4c10.6,17.3,16.2,37.7,22.5,56.8c12.9,38.8,24.5,78.2,33.4,118.1
				c4.3,19.3,8.5,40.1,4,59.7c-4.1,18.1-19.5,31.2-30.4,45.3c-5.1,6.6-9.2,13.5-12.6,21.1c-3.7,8.3-8,16-10.7,24.7
				c-5.4,17.1-7.1,35.1-7.7,52.9c-0.2,5.2-0.3,10.4-0.3,15.6c0,2.7,0.3,5.7-0.2,8.4c-0.3,1.9-1.2,3.7-1.4,5.7
				c-1.1,11.1,0.3,23,0.8,34.1c0.9,23,2.3,46,2.8,69c0.1,3.9,6.1,3.9,6,0c-0.4-20.8-1.6-41.6-2.5-62.4c-0.5-10.8-0.9-21.6-1-32.4
				c0-2.7-0.4-5.7,0-8.4c0.3-1.6,1-3,1.3-4.6c0.8-4.4,0.3-9.2,0.3-13.6c0.3-19.1,1.2-38.4,6.2-56.9c2.6-9.8,6.8-18.3,11.1-27.3
				c3.9-8.3,7.8-15.8,13.5-23.1c11.1-14.3,24.4-26.7,30.1-44.3c2.9-8.8,2.6-18.8,2.3-28c-0.4-10-2-19.8-4.1-29.6
				c-8.8-41-20.4-81.3-33.5-121c-7-21.2-13-44.4-25.1-63.4c-9.9-15.6-26.1-27-44-31.6C632.5,463.5,630.9,469.3,634.6,470.2
				L634.6,470.2z"/>
		</g>
	</g>
	<g>
		<g>
			<path class="st2" d="M643.9,525.2c21.8,23,36.9,51.7,43.4,82.7c3.2,15.2,5.5,32.9,2.7,48.3c-1.4,7.7-2.2,15.6-4.1,23.4
				c-2,8.5-4.4,16.8-7.1,25.1c-10.8,33.2-26.8,65.2-35.1,99.1c-2.1,8.6-6.1,17.1-8.9,25.6c-2.9,8.9-5.7,17.9-8.2,27
				c-4.8,17-9,34.2-12.8,51.5c-2.1,9.8-3.4,19.4-5.1,29.3c-1.7,9.8-3,19.7-4,29.6c-2,21.1-2.4,42.3-2.3,63.5c0,3.9,6,3.9,6,0
				c-0.1-19.2,0.2-38.5,1.7-57.7c0.8-9.7,1.9-19.4,3.5-29c0.8-4.8,1.7-9.6,2.6-14.3c0.9-4.1,0.8-8.2,1.7-12.4
				c7.7-36.5,17.4-72.6,30.2-107.8c1.4-3.8,1.9-7.6,3.1-11.4c1.6-4.8,3.4-9.6,5-14.4c3-8.8,6.3-17.5,9.6-26.2
				c6.3-16.6,12.9-33.1,18.4-50c2.8-8.5,5.3-17.2,7.4-25.9c1-4.1,1.9-8.3,2.7-12.4c0.6-3,0.6-5.9,0.9-8.8c0.7-7.5,1.7-14.8,1.5-22.4
				c-0.2-7.8-1-15.6-2.2-23.3c-5.6-35-22-67.6-46.4-93.2C645.5,518.1,641.2,522.4,643.9,525.2L643.9,525.2z"/>
		</g>
	</g>
	<g>
		<g>
			<path class="st2" d="M642.9,561.5c16.6,27.1,17.9,59.5,11.6,90c-6.6,31.8-21.4,60.5-35.6,89.5c-13.8,28.3-27.3,57.2-32.7,88.5
				c-2.7,15.6-3.5,31.8-3.4,47.6c0.1,16.3,0,32.5,0.5,48.8c0.6,18.8-0.1,37.7,0,56.5c0.1,19.2,0.3,38.3-0.1,57.5
				c-0.1,3.9,5.9,3.9,6,0c0.7-34.3,0.1-68.6,0.3-102.9c0-8.2-0.4-16.3-0.7-24.5c-0.3-8,0.7-16,0.3-24c-0.8-17.2-0.3-34.8,2-51.9
				c8.9-64.8,54-116.8,68.4-179.9c7.5-33,6.6-68.6-11.4-98.1C646,555.2,640.8,558.2,642.9,561.5L642.9,561.5z"/>
		</g>
	</g>
	<g>
		<g>
			<path class="st2" d="M641.4,503.4c24,25.8,44.1,55.4,61.5,86c8.8,15.4,17,30.8,22.5,47.8s9.1,34.4,9.3,52.4
				c1,71.1-38.9,134.5-50.1,203.5c-6.4,39.5-1.3,79.2,8.4,117.7c0.9,3.7,6.7,2.2,5.8-1.6c-9-35.7-14.2-72.7-9.1-109.5
				c4.8-35.2,17.7-69.1,29-102.7c11.1-33,21.5-66.9,22.1-102c0.6-35.2-10.5-68.5-27.3-99c-19-34.5-40.9-68-67.8-96.8
				C643,496.4,638.8,500.6,641.4,503.4L641.4,503.4z"/>
		</g>
	</g>
	<g>
		<g>
			<path class="st2" d="M598.9,353.2c2.3-10.9,12.1-18.9,22.7-21.4c10.3-2.4,20.5,0.3,29.3,5.9c16.1,10.2,24.9,28.3,30.1,46.1
				c6.8,23.6,10.7,48.5,14.5,72.7c4,25.3,7.2,50.6,10,76.1c10.9,99.4,16.4,199.9,39.6,297.5c6.5,27.2,14.6,54,23.2,80.6
				c4.3,13.3,8.8,26.6,13.4,39.8c2,5.7,3.2,11.5,5.3,17.2c2.4,6.5,4.1,13.3,6.2,19.9c1.2,3.7,7,2.1,5.8-1.6
				c-1.8-5.8-3.4-11.6-5.3-17.4c-2-6-3.5-12-5.6-18c-4.2-12-8.4-24.1-12.3-36.2c-8.1-24.7-15.7-49.6-22.2-74.8
				c-13.1-51-21-103.7-27-155.9c-6-52.9-10.1-106-16-158.8c-2.9-25.9-6.3-51.8-10.6-77.6c-2.1-12.8-4.5-25.5-7.1-38.2
				c-2.4-11.7-4.7-23.6-8.7-34.9c-6.9-19.5-19-37.7-38.6-46c-19.8-8.4-47.5,0.7-52.4,23.4C592.3,355.4,598.1,357,598.9,353.2
				L598.9,353.2z"/>
		</g>
	</g>
	<g>
		<g>
			<path class="st2" d="M598.5,360c15.9-12.8,39.3-7.4,53.1,5.8c14.8,14.1,20.9,34.7,24.3,54.3c2.1,11.9,3.3,24,5.4,35.9
				c2.2,12.2,5.2,24.2,7.4,36.3c4.3,24.8,1.2,49-0.9,73.8c-4,48.5-4.1,97.2-4.2,145.9c0,24.1-0.5,48.4,1.8,72.5
				c2.1,21.8,7.4,43.1,16.1,63.2c10.4,24.1,24.7,46.4,35.4,70.4c11.3,25.2,17.6,52.1,20.3,79.5c0.4,3.8,6.4,3.8,6,0
				c-2.4-24.5-7.4-48.6-16.5-71.6c-8.8-22.4-21.2-43-32-64.4c-11.1-22-19.1-44.9-22.4-69.4c-3.4-25.2-2.8-50.9-2.7-76.3
				c0.1-50.9,0.1-101.9,4.4-152.7c1.1-12.4,2.6-24.8,3-37.2c0.5-12.5-0.7-24.9-3-37.2c-2.4-12.8-5.6-25.4-7.7-38.3
				c-2-12.3-3.2-24.7-5.6-36.9c-4.2-21.5-12.7-43.7-30.9-57.1c-16.2-11.9-39.5-13.8-55.6-0.9C591.3,358.2,595.5,362.4,598.5,360
				L598.5,360z"/>
		</g>
	</g>
	<g>
		<g>
			<path class="st2" d="M586.7,307.8c23-9.9,49.4-2.2,68.5,12.7c18.4,14.4,29.9,35.3,36.2,57.5c7.3,25.5,8.5,52.1,9.9,78.4
				c1.5,27.6,2.8,55.2,2.1,82.9c-0.7,27.3-4,54.2-10,80.8c-2.9,13.1-5.6,26.1-6.1,39.5c-0.5,13.6,0.5,27.2,0.9,40.9
				c0.8,28,0.4,56-1.6,84c-1.9,25.9-5,52.2,0.5,77.8c2.9,13.3,8.4,25.9,16.7,36.7c8,10.6,18.1,19.4,28.1,28c9.9,8.5,20,17,28.7,26.9
				c9.5,10.9,15.8,23.1,21.1,36.5c1.4,3.5,7.2,2,5.8-1.6c-4.5-11.4-9.5-22.4-17-32.3c-7.1-9.3-15.5-17.5-24.3-25.2
				c-19.4-17-40.4-32.9-49.6-58c-9.5-26-6.6-54.5-4.5-81.5c2.2-28.8,3-57.6,2.4-86.5c-0.3-13.6-1.3-27.3-1.2-41
				c0.2-14.6,2.8-28.6,6-42.8c6.1-27.2,9.5-54.6,10.2-82.4c0.7-28.3-0.6-56.6-2.2-84.9c-1.5-26.8-2.8-53.9-10.5-79.8
				c-7.1-23.9-20.2-46.1-40.6-60.9c-20.8-15.1-48.1-21.5-72.4-11.1C580.1,304.1,583.2,309.3,586.7,307.8L586.7,307.8z"/>
		</g>
	</g>
	<g>
		<g>
			<path class="st2" d="M599.1,370.8c37.1,15.7,70,43.3,83,82.5c15.2,45.9,6.8,96.1,0,142.8c-7,47.9-20.1,94.9-34,141.1
				c-7,23.4-14.1,46.7-21.3,70c-7,22.8-14.3,45.7-19.3,69c-5.4,25.5-7.1,51.3-2.8,77.1c4.2,24.7,13,48.3,24.2,70.7
				c2.6,5.2,10.4,0.6,7.8-4.5c-10.3-20.6-18.4-42.3-22.7-65c-4.4-23.5-3.5-47.1,1.1-70.5c4.6-24,12.1-47.3,19.2-70.6
				c7.1-23.3,14.3-46.7,21.3-70c14.1-46.9,27.3-94.4,34.8-142.9c3.7-24.1,7.1-48.6,8.5-72.9c1.3-22.9,0.7-47.1-5.9-69.2
				c-6.6-22.4-17.8-42.1-34.3-58.7c-15.7-15.8-34.8-27.8-55.2-36.5C598.3,360.8,593.8,368.5,599.1,370.8L599.1,370.8z"/>
		</g>
	</g>
	<g>
		<g>
			<path class="st2" d="M625.8,420.2c19.9-12.2,31,20.3,36.4,33c4.1,9.7,7.2,19.8,11.4,29.3c4.3,9.5,7.7,19.5,11.3,29.3
				c14,38.3,26.1,77.6,31.6,118.1c5.5,40.8,3.1,81.7-5.5,121.9c-8.9,41.5-23,81.5-35.3,122c-6.9,22.7-13.2,45.6-17.3,68.9
				c-4.2,24.1-8.4,48.4-5.3,72.8c0.7,5.7,9.7,5.7,9,0c-2.9-23.1,0.7-45.9,4.7-68.6c3.8-21.8,9.4-43.3,15.7-64.5
				c12.7-42.7,27.8-84.6,37.2-128.2c8.9-41.3,11.4-83,5.8-124.9c-5.7-42.4-18.3-83.3-33.1-123.3c-8.3-22.5-17.1-44.9-26.5-66.9
				c-3.8-9-8.2-18.6-16.3-24.6c-8.4-6.3-19.3-7.7-28.3-2.1C616.3,415.5,620.9,423.3,625.8,420.2L625.8,420.2z"/>
		</g>
	</g>
	<g>
		<g>
			<path class="st2" d="M639.7,457.3c8.4-5.3,17.6,3.1,22.5,9.6c5.3,7,9.3,15.1,13.3,22.9c9.2,17.6,16.8,35.9,22.9,54.7
				c12.6,39,18.5,80.1,17,121.1C714,707.3,704.9,748.1,698,789c-3.4,20-6.3,40.1-7.7,60.4c-1.2,17.6-2.2,35.7,1.3,53.1
				c8.9,43,52.7,60.3,74,95.3c3,4.9,10.8,0.4,7.8-4.5c-19.6-32.2-61.1-49.6-71.7-87.4c-5-17.9-3.7-37.1-2.5-55.5
				c1.4-21.7,4.7-43.3,8.4-64.8c7.2-41.7,16.1-83.4,16.9-125.9c0.7-42-6-84.2-19.6-123.9c-7.2-21.1-16.5-41.5-27.4-61
				c-7.7-13.9-23.9-37.1-42.5-25.3C630.3,452.6,634.8,460.4,639.7,457.3L639.7,457.3z"/>
		</g>
	</g>
	<g>
		<g>
			<path class="st2" d="M602.7,380.5c11.4-0.8,20,6.2,27.8,13.6c7.9,7.5,15.2,15.5,22,24c13.4,16.9,24.4,35.7,32.9,55.5
				c17.3,40,24.4,83.8,24.8,127.3c0.5,52.5-8.2,104.6-18.3,155.9c-2.5,12.8-5.2,25.5-7.8,38.2c-2.1,10.5-4.1,21.3-4.2,32.1
				c-0.1,10.2,1.7,20.5,6.8,29.4c4.9,8.7,12.7,15.3,20.8,20.8c9.6,6.5,20.1,11.7,29.6,18.4c9.7,6.9,18.6,15.2,26.1,24.4
				c14.2,17.3,23.7,38.6,26.2,60.9c0.7,5.7,9.7,5.8,9,0c-4.8-41.9-30.5-77.3-66.1-99.1c-18.5-11.3-39.4-21.2-42.9-45
				c-1.7-11.5,0.2-23.4,2.3-34.7c2.4-12.4,5.1-24.8,7.6-37.3c19-94.9,34.2-197.3-3.6-289.8c-9.1-22.3-21-43.3-35.9-62.2
				c-7.9-10-16.5-19.5-25.9-28c-8.7-7.9-19-14.3-31.2-13.5C597,371.9,596.9,380.9,602.7,380.5L602.7,380.5z"/>
		</g>
	</g>
	<g>
		<g>
			<path class="st2" d="M640.2,492c29.7,11.6,47.5,41.1,58.1,69.6c11.9,32,15.6,66.2,17.9,100c4.9,73.2-0.5,147-6.1,220
				c-3.2,41.5-8.9,83.2-3.5,124.7c0.7,5.7,9.7,5.7,9,0c-5-38-0.6-76.1,2.6-114c3.3-38.1,5.6-76.3,7.4-114.5
				c1.7-37.8,2.2-75.6-0.2-113.4c-2.2-34.7-5.7-70-17.5-102.9c-11.8-32.7-31.6-65.1-65.3-78.3C637.2,481.2,634.8,489.9,640.2,492
				L640.2,492z"/>
		</g>
	</g>
	<g>
		<g>
			<path class="st2" d="M635.6,587.1c8.2,30.3,12.6,61.6,12.8,93c0.1,15.5-0.8,31-2.8,46.4s-4.3,31.1-7.8,46.2
				c-6.6,28.6-18.3,55.6-32.5,81.1c-1.5,2.6-3,5.2-4.5,7.8c-1.3,2.4-1.2,4.1-1.8,6.4c-0.8,3.2-2.9,6.6-4.2,9.7
				c-1.6,4-3.1,8-4.4,12.2c-4.4,14-6.9,28.8-6.3,43.6c0.6,16.2,5.1,32.4,10.1,47.8c2.7,8.1,5.8,16,8,24.3c2.2,8,4.1,16.1,6.9,23.9
				c2,5.4,10.7,3.1,8.7-2.4c-5.1-14.1-8.3-28.8-13.2-42.9c-4.9-14.2-9.7-29.4-11.2-44.4c-1.4-14.8,0.4-29.7,4.5-44
				c2.1-7.3,4.8-14.5,8-21.5c0.7-1.5,1.6-3,2-4.5c0.3-1-0.1-2.5,0.1-3.4c1-3,4.1-6.7,5.7-9.6c13.9-25.2,25.5-51.9,32.1-80
				c3.4-14.3,5.5-29,7.6-43.5c2.2-15.5,3.5-31,3.7-46.7c0.5-34.4-4.2-68.8-13.1-102C642.8,579.1,634.1,581.4,635.6,587.1
				L635.6,587.1z"/>
		</g>
	</g>
	<g>
		<path class="st3" d="M581.7,336c12.5,25.5,25.1,51,37.6,76.5c7.2,14.7,12.2,29.1,14.9,45.3c2.1,12.8,3.7,26.6,4.1,39.6
			c0.7,19.7,4.3,39.2,5,58.9c1.3,39.6-9.4,78.6-19.9,116.9c-5.9,21.4-11.9,43-23.1,62.2c-25,42.9-71.8,68-116.2,90.9
			c-17.3,8.9-35.4,18-54.8,18.2c-27.5,0.2-51.5-17.3-73.1-34.1c-11.9-9.2-23.8-18.4-33.9-29.4c-30.4-33-42.3-79.6-41.4-124.4
			s13.5-88.5,26.7-131.4c16-51.8,35.3-106.6,79-139.4c25.5-19.1,56.8-28.7,87.3-38.2c35.2-10.9,73.2-22.3,108.1-10.8"/>
	</g>
	<g>
		<path class="st4" d="M619.3,669.4c-8,14.8-21.6,26-35.8,35.7c-14.1,9.6-30.9,23.6-43.5,35c-3.8,3.5-13.3,25-15.2,29.9
			c-10.3,26.2-15.8,50.2-12.8,66.2c0.2,0.8,1,1.3,1.8,1.1c6.2-2,20.6-10.5,24.1-13.5c15.7-13.4,28.3-26,40.2-42.8
			c10.9-15.4,18.1-43.4,24.5-61c5.5-15.2,10.5-30.5,15.4-45.8c0.4-1.4-1.2-2.4-2.3-1.4l0,0"/>
	</g>
	<g>
		<path class="st4" d="M289,655.2c8,8.2,11,19.4,16.4,29.2c9.5,17.4,26.4,30.4,36.7,47.3c8.7,14.3,12.3,31,13,47.7
			c0.7,16.6-1.4,33.4-3.4,50.1c-8.1-5.3-14.7-12.4-21.2-19.3c-8.4-9-16.9-18-23.3-28.3c-17.5-27.8-18.7-61.9-19.5-94.6
			c-0.3-11.3-0.6-22.7,1-33.9"/>
	</g>
	<g>
		<g>
			<path class="st2" d="M635.5,584.3c-5.7,41.3-18.5,81.7-33.2,120.6c-6.8,18-15.1,35.7-27.4,50.6c-12.4,15.1-28.1,27.3-44.2,38.2
				c-16.5,11.2-33.1,22.7-51,31.4c-18.6,9.1-38.8,12.9-59.4,9.7c-38.2-6-71.9-30.7-95.3-60.6c-13.5-17.1-24.1-37-29.9-58
				c-6.3-22.5-6.9-45.7-7.2-68.9c-0.1-5.8-9.1-5.8-9,0c0.3,21.5,0.9,43.1,5.7,64.1c4.6,19.8,13.1,38.8,24.3,55.7
				c21.9,33,54.4,60.7,92.6,72.5c19.9,6.1,41.2,7.2,61.4,1.7c20-5.5,38-17.1,55.2-28.4c17.3-11.4,34.8-22.8,49.9-37.1
				c14.4-13.5,25.7-29.6,34.2-47.4c10.3-21.9,17.8-45.3,24.9-68.4c7.4-24.1,13.7-48.5,17.1-73.4
				C644.9,581.1,636.2,578.6,635.5,584.3L635.5,584.3z"/>
		</g>
	</g>
	<g>
		<g>
			<path class="st2" d="M283.2,665.3c5.8,0,5.8-9,0-9C277.4,656.3,277.4,665.3,283.2,665.3L283.2,665.3z"/>
		</g>
	</g>
	<g>
		<g>
			<path class="st2" d="M574.5,337c38.1,55,61.2,120.6,64,187.6c0.8,19-0.1,38.1-2.7,56.9c-0.8,5.7,7.9,8.1,8.7,2.4
				c9.5-68.4-3-138.5-32.7-200.7c-8.5-17.7-18.4-34.7-29.5-50.8C579,327.7,571.2,332.2,574.5,337L574.5,337z"/>
		</g>
	</g>
	<g>
		<g>
			<path class="st2" d="M487,524.4c-1.6-4.7-1.5-9.6,0.7-14.2c0.8-1.7-1.8-3.3-2.6-1.5c-2.5,5.2-2.9,11-1,16.5
				C484.8,527,487.7,526.3,487,524.4L487,524.4z"/>
		</g>
	</g>
	<g>
		<g>
			<path class="st2" d="M489.9,523.2c-1.3-3.5-2.8-10.7,0.5-13.7c1.4-1.3-0.7-3.4-2.1-2.1c-4.1,3.8-2.9,12-1.2,16.6
				C487.7,525.8,490.6,525.1,489.9,523.2L489.9,523.2z"/>
		</g>
	</g>
	<g>
		<g>
			<path class="st2" d="M492.8,521.3c-1.2-4.9-2.6-11.4,2.7-14.5c1.7-1,0.2-3.6-1.5-2.6c-6.5,3.8-5.6,11.6-4,17.9
				C490.4,524,493.3,523.2,492.8,521.3L492.8,521.3z"/>
		</g>
	</g>
	<g>
		<g>
			<path class="st2" d="M495.1,520.5c-1.8-4.6-0.1-9.6,4.6-11.5c1.8-0.7,1-3.6-0.8-2.9c-6.1,2.5-9.2,9-6.7,15.2
				C492.9,523.1,495.8,522.3,495.1,520.5L495.1,520.5z"/>
		</g>
	</g>
	<g>
		<g>
			<path class="st2" d="M497.1,520.7c-1.3-3,2.5-7.3,4.5-9.2c2.1-2,4.8-2.8,7.5-3.7c1.8-0.6,1.1-3.5-0.8-2.9
				c-4.3,1.4-7.9,3-10.7,6.7c-2.5,3.2-4.8,6.6-3.1,10.6C495.3,523.9,497.9,522.4,497.1,520.7L497.1,520.7z"/>
		</g>
	</g>
	<g>
		<g>
			<path class="st2" d="M499.6,521.3c2.6-9.3,11.2-15.3,20.7-15.3c4.7,0,9.2,0.7,13.9,0.4c5.4-0.4,10.7-1.4,16.1-2
				c10.7-1.1,20.7,1.3,30.5,5.3c8.5,3.5,18.5,7.5,23.8,15.5c1.1,1.6,3.6,0.1,2.6-1.5c-5.6-8.6-15.9-12.8-25-16.6
				c-11-4.6-21.9-6.9-33.8-5.5c-6.3,0.8-12.6,2-18.9,1.9c-5.2-0.1-10.3-1.1-15.4,0.1c-8.4,2.1-15.1,8.6-17.4,16.9
				C496.2,522.4,499.1,523.2,499.6,521.3L499.6,521.3z"/>
		</g>
	</g>
	<g>
		<g>
			<path class="st2" d="M503,521.3c1.1-4.7,6.2-7,10.2-9c4-2.1,8.4-4.1,12.8-5.2c4.5-1.1,8.8-0.1,13.3,0.1c4.2,0.2,8.3,0,12.5,0.4
				c8.5,0.7,17.1,2.9,25.5,4.6c8.2,1.7,16.4,3.7,22.9,9.2c1.5,1.2,3.6-0.9,2.1-2.1c-6.7-5.7-14.9-8-23.4-9.8
				c-10.1-2.1-20.4-4.8-30.8-5.1c-5.3-0.1-10.5-0.5-15.8-0.8c-4.8-0.3-9.1,1.1-13.6,2.9c-6.5,2.6-16.8,6.3-18.5,14
				C499.7,522.4,502.6,523.2,503,521.3L503,521.3z"/>
		</g>
	</g>
	<g>
		<g>
			<path class="st2" d="M505.9,521.3c1.6-3.9,8.4-6.5,12-8c3.2-1.3,6.5-2.3,9.9-3c8.3-1.8,16.8-1.5,25.2-0.7
				c16.2,1.6,32.2,5.3,47.3,11.5c1.3,0.5,1.9-1.6,0.6-2.2c-17.2-7-35.8-11.1-54.3-12c-8.8-0.4-17.6,0.3-26,3.1
				c-5.7,1.9-14.4,4.8-16.8,10.8C503.2,522,505.3,522.6,505.9,521.3L505.9,521.3z"/>
		</g>
	</g>
	<g>
		<g>
			<path class="st2" d="M509.9,521.7c1.1-6.2,13.4-7.4,18.4-8.6c7.4-1.7,15-2.9,22.6-3.8c14.1-1.7,28.8-1.2,41.1,6.7
				c0.8,0.5,1.6-0.8,0.8-1.3c-13.8-8.8-30.2-8.5-45.9-6.3c-8.8,1.2-17.5,2.8-26.1,5.1c-4.5,1.2-11.4,2.4-12.4,7.9
				C508.3,522.2,509.7,522.6,509.9,521.7L509.9,521.7z"/>
		</g>
	</g>
	<g>
		<g>
			<path class="st2" d="M516.9,521c10.7-13.6,26.7-15.2,42.5-10.5c7.2,2.1,14.2,4.8,21.4,7c3.6,1.1,7.3,2.1,11,3.1
				c4.3,1.1,9.2,1.7,12.2,5.3c0.6,0.7,1.7-0.3,1.1-1.1c-2.1-2.5-4.7-3.5-7.8-4.4c-4.7-1.3-9.6-2.4-14.3-3.8
				c-9-2.7-17.7-6.3-26.8-8.5c-15.1-3.8-30.3-0.8-40.3,11.9C515.2,520.7,516.3,521.8,516.9,521L516.9,521z"/>
		</g>
	</g>
	<g>
		<g>
			<path class="st2" d="M522.8,520.6c7.8-10,21.3-14.9,33.6-11.3c6.5,1.9,12.4,5,19.1,6.6c3.5,0.8,7,1.4,10.5,2
				c3.9,0.6,8.1,0.7,11.2,3.6c0.7,0.6,1.8-0.4,1.1-1.1c-5.1-4.6-14.2-4.2-20.6-5.5c-8.1-1.8-15.5-6.1-23.5-7.6
				c-12.1-2.3-24.8,2.7-32.3,12.4C521.2,520.3,522.2,521.4,522.8,520.6L522.8,520.6z"/>
		</g>
	</g>
	<g>
		<g>
			<path class="st2" d="M513.2,520.6c2.5-5.9,11.5-10.9,17.6-12.3c8.1-1.9,17.2,0.5,25.3,1.6c7,1,14.5,1.3,21.3,3.2
				c6.3,1.8,11.5,4.7,18.3,5.1c1,0.1,1-1.4,0-1.5c-8.4-0.5-15.3-4.9-23.5-6.1c-8.6-1.2-17.3-2.4-26-3.5c-6.7-0.9-13.5-1.7-19.9,1.1
				c-5.2,2.3-12.1,6.2-14.5,11.6C511.6,520.8,512.8,521.5,513.2,520.6L513.2,520.6z"/>
		</g>
	</g>
	<g>
		<g>
			<path class="st2" d="M528.1,519.1c5.1-5.8,13.3-6.9,20.7-7.3c7.8-0.4,15.6,0.5,23.2,2.6c0.9,0.3,1.3-1.2,0.4-1.4
				c-8.9-2.4-18.1-3.4-27.3-2.4c-6.7,0.7-13.4,2.2-18,7.4C526.4,518.7,527.4,519.8,528.1,519.1L528.1,519.1z"/>
		</g>
	</g>
	<g>
		<g>
			<path class="st2" d="M534.9,518.1c4-4.8,14.8-5.1,20.5-5c6.4,0.1,12.3,2.2,18.6,2.7c1,0.1,1-1.4,0-1.5
				c-8.2-0.6-15.4-3.2-23.8-2.5c-5.1,0.4-12.9,1-16.4,5.3C533.2,517.7,534.3,518.8,534.9,518.1L534.9,518.1z"/>
		</g>
	</g>
	<g>
		<g>
			<path class="st2" d="M539.9,519.3c18.4-4.3,37.4-8.5,56.1-3.8c0.9,0.2,1.3-1.2,0.4-1.4c-19-4.7-38.3-0.5-56.9,3.8
				C538.5,518.1,538.9,519.5,539.9,519.3L539.9,519.3z"/>
		</g>
	</g>
	<g>
		<g>
			<path class="st2" d="M499.9,521.3c-0.7-4.1,5.9-6.8,8.7-8.2c1.7-0.8,7.2-4,9.3-3.1c0.9,0.4,1.6-0.9,0.8-1.3
				c-3.5-1.6-10.2,2.7-13.2,4.4c-3.4,1.9-7.7,4.1-7,8.6C498.6,522.6,500,522.2,499.9,521.3L499.9,521.3z"/>
		</g>
	</g>
	<g>
		<g>
			<path class="st2" d="M503.5,520.9c-0.4-5.8,0.1-13.2,6.7-15.2c0.9-0.3,0.5-1.7-0.4-1.4c-7.3,2.2-8.3,10.1-7.8,16.6
				C502,521.9,503.5,521.9,503.5,520.9L503.5,520.9z"/>
		</g>
	</g>
	<g>
		<g>
			<path class="st2" d="M506,519.1c0.3-6.4,4.4-12.1,10.5-14.2c0.9-0.3,0.5-1.8-0.4-1.4c-6.8,2.3-11.4,8.5-11.6,15.6
				C504.4,520,505.9,520,506,519.1L506,519.1z"/>
		</g>
	</g>
	<g>
		<g>
			<path class="st2" d="M510.2,518.4c0.7-5.4,4.8-9.7,10.1-10.7c0.9-0.2,0.5-1.6-0.4-1.4c-6,1.2-10.4,6.1-11.2,12.1
				C508.6,519.3,510.1,519.3,510.2,518.4L510.2,518.4z"/>
		</g>
	</g>
	<g>
		<g>
			<path class="st2" d="M517.5,518.3c-1.3-3.1,3.2-6.2,5.4-7.7c2.4-1.6,5-2.7,7.9-2.9c1-0.1,1-1.6,0-1.5c-4,0.3-7.5,2-10.7,4.5
				c-2.6,2.1-5.5,4.7-4,8.3C516.6,520,517.8,519.2,517.5,518.3L517.5,518.3z"/>
		</g>
	</g>
	<g>
		<g>
			<path class="st2" d="M522.3,519.3c-3-7.3,3.8-12.8,10.2-14.4c0.9-0.2,0.5-1.7-0.4-1.4c-7.2,1.8-14.6,8.1-11.2,16.2
				C521.2,520.6,522.6,520.2,522.3,519.3L522.3,519.3z"/>
		</g>
	</g>
	<g>
		<g>
			<path class="st2" d="M525.4,517.8c3.9-6.2,10.2-10.2,17.4-11.1c0.9-0.1,1-1.6,0-1.5c-7.8,1-14.5,5.2-18.7,11.8
				C523.6,517.9,524.9,518.6,525.4,517.8L525.4,517.8z"/>
		</g>
	</g>
	<g>
		<g>
			<path class="st2" d="M531.6,518.7c-0.1-2.7,5-4.5,6.9-5.5c3-1.5,6-2.5,9.3-3c0.9-0.1,1-1.6,0-1.5c-4.2,0.5-8,2-11.7,4
				c-2.4,1.3-6.1,2.7-6,6C530.1,519.6,531.6,519.6,531.6,518.7L531.6,518.7z"/>
		</g>
	</g>
	<g>
		<g>
			<path class="st2" d="M542.7,518.5c0.2-4.6,7.8-6.3,11.2-7.3c3.6-1,7.3-1.6,11-1.8c1-0.1,1-1.6,0-1.5c-6.1,0.4-12,1.7-17.6,4.1
				c-3.1,1.4-6,2.8-6.1,6.5C541.1,519.4,542.6,519.4,542.7,518.5L542.7,518.5z"/>
		</g>
	</g>
	<g>
		<g>
			<path class="st2" d="M537.6,518.2c3.5-1.1,6.8-2.4,10-4.3c4.5-2.7,9-7.4,14.9-4.8c0.9,0.4,1.6-0.9,0.8-1.3
				c-3.3-1.5-6.4-1.1-9.6,0.6c-5.6,2.9-10.2,6.5-16.4,8.4C536.2,517,536.6,518.5,537.6,518.2L537.6,518.2z"/>
		</g>
	</g>
	<g>
		<g>
			<path class="st2" d="M526.4,519.6c9.6-7.1,21-10.2,32.8-9.2c1,0.1,1-1.4,0-1.5c-12.1-1.1-23.8,2.2-33.6,9.4
				C524.9,518.8,525.7,520.1,526.4,519.6L526.4,519.6z"/>
		</g>
	</g>
	<g>
		<g>
			<path class="st2" d="M515.1,520.9c-0.6-4.8,11.9-7.2,15.2-7.9c5.2-1.3,10.4-2,15.8-2.3c1-0.1,1-1.6,0-1.5
				c-7.7,0.5-15.3,1.8-22.6,4.2c-3.4,1.1-10.5,3-9.9,7.6C513.8,521.8,515.3,521.8,515.1,520.9L515.1,520.9z"/>
		</g>
	</g>
	<g>
		<g>
			<path class="st2" d="M523.4,519.7c1-2.9,8.9-4.1,11.3-4.4c3.9-0.5,7.7-0.1,11.5,1c0.9,0.3,1.3-1.2,0.4-1.4
				c-4.9-1.4-10-1.7-15.1-0.6c-2.7,0.6-8.5,1.9-9.5,5C521.6,520.2,523,520.6,523.4,519.7L523.4,519.7z"/>
		</g>
	</g>
	<g>
		<g>
			<path class="st2" d="M544.4,517.3c9.5-2.6,19-5,28.8-2.4c0.9,0.3,1.3-1.2,0.4-1.4c-10-2.7-19.8-0.3-29.6,2.4
				C543.1,516.1,543.4,517.5,544.4,517.3L544.4,517.3z"/>
		</g>
	</g>
	<g>
		<g>
			<path class="st2" d="M544.1,516.2c3.6-1.1,7.2-2.1,10.9-2.8c5.8-1.2,9.9,0,15,2.5c0.9,0.4,1.6-0.9,0.8-1.3
				c-4-1.9-7.9-3.7-12.5-3.3c-4.9,0.4-9.9,2.1-14.6,3.5C542.8,515,543.2,516.5,544.1,516.2L544.1,516.2z"/>
		</g>
	</g>
	<g>
		<g>
			<path class="st2" d="M555,505.8c6.4-1.7,13.9-1.2,17,5.5c0.4,0.9,1.7,0.1,1.3-0.8c-3.4-7.4-11.7-8.1-18.7-6.2
				C553.7,504.6,554.1,506,555,505.8L555,505.8z"/>
		</g>
	</g>
	<g>
		<g>
			<path class="st2" d="M570.9,514.3c5.7-0.3,11.1,1.2,15.8,4.4c0.8,0.5,1.6-0.8,0.8-1.3c-4.9-3.4-10.6-4.9-16.6-4.6
				C570,512.8,570,514.3,570.9,514.3L570.9,514.3z"/>
		</g>
	</g>
	<g>
		<g>
			<path class="st2" d="M577.6,334.7c-1.6-3.2,5.3-8.3,7.2-10.2c2.5-2.6,5.1-5.1,7.6-7.7c0.7-0.7-0.4-1.7-1.1-1.1
				c-4.1,4.1-8.2,8.2-12.2,12.3c-2,2.1-4.4,4.4-2.8,7.4C576.8,336.3,578,335.6,577.6,334.7L577.6,334.7z"/>
		</g>
	</g>
	<g>
		<g>
			<path class="st2" d="M578.8,329.8c6.6-11.2,13.3-22.4,19.9-33.5c0.5-0.8-0.7-1.5-1.3-0.8c-9.8,13.9-19.3,28-28.5,42.4
				c-0.5,0.7,0.6,1.5,1.2,0.9c12.6-11.7,18.8-28.2,30-41c-0.4-0.3-0.8-0.6-1.2-0.9c-6.4,10.8-12.2,22-17.2,33.5
				c-0.4,0.9,0.8,1.6,1.3,0.8c7.6-13.5,15.1-27.1,22.7-40.6c0.4-0.7-0.6-1.6-1.2-0.9c-8.1,9.9-15.3,20.4-21.5,31.5
				c0.4,0.3,0.9,0.5,1.3,0.8c4-9.1,8.8-17.7,14.6-25.8c0.6-0.8-0.7-1.5-1.3-0.8c-5.7,8.1-10.6,16.7-14.6,25.8
				c-0.4,0.9,0.8,1.6,1.3,0.8c6.2-11,13.3-21.4,21.3-31.2c-0.4-0.3-0.8-0.6-1.2-0.9c-7.6,13.5-15.1,27.1-22.7,40.6
				c0.4,0.3,0.9,0.5,1.3,0.8c5.1-11.5,10.8-22.6,17.2-33.5c0.4-0.7-0.6-1.6-1.2-0.9c-11.2,12.8-17.4,29.3-30,41
				c0.4,0.3,0.8,0.6,1.2,0.9c9.1-14.4,18.6-28.5,28.5-42.4c-0.4-0.3-0.9-0.5-1.3-0.8c-6.6,11.2-13.3,22.4-19.9,33.5
				C577,329.9,578.3,330.6,578.8,329.8L578.8,329.8z"/>
		</g>
	</g>
	<g>
		<g>
			<path class="st2" d="M583.4,326.6c24.1-7.3,49.4,4.7,65.2,23c17.7,20.6,24.3,48.3,29,74.3c2.7,15.3,4,29.9,0,45
				c-3.8,14.2-10,27.7-14.7,41.6c-9.2,27.3-15.2,55.7-18,84.3c-1.4,14.2-2,28.5-1.8,42.7c0.2,14.8,3.4,31-0.1,45.6
				c-3.3,14-11.9,27.1-19,39.4c-7.4,12.9-15.5,25.4-23.7,37.7c-14.2,21.2-29.7,43.5-33.9,69.2c-3.3,20.4,1.7,40.1,10.8,58.4
				c19.8,39.7,60.6,74.5,59.8,122c-0.1,3.9,5.9,3.9,6,0c0.7-42.9-31.5-76-52.5-110.3c-11-18-20-37.8-19.3-59.4
				c1-27.7,17.3-51.8,32.2-74c8.2-12.2,16.3-24.5,23.7-37.2c7.6-12.9,16.1-26.3,20.6-40.6c4.3-14,1.9-28.8,1.4-43.2
				c-0.5-14.9-0.1-29.8,1.1-44.6c2.6-30.6,9-61,18.9-90.1c4.7-13.9,11-27.3,14.6-41.6c3.6-14.4,2.6-28.4,0.2-42.9
				c-4.9-28.5-12.1-58.8-31.7-81.1c-17.1-19.6-44.7-31.8-70.5-24C578.1,321.9,579.7,327.7,583.4,326.6L583.4,326.6z"/>
		</g>
	</g>
	<g>
		<g>
			<path class="st2" d="M596.6,303.5c40.1,17.8,73.6,48.7,95.4,86.7c10.9,19,18.8,39.6,23.2,61c2.5,12.2,3.4,24.6,4.2,37
				c1,13.6,3.2,26.9,6.7,40.1c7.2,27.1,15.7,53.7,20.8,81.4c2.6,14.3,4.7,28.6,6.2,43c1.4,13.4,1.7,26.9,3.1,40.3
				c1.3,12.7,4.2,24.6,10.3,35.9c5.9,10.9,13.5,20.7,19.4,31.7c10.9,20.4,16.8,43,20.9,65.6c9.2,50,10.3,103.7,37.9,148.2
				c2,3.3,7.2,0.3,5.2-3c-25-40.2-27.9-88.7-35.2-134.3c-3.6-22.3-8.3-44.6-17-65.5c-4.7-11.1-10.7-21.3-17.2-31.4
				c-7.4-11.4-14-22.7-16.6-36.2c-2.8-14-2.6-28.5-3.8-42.7c-1.2-14-2.9-28-5.2-41.9c-4.5-27.9-11.9-54.8-19.8-81.9
				c-4-13.7-7.6-27.4-8.9-41.6c-1.2-12.6-1.5-25.1-3.5-37.6c-3.3-21.1-10.2-41.6-19.8-60.7c-21.9-43.5-58.5-79.5-103.1-99.3
				C596.1,296.8,593,302,596.6,303.5L596.6,303.5z"/>
		</g>
	</g>
	<g>
		<g>
			<path class="st2" d="M584,327.6c33.2,26.3,55.7,62.6,74.2,100.2c10.4,21.1,19.7,42.6,29.9,63.7c10.1,21,21.4,41.3,33.7,61.1
				c11.9,19.1,26.1,38.5,32.1,60.4c6.3,23.1,6.3,47.9,7.8,71.6c2.9,48,4.5,96,8.1,144c1.9,25.7,6.4,51.2,15.1,75.5
				c9.2,25.7,21.7,50.1,30.9,75.8c1.3,3.6,7.1,2.1,5.8-1.6c-8.2-23-18.7-45-27.7-67.7c-8.9-22.4-14.3-45.9-17-69.8
				c-5.4-48.3-5.8-97.3-8.5-145.8c-1.3-23.8-1.7-48.1-5.9-71.6c-4-22.4-15-41.5-26.9-60.6c-12.4-19.8-24.6-39.6-35.3-60.5
				c-10.8-21.2-20.4-42.9-30.4-64.4c-20.1-42.7-44-85-81.6-114.8C585.2,321,581,325.2,584,327.6L584,327.6z"/>
		</g>
	</g>
	<g>
		<g>
			<path class="st2" d="M615.2,309.6c3.9,0,3.9-6,0-6S611.3,309.6,615.2,309.6L615.2,309.6z"/>
		</g>
	</g>
	<g>
		<g>
			<path class="st2" d="M579.1,317.9c3.9,0,3.9-6,0-6C575.2,311.9,575.2,317.9,579.1,317.9L579.1,317.9z"/>
		</g>
	</g>
	<g>
		<g>
			<path class="st2" d="M581.6,334.3c17.8-10.3,44.9-24.6,63.5-7.5c8.6,8,10.3,21.3,13,32.2c3.1,12.6,6.2,25.3,9.2,37.9
				c12.3,51.9,23,104.3,27.9,157.5c4.7,50.1,4.2,101.1-4.8,150.7c-4.4,24.5-10.9,48.5-19.6,71.7c-8.6,22.9-18.9,45.1-26.1,68.5
				c-7.9,25.2-11.1,50.9-6.9,77.1c4.3,27.4,15.3,53.2,27,78.1c1.6,3.5,6.8,0.4,5.2-3c-11-23.4-21.2-47.5-25.8-73.1s-1.8-51,5.8-75.8
				c7.2-23.7,17.6-46.2,26.3-69.3c9-23.8,15.6-48.4,20.1-73.5c18.6-104.4,0.4-210.5-23.7-312.4c-3.5-14.9-7.2-29.7-10.9-44.6
				c-2.8-11.2-6.2-22.5-16.3-29.4c-21.5-14.6-47.3-1.6-66.9,9.6C575.3,331.1,578.3,336.3,581.6,334.3L581.6,334.3z"/>
		</g>
	</g>
	<g>
		<g>
			<path class="st2" d="M596.5,317.4c20.4-12,45.9-7.2,64.8,5.3c18.9,12.6,31,32.7,39.5,53.3c4.7,11.4,8.5,23.2,11.9,35.1
				c3.4,12.2,6.9,24.4,8.7,37c1.9,13.2,1.5,26.4,1.5,39.6c0,13.4,0.7,26.7,2.4,40c6.2,48.3,23.5,95,51,135.3
				c12.9,18.9,26.8,37.5,29.1,61c1.3,13.2,0,26.6-0.8,39.8c-0.8,13.1-1.5,26.2-2.4,39.3c-1.9,29.5-4.1,59,0,88.4
				c4,28.8,12.7,56.9,23.1,84c1.4,3.6,7.2,2,5.8-1.6c-9.6-25.1-17.8-50.9-22.1-77.5c-4.6-27.7-3.2-55.6-1.4-83.5
				c0.9-13.7,1.7-27.5,2.5-41.2c0.8-13.3,2.1-26.8,1.8-40.1c-0.3-11.5-2.4-22.6-7-33.3c-4.4-10.3-10.6-19.7-16.9-29
				c-14.1-20.6-26.8-41.7-36.3-64.9c-10.1-24.8-17-51-20.4-77.5c-1.7-13.6-2.3-27.3-2.2-41c0-13.2,0.2-26.2-1.7-39.3
				c-1.9-12.8-5.4-25.4-8.9-37.8c-3.5-12.2-7.4-24.2-12.3-35.9c-9.2-22-22.3-43-42.8-56.1s-47.9-17.3-69.6-4.5
				C590.2,314.1,593.2,319.3,596.5,317.4L596.5,317.4z"/>
		</g>
	</g>
	<g>
		<g>
			<path class="st2" d="M409.8,516.9c1.6-5.1,1.8-11.1-0.7-16c-0.9-1.7-3.5-0.2-2.6,1.5c2.1,4.1,1.7,9.4,0.4,13.7
				C406.3,518,409.2,518.8,409.8,516.9L409.8,516.9z"/>
		</g>
	</g>
	<g>
		<g>
			<path class="st2" d="M405.3,516.1c0.2-3.8,0.6-7.8,0.4-11.6c-0.1-2.7-0.9-4.6-3-6.3c-1.5-1.2-3,1.4-1.5,2.6
				c2.4,1.8,1.5,6,1.4,8.6c-0.1,2.2-0.2,4.4-0.3,6.7C402.2,518,405.2,518,405.3,516.1L405.3,516.1z"/>
		</g>
	</g>
	<g>
		<g>
			<path class="st2" d="M400.6,514.6c1.1-3.2,0.3-6.8-1-9.8c-0.9-2.1-2.9-6.1-5.6-6c-1.9,0.1-1.9,3.1,0,3c1.1,0,3.1,4.6,3.3,5.3
				c0.8,2.1,1.2,4.5,0.4,6.6C397.1,515.6,400,516.4,400.6,514.6L400.6,514.6z"/>
		</g>
	</g>
	<g>
		<g>
			<path class="st2" d="M396.7,513.4c-0.1-4.1,0.4-8.9-2-12.4c-1.8-2.6-6-4.9-9.1-4.3c-1.9,0.4-1.1,3.3,0.8,2.9
				c2.9-0.6,6.2,3,6.8,5.4c0.7,2.7,0.5,5.7,0.5,8.4C393.7,515.3,396.7,515.3,396.7,513.4L396.7,513.4z"/>
		</g>
	</g>
	<g>
		<g>
			<path class="st2" d="M391.4,510.7c-0.7-4.4-0.4-9.6-3.3-13.3c-2.6-3.3-6.8-4.4-10.8-5.1c-11.3-1.8-23.4-4-34.8-2.4
				c-1.9,0.3-1.1,3.2,0.8,2.9c9.5-1.4,19.1,0.4,28.6,1.7c4.1,0.6,9.8,0.7,13.1,3.7c3.5,3.2,2.9,8.9,3.6,13.2
				C388.8,513.4,391.7,512.6,391.4,510.7L391.4,510.7z"/>
		</g>
	</g>
	<g>
		<g>
			<path class="st2" d="M387.4,508.2c-0.6-3.6-1.5-7.1-3.8-10c-2.8-3.5-7.5-5.3-11.4-7.1c-3.8-1.7-7.7-3.2-11.9-3.6
				c-5.5-0.6-11,0.1-16.5-0.3c-1.9-0.1-1.9,2.9,0,3c8.5,0.6,16.5-0.7,24.6,2.5c3.3,1.3,6.9,2.9,9.9,4.8c4.2,2.8,5.5,6.8,6.3,11.5
				C384.8,510.9,387.7,510.1,387.4,508.2L387.4,508.2z"/>
		</g>
	</g>
	<g>
		<g>
			<path class="st2" d="M344.3,495.7c11.5-1.9,31.6-0.6,35.5,13c0.4,1.4,2.6,0.8,2.2-0.6c-4.3-15-25.6-16.6-38.3-14.6
				C342.3,493.8,342.9,496,344.3,495.7L344.3,495.7z"/>
		</g>
	</g>
	<g>
		<g>
			<path class="st2" d="M345.2,498.1c5.9-1.4,11.9-1.8,17.8-0.6c6.2,1.2,9.2,5.7,13.1,10.1c1,1.1,2.5-0.5,1.6-1.6
				c-4.4-5-7.3-9.3-14.1-10.7c-6.4-1.3-12.8-1-19,0.6C343.2,496.3,343.8,498.5,345.2,498.1L345.2,498.1z"/>
		</g>
	</g>
	<g>
		<g>
			<path class="st2" d="M339,501.5c11.3-4.7,24.3-2.4,33.2,6.1c0.7,0.7,1.8-0.4,1.1-1.1c-9.2-8.8-22.8-11.4-34.6-6.5
				C337.8,500.4,338.1,501.8,339,501.5L339,501.5z"/>
		</g>
	</g>
	<g>
		<g>
			<path class="st2" d="M339.3,497.4c9.9-3.1,20.6-3.5,30,1.3c3.4,1.7,5.9,4.4,9,6.6c3.3,2.3,7.8,2.8,11.6,3.7
				c0.9,0.2,1.3-1.2,0.4-1.4c-2.3-0.6-4.7-1-7-1.8c-3-1-5.2-2.8-7.6-4.8c-3.1-2.5-6.6-4.4-10.4-5.6c-8.6-2.9-17.9-2.2-26.4,0.5
				C338,496.2,338.4,497.7,339.3,497.4L339.3,497.4z"/>
		</g>
	</g>
	<g>
		<g>
			<path class="st2" d="M347.1,492.3c14.3-2.2,28.8,3.8,37.4,15.5c0.6,0.8,1.9,0,1.3-0.8c-9-12.3-24-18.5-39.1-16.1
				C345.8,491,346.2,492.4,347.1,492.3L347.1,492.3z"/>
		</g>
	</g>
	<g>
		<g>
			<path class="st2" d="M366.9,494.4c9.7,2.1,20.5,6,22.6,16.9c0.2,0.9,1.6,0.5,1.4-0.4c-2.2-11.4-13.5-15.8-23.7-17.9
				C366.3,492.7,365.9,494.2,366.9,494.4L366.9,494.4z"/>
		</g>
	</g>
	<g>
		<g>
			<path class="st2" d="M392.6,512.1c-0.6-7.3-8.1-14-15.2-14.6c-1-0.1-1,1.4,0,1.5c6.2,0.5,13.2,6.7,13.7,13.1
				C391.2,513.1,392.7,513.1,392.6,512.1L392.6,512.1z"/>
		</g>
	</g>
	<g>
		<g>
			<path class="st2" d="M392.6,512c1.3-2.1,0.7-4.8,0.2-7.1c-0.6-3-2.1-4.9-4.4-6.8c-0.7-0.6-1.8,0.5-1.1,1.1c1.8,1.5,3.2,3,3.9,5.3
				c0.5,1.9,1.2,5,0.1,6.8C390.8,512.1,392.1,512.8,392.6,512L392.6,512z"/>
		</g>
	</g>
	<g>
		<g>
			<path class="st2" d="M397.2,513.3c-0.3-6.3-1.3-11.5-6.8-15.2c-0.8-0.5-1.6,0.8-0.8,1.3c5.1,3.4,5.8,8.2,6.1,13.9
				C395.8,514.2,397.3,514.3,397.2,513.3L397.2,513.3z"/>
		</g>
	</g>
	<g>
		<g>
			<path class="st2" d="M401.6,514.6c1.9-4.2,1-11.7-2.8-14.6c-0.8-0.6-1.5,0.7-0.8,1.3c3.1,2.3,3.7,9.3,2.3,12.6
				C399.9,514.7,401.2,515.5,401.6,514.6L401.6,514.6z"/>
		</g>
	</g>
	<g>
		<g>
			<path class="st2" d="M405.9,516.2c0.9-5.2,2.3-11.9-1.8-16.1c-0.7-0.7-1.7,0.4-1.1,1.1c3.7,3.6,2.2,10.1,1.5,14.6
				C404.3,516.8,405.8,517.2,405.9,516.2L405.9,516.2z"/>
		</g>
	</g>
	<g>
		<g>
			<path class="st2" d="M369.3,502.6c-2.5-4.6-12.1-4.9-16.6-5.6c-8-1.1-14.8,0.9-22.6,2.7c-0.9,0.2-0.5,1.7,0.4,1.4
				c5.8-1.3,12-3.5,18-3.1c4.2,0.3,17.1,0.9,19.5,5.3C368.5,504.3,369.8,503.5,369.3,502.6L369.3,502.6z"/>
		</g>
	</g>
	<g>
		<g>
			<path class="st2" d="M570.4,328.7c-38.3-0.2-76.5,4.8-113.4,15.2c-18.5,5.2-36.6,11.7-54.1,19.5c-15.8,7-29.5,16.1-37.6,31.9
				c-15,29.2-15.2,63.6-30.4,92.7c-3.9,7.4-8.7,14.2-14.6,20.1c-5.6,5.6-11.7,10.8-16,17.5c-5,7.8-7.1,17.4-9.7,26.2
				c-2.9,9.9-5.6,19.8-8.2,29.8c-11.5,43.9-20.1,88.4-26,133.4c-0.5,3.8,5.5,3.8,6,0c5.2-39.3,12.5-78.3,22-116.8
				c4.7-19,9.7-37.9,15.6-56.6c2.8-9,7.1-15.9,13.8-22.5c5.6-5.5,11.2-10.8,15.8-17.2c18.1-25.2,20.9-57.5,30.2-86.3
				c2.7-8.2,5.8-16.4,10.6-23.7c5-7.5,11.9-13,19.7-17.4c16-9,34-15.3,51.4-20.9c40.4-12.9,82.6-19.3,125-19
				C574.3,334.7,574.3,328.7,570.4,328.7L570.4,328.7z"/>
		</g>
	</g>
	<g>
		<g>
			<path class="st2" d="M569.6,318.7c-51.2,7.4-104.5,15.5-148.4,44.9c-19.6,13.1-36.4,30.1-47.9,50.7
				c-12.6,22.7-20.4,47.7-32.8,70.5c-12.7,23.4-28.1,45.2-46,64.9c-8.3,9.2-17,18.2-22.7,29.3c-6,11.6-9.1,24.7-12.4,37.3
				c-7.3,27.2-12.8,54.7-15.9,82.7c-3.2,28.6-4.3,57.4-6.2,86.2c-3.8,59.1-11,120.4-43.2,171.7c-2.1,3.3,3.1,6.3,5.2,3
				c27-43.1,37-93.8,41.6-143.7c5.3-57,4.8-114.3,17.3-170.5c3-13.7,6.6-27.2,10.4-40.7c3.8-13.4,8.5-25.7,17.4-36.7
				c8-9.9,17.1-19,25.1-28.9c7.7-9.5,14.8-19.4,21.5-29.7c13.9-21.6,24.3-44.7,34.3-68.3c9.9-23.2,22.1-44,41.4-60.6
				c44.9-38.9,106-48,162.7-56.3C575,323.9,573.4,318.1,569.6,318.7L569.6,318.7z"/>
		</g>
	</g>
	<g>
		<g>
			<path class="st2" d="M313.8,515.1c-3,17.8-8.6,35.2-16.9,51.2c-8.1,15.6-19.6,29.1-27.4,44.8s-10.3,33.4-17.9,49.2
				c-7,14.7-16.7,27.8-27.6,39.9c-12.5,13.9-26.4,26.3-40.4,38.7c-2.9,2.6,1.4,6.8,4.2,4.2c24.5-21.7,49.7-44.3,65.6-73.3
				c8.5-15.6,11.8-32.7,18.3-49.1c6.7-17,19-30.9,27.8-46.7c9.9-17.8,16.7-37.3,20.1-57.3C320.2,512.9,314.4,511.3,313.8,515.1
				L313.8,515.1z"/>
		</g>
	</g>
	<g>
		<g>
			<path class="st2" d="M336.9,500.2c6-1.5,12-1.6,18-1c5.8,0.6,12.7,1.2,16.4,6.2c0.6,0.8,1.9,0,1.3-0.8c-3.4-4.5-8.5-5.8-13.9-6.5
				c-7.5-1-14.9-1.3-22.3,0.6C335.6,499,336,500.4,336.9,500.2L336.9,500.2z"/>
		</g>
	</g>
	<g>
		<g>
			<path class="st2" d="M337.9,497.6c5.3-1.9,10.6-2.4,16.1-1.8c1,0.1,0.9-1.4,0-1.5c-5.7-0.7-11.2-0.1-16.5,1.8
				C336.6,496.5,337,497.9,337.9,497.6L337.9,497.6z"/>
		</g>
	</g>
	<g>
		<g>
			<path class="st2" d="M339.3,495.9c4.1-1.3,8.2-1.8,12.5-1.5c1,0.1,1-1.4,0-1.5c-4.4-0.3-8.7,0.2-12.9,1.6
				C338,494.7,338.4,496.2,339.3,495.9L339.3,495.9z"/>
		</g>
	</g>
	<g>
		<g>
			<path class="st2" d="M344.5,496.4c-5,1.2-10.1,2.2-15.2,3.2c-0.9,0.2-0.5,1.6,0.4,1.4c5.1-0.9,10.2-2,15.2-3.2
				C345.8,497.7,345.4,496.2,344.5,496.4L344.5,496.4z"/>
		</g>
	</g>
	<g>
		<g>
			<path class="st2" d="M339.5,499.4c-2.7,0.6-5.4,1.2-8.1,1.8c-1.8,0.4-3.6,0.7-5,2.1c-0.7,0.7,0.4,1.7,1.1,1.1
				c1.5-1.5,4.3-1.7,6.2-2.1c2.1-0.5,4.1-0.9,6.2-1.4C340.9,500.6,340.5,499.1,339.5,499.4L339.5,499.4z"/>
		</g>
	</g>
	<g>
		<g>
			<path class="st2" d="M369.1,499.8c-11.3-3.6-23.1-1.4-34.6-3c-0.9-0.1-1.4,1.3-0.4,1.4c11.5,1.6,23.4-0.6,34.6,3
				C369.6,501.5,370,500,369.1,499.8L369.1,499.8z"/>
		</g>
	</g>
	<g>
		<g>
			<path class="st2" d="M369.1,504.9c-4.5-11-19-12.4-29.4-12.3c-1,0-1,1.5,0,1.5c9.4-0.1,23.8,1,27.9,11.2
				C368,506.2,369.5,505.8,369.1,504.9L369.1,504.9z"/>
		</g>
	</g>
	<g>
		<g>
			<path class="st2" d="M366.4,504.5c-1.6-4.4-8.8-6.1-12.7-7.9c-5.7-2.6-11.3-4.7-17.6-4.1c-1,0.1-1,1.6,0,1.5
				c5.8-0.5,10.8,1.2,16,3.5c3.2,1.4,11.5,3.8,12.8,7.4C365.3,505.7,366.7,505.4,366.4,504.5L366.4,504.5z"/>
		</g>
	</g>
	<g>
		<g>
			<path class="st2" d="M363.7,502.8c-6-4.7-13.3-5-20.6-5.7c-1-0.1-1,1.4,0,1.5c6.9,0.6,13.9,0.8,19.6,5.2
				C363.4,504.4,364.4,503.4,363.7,502.8L363.7,502.8z"/>
		</g>
	</g>
	<g>
		<g>
			<path class="st2" d="M586.6,315.8c-26-29.1-65.2-41.7-102.6-48.6c-4.7-0.9-9.6-1.1-14.4-1.8c-5.7-0.8-11.4-1.4-17.1-1.5
				c-11.2-0.3-22.4,0.7-33.3,3.2c-19.2,4.3-36,13.9-50.2,27.4s-25,29.8-34.5,46.7c-11.2,19.9-21.1,40.5-30,61.5
				c-17.5,41.5-31.1,84.4-44.5,127.4c-23.8,76.5-49.2,154-94.3,221c-22,32.7-48.7,62.4-80.1,86.4c-3.7,2.8-7.3,5.2-11.3,7.5
				c-5,2.9-9.3,7.3-14.2,10.4c-9.8,6.3-19.4,13.1-29.5,18.9c-20.9,12-42.1,23.2-63.8,33.8c-21.5,10.5-43.1,20.5-64.8,30.6
				c-10.4,4.8-21,9.3-31.1,14.5c-9,4.7-17.2,10.5-25.1,16.8c-7.7,6.2-13.6,14.9-17.6,23.9c-4,8.9-5.4,18.3-8.4,27.5
				c-6.3,19.3-19.9,35.1-32.7,50.5c-6.5,7.8-12.1,15.7-17.5,24.3c-2,3.3,3.2,6.3,5.2,3c5.6-9.1,11.8-17.3,18.6-25.6
				c5.9-7.1,11.7-14.2,17.1-21.8c5.5-7.9,10.4-16.2,13.8-25.2c3.6-9.4,4.7-19.4,8.6-28.7c8.3-19.7,26-32.4,44.7-41.5
				c20.9-10.3,42.4-19.6,63.5-29.5c77-36.2,154.4-76.6,208.6-143.9c48.3-60,77.5-132.6,101.5-205.1c27.5-83.3,48.9-170.6,95.6-245.9
				c10.1-16.3,22.4-31.8,38.1-43.1c17.9-13,39.3-18.7,61.3-19.1c5.1-0.1,10.3,0.1,15.4,0.6c5.8,0.6,11.7,2.4,17.6,2.5
				c9.3,0.2,18.9,3.3,27.9,5.7c18.8,5,37.4,11.9,53.7,22.8c8,5.3,15.1,11.6,21.5,18.7C584.9,323,589.1,318.7,586.6,315.8
				L586.6,315.8z"/>
		</g>
	</g>
	<g>
		<g>
			<path class="st2" d="M167.7,847.2C109.8,859,56.5,889.4,7.5,921.4c-47.5,31-91.9,66.8-132.3,106.6c-22.7,22.4-44.2,46.2-64.2,71
				c-2.4,3,1.8,7.2,4.2,4.2c70.9-87.8,159.7-162.1,259.7-214.7c29.9-15.7,61.2-28.8,94.4-35.6C173.1,852.2,171.5,846.4,167.7,847.2
				L167.7,847.2z"/>
		</g>
	</g>
	<g>
		<g>
			<path class="st2" d="M597.2,729.7c-20.2,32.3-40,68-38.2,107.4c0.9,20.5,8,40,15.3,59c7.8,20.3,16,40.4,21.4,61.6
				c6,23.5,9.3,47.5,9.7,71.7c0.1,5.8,9.1,5.8,9,0c-0.6-42.2-10.7-82.3-25.9-121.5c-7.3-18.9-15.4-37.8-19.1-57.8
				c-3.5-19.2-0.8-38.9,5.4-57.3c7.1-20.9,18.5-40,30.1-58.6C608,729.3,600.3,724.8,597.2,729.7L597.2,729.7z"/>
		</g>
	</g>
	<g>
		<g>
			<path class="st2" d="M600,731c5.8,0,5.8-9,0-9S594.2,731,600,731L600,731z"/>
		</g>
	</g>
	<g>
		<g>
			<path class="st2" d="M596.8,725.3c-2.2,39.2,11.2,76.7,16.7,115.1c2.9,20.4,2.6,40.6,0.2,61c-2.4,20.2-6.5,40.3-7.7,60.7
				c-1.3,22.6,0.4,45.3,5.1,67.4c1.2,5.7,9.9,3.3,8.7-2.4c-4.3-19.8-5.9-40-5.1-60.2c0.8-20.1,4.6-39.9,7.2-59.8
				c2.6-19.9,3.6-39.6,1.4-59.6c-2.1-19.1-6.5-37.7-10.4-56.5c-4.6-21.7-8.4-43.5-7.2-65.7C606.1,719.5,597.1,719.5,596.8,725.3
				L596.8,725.3z"/>
		</g>
	</g>
	<g>
		<g>
			<path class="st2" d="M507.7,520.5c-0.8-2.2-0.4-4.5,0.3-6.6c0.3-0.8,2.2-5.4,3.3-5.4c1.9,0.1,1.9-2.9,0-3c-2.7-0.1-4.6,3.9-5.6,6
				c-1.3,3-2,6.6-0.9,9.8C505.5,523.1,508.4,522.3,507.7,520.5L507.7,520.5z"/>
		</g>
	</g>
	<g>
		<g>
			<path class="st2" d="M511.8,520.1c0-2.7-0.3-5.7,0.4-8.4c0.6-2.4,3.8-6.1,6.7-5.5c1.9,0.4,2.7-2.5,0.8-2.9
				c-3.1-0.6-7.3,1.7-9.1,4.3c-2.4,3.6-1.9,8.4-1.9,12.5C508.8,522,511.8,522,511.8,520.1L511.8,520.1z"/>
		</g>
	</g>
	<g>
		<g>
			<path class="st2" d="M509.7,520c0.2-5.7,0.8-10.5,5.9-14c0.8-0.5,0-1.8-0.8-1.3c-5.5,3.8-6.4,9-6.7,15.2
				C508.2,521,509.7,520.9,509.7,520L509.7,520z"/>
		</g>
	</g>
	<g>
		<g>
			<path class="st2" d="M435.9,693.7c-2.4,4-3.4,8.5-2.8,13.1c0.1,0.5,0.8,0.5,0.8,0c-0.6-4.5,0.4-8.8,2.7-12.7
				C436.8,693.7,436.1,693.3,435.9,693.7L435.9,693.7z"/>
		</g>
	</g>
	<g>
		<path class="st5" d="M373.5,729.3c3.6,2.1,8.2,1.7,12,0.1c3.9-1.6,7.2-4.1,10.7-6.3c5.9-3.6,12.6-6.2,19.4-7.6
			c3.9-0.8,7.9-1.1,11.8-0.2c2.2,0.5,4.4,1.4,6.6,1.8c5.8,0.9,11.5-1.9,17.3-2.8c7.1-1.2,14.5,0.5,21.1,3.5s12.5,7.2,18.4,11.4
			c6.6,4.7,14.3,9.6,22.2,7.8c-9.8,4.4-21.2,5.2-31.5,2.2c-4.8-1.4-9.4-3.6-14.3-4.8c-4.6-1.1-9.5-1.2-14.2-1.4
			c-8.6-0.2-17.2-0.4-25.7,0.4c-9.4,0.9-18.6,3.2-28.1,3.5c-9.4,0.3-19.4-1.5-26.5-7.7"/>
	</g>
	<g>
		<path class="st5" d="M494.8,748.1c-3.1,11.4-11.7,21.1-22.6,25.6c-6.9,2.8-14.4,3.6-21.8,4c-7.8,0.5-15.6,0.7-23.3,0.6
			c-8.7-0.1-17.8-0.7-25.5-4.9S388,760.6,389.7,752c5.2,2.9,10.5,5.8,15.7,8.7c2.7,1.5,5.5,3,8.4,4.2c3.7,1.4,7.6,2.2,11.5,2.8
			c16.6,2.3,33.8-0.3,49.1-7.2C481.1,757.5,494.8,748.1,494.8,748.1z"/>
	</g>
	<g>
		<path class="st6" d="M423.9,747.8c-2.8,0.1-5.7,0.3-8.5,0.7c-1.3,0.2-2.6,0.4-3.6,1.2c-0.5,0.4-1,1-0.9,1.7s0.7,1.2,1.3,1.6
			c0.5,0.3,1,0.6,1.5,0.6c0.4,0,0.7-0.2,1-0.4c2.1-1.3,4.1-2.5,6.2-3.8c0.7-0.4,1.4-0.8,2.2-1.1c0.4-0.1,0.9-0.3,1-0.8"/>
	</g>
	<g>
		<path class="st6" d="M424.9,752.4c-0.8,0-1.5,0.5-1.7,1.3c-0.2,0.7,0,1.6,0.6,2c0.3,0.2,0.6,0.3,0.9,0.4c0.3,0,0.5,0,0.8,0
			c0.5-0.1,1-0.3,1.2-0.8s0-1.1-0.3-1.6c-0.3-0.6-0.7-1.2-1.3-1.3"/>
	</g>
	<g>
		<g>
			<path class="st2" d="M449.9,693.8c1.3,4.4,1.1,8.9-0.5,13.2c-0.2,0.5,0.6,0.6,0.7,0.2c1.7-4.4,1.9-9,0.5-13.6
				C450.5,693.1,449.8,693.3,449.9,693.8L449.9,693.8z"/>
		</g>
	</g>
	<g>
		<path class="st7" d="M294.9,732.3c-2.1,9.8,2.2,19.8,6.5,28.9c15.6,33.1,33.6,66.2,37.7,102.6c0.3,2.8,0.6,5.8,2.1,8.2
			c1.4,2.2,3.5,3.6,5.7,4.9c23.3,13.7,50.9,16.6,77.5,16.9c49.1,0.6,99.4-7,141.6-32.3c-4-38.5,6.9-88.8,22.6-123.5
			c-8.5,7-21.1,23.6-31.9,33.1c-4.8,4.2-9.4,8.3-14.4,12.2c-7.6,5.9-15,12-22.2,18.5c-9.2,8.4-20.4,14.1-31.7,19.4
			c-10.1,4.7-20.4,9.2-31.2,11.6c-34,7.7-70.3-5.7-98.3-27.9s-49-52.5-68.6-82.9c2.1,18.1,7.7,35.9,16.4,51.8"/>
	</g>
	<g>
		<path class="st8" d="M483.3,365.4c-27.7,5.7-52.8,21.1-72.7,41.1c-19.9,20-35,44.5-46.8,70.1c7.8,1.5,15.6,3.1,23.3,4.6
			c5.1,1,10.2,2,14.9,4.1c2.7,1.2,5.3,2.7,8.2,3.3c2.4,0.6,4.9,0.5,7.3,0.5c32.7-0.6,65.4-1.2,98-4c10.9-0.9,22-2.1,32.9-0.9
			c15.5,1.7,31.1,8.2,46.3,4.7c2.6-0.6,5.3-1.6,7.1-3.5c1.9-2,2.7-4.7,3.3-7.4c4-16.4,3.4-34.9-6.3-48.7
			c-8.7-12.3-24.6-21.8-24.2-36.9c0.1-4.1,1.6-8.2,0.7-12.2c-1.3-6-7.1-9.9-12.8-12.3c-25.1-10.7-53.8-6.6-80.7-2.3"/>
	</g>
	<g>
		<path class="st9" d="M439.2,667.6c0.9,1.3,0.9,3,0.8,4.6c-0.1,1.7-0.2,3.5-1.1,5c-0.2,0.3-0.4,0.5-0.7,0.7
			c-0.2,0.1-0.5,0.1-0.7,0.1c-2.3-0.1-4.6-0.2-6.9-0.3c-1,0-2.1-0.1-2.9-0.7c-1.1-0.8-1.4-2.4-1.6-3.7c-0.2-2.1-0.2-4.5,1.2-6
			c0.5-0.6,1.2-0.9,2-1.2c0.9-0.4,1.9-0.6,2.9-0.7c0.7-0.1,1.4,0,2.1,0.1C435.8,665.8,438.3,666.5,439.2,667.6z"/>
	</g>
	<g>
		<path class="st9" d="M465.8,667c0.9,1.3,0.9,3,0.8,4.6c-0.1,1.7-0.2,3.5-1.1,5c-0.2,0.3-0.4,0.5-0.7,0.7c-0.2,0.1-0.5,0.1-0.7,0.1
			c-2.3-0.1-4.6-0.2-6.9-0.3c-1,0-2.1-0.1-2.9-0.7c-1.1-0.8-1.4-2.4-1.6-3.7c-0.2-2.1-0.2-4.5,1.2-6c0.5-0.6,1.2-0.9,2-1.2
			c0.9-0.4,1.9-0.6,2.9-0.7c0.7-0.1,1.4,0,2.1,0.1C462.4,665.2,465,665.9,465.8,667z"/>
	</g>
	<g>
		<g>
			<path class="st2" d="M562.3,325.4c-36.3-10.8-74.8-7.5-110.9,2.1c-17.7,4.7-35.9,10.3-51.9,19.2c-15.2,8.4-26.8,20.9-36.2,35.3
				c-20.4,31.4-35.1,67.4-45.4,103.3c-11,38.3-17.7,77.6-31.6,115.1c-14.4,39.1-34.7,76.1-61.2,108.4c-2.4,3,1.8,7.2,4.2,4.2
				c22.6-27.5,40.8-58.3,54.7-91c14.8-34.6,23.4-70.6,32.2-107c9.2-37.7,21.5-74.1,39.7-108.4c8.3-15.7,17.4-31.5,30.6-43.5
				c13.5-12.3,30.9-18.8,48-24.4c40.5-13.3,84.6-20,126.1-7.6C564.4,332.3,566,326.5,562.3,325.4L562.3,325.4z"/>
		</g>
	</g>
	<g>
		<g>
			<path class="st2" d="M317.7,521.6c-14.6,37.2-25.5,75.3-35,114.1c-4.3,17.6-9.6,35.1-19.7,50.3c-9.2,13.9-21.6,25.4-35.2,34.8
				c-13.7,9.5-28.8,17-44.3,23.1c-6.1,2.4-15.5,3.8-17.4,11.2c-1,3.6-0.5,7.6-0.5,11.3c0.1,5.5,0.2,11.1,0.3,16.6
				c1.3,40.4,6.1,80.5,13.5,120.3c7.2,38.5,14.8,87.1-18.8,116.2c-2.9,2.5,1.3,6.8,4.2,4.2c26.6-23,29.5-60.5,25.2-93.1
				c-2.7-20.4-7.3-40.4-10.3-60.7c-3.1-20.7-5.3-41.5-6.7-62.4c-0.7-10.4-1.1-20.8-1.4-31.3c-0.1-5.2-0.3-10.5-0.2-15.7
				c0.1-3.3,0.4-5.3,3.7-7.1c2.1-1.1,4.7-1.8,6.9-2.6c15.3-5.9,30.3-13,44.1-21.9c13.3-8.6,25.7-18.9,35.6-31.3
				c10.8-13.6,17.9-29.1,22.7-45.7c6.1-21,10.4-42.5,16.6-63.5c6.5-22.1,13.9-43.8,22.4-65.2C324.9,519.6,319.1,518.1,317.7,521.6
				L317.7,521.6z"/>
		</g>
	</g>
	<g>
		<path class="st10" d="M493.7,574.8c-1.4-2.9,16.5-22.6,41-24c23-1.3,38.8,14.1,41.4,16.8c-4.1,3.3-9.7,6.9-16.9,9.4
			c-22.4,7.9-42.8-0.8-48.6-3.6c-1.6,0.5-3.6,1-6,1.3C500.6,575.4,494.4,576.3,493.7,574.8z"/>
		<g>
			<path class="st11" d="M499.5,567.1c-1.4,1.7-2.9,3.4-4.3,5.2c-0.3,0.3-0.6,0.7-0.7,1.1c-0.1,0.3-0.1,0.7,0,1
				c0.1,0.2,0.1,0.4,0.3,0.4c0.1,0.1,0.3,0.1,0.4,0.1c5.2-0.1,11.3-1.1,13.5-1.7c0.9-0.3-5.7-5.3-6.1-8.5
				C502.6,564.7,500.4,565.9,499.5,567.1z"/>
		</g>

			<ellipse transform="matrix(0.9967 -8.086234e-02 8.086234e-02 0.9967 -43.9746 45.3148)" class="st12" cx="537.5" cy="565.6" rx="14.2" ry="13.6"/>
		<g>
			<path d="M576.6,567.7c3.1-2,5.9-4.5,8.3-7.2c-8-4.7-16.4-8.7-25.2-11.8c-3.7-1.3-7.5-2.5-11.4-2.9c-3.4-0.4-6.8-0.3-10.3-0.2
				c-5.8,0.2-11.7,0.4-17,2.7c-3.9,1.7-7.2,4.5-10.5,7.2c-5.2,4.3-10.4,8.7-14.6,14.1c7.2-6.2,15.2-11.3,23.5-15.8
				c5.9-3.2,18.7-4.1,24.8-3c7.5,1.3,28.8,10.9,32.1,16.6"/>
			<g>
				<path class="st2" d="M576.8,568c3.1-2.1,5.8-4.5,8.4-7.3c0.2-0.2,0.1-0.5-0.1-0.6c-8-4.7-16.5-8.7-25.3-11.8
					c-8.2-2.9-15.7-3.4-24.3-3.1c-8,0.3-14.8,1.9-21.3,6.8c-6.6,5-13.2,10.7-18.4,17.2c-0.3,0.4,0.2,0.8,0.5,0.5
					c13.5-11.3,29.5-22.1,48-18.7c5.9,1.1,11.7,3.8,17,6.4c5,2.4,11.8,5.3,14.9,10.1c0.3,0.4,0.9,0,0.6-0.4
					c-4.3-6.7-14.6-10.4-21.6-13.3c-9-3.7-17.2-4.8-26.9-3.2c-6,1-10.7,3.5-15.9,6.6c-3.3,2-6.5,4.1-9.6,6.4c-1,0.7-2,1.4-2.9,2.2
					c-1.2,0.9-4.3,3.7-1.5,1.3c5.8-5.1,11-10.9,17.3-15.4c7.2-5.1,15.4-5.7,24-5.9c9.6-0.2,18,2.2,26.8,5.9c4.5,1.9,9,4,13.3,6.3
					c2.4,1.3,4.4,1.9,2.6,4.5c-1.4,2-4.1,3.6-6.1,4.9C576,567.6,576.4,568.3,576.8,568L576.8,568z"/>
			</g>
		</g>
		<path class="st13" d="M502.6,564.7"/>

			<ellipse transform="matrix(0.9748 -0.2229 0.2229 0.9748 -112.6074 134.155)" class="st14" cx="538" cy="565.9" rx="5.1" ry="4.8"/>
		<g>
			<path class="st15" d="M536.2,562.1c-0.1-0.4-0.5-0.7-1-0.8c-0.4-0.1-0.9,0-1.3,0.2c-0.2,0.1-0.4,0.2-0.4,0.4
				c-0.1,0.2,0,0.4,0.1,0.7c0.1,0.5,0,1.2-0.5,1.5c-0.3,0.3-0.7,0.4-1,0.6s-0.5,0.7-0.2,1c0.2,0.3,0.6,0.2,0.9,0.1
				c0.3-0.2,0.6-0.4,0.9-0.5c0.3-0.1,0.7-0.1,0.9,0.2c0.1,0.1,0.1,0.3,0.2,0.4c0.2,0.2,0.5,0.2,0.8,0s0.3-0.5,0.4-0.7
				c0.4-1,0.7-2.3,0-3.2"/>
		</g>

			<ellipse transform="matrix(0.5317 -0.847 0.847 0.5317 -230.9099 717.4546)" class="st15" cx="533.3" cy="567.5" rx="0.7" ry="0.8"/>
	</g>
	<g>
		<path class="st16" d="M410.3,565.3c1.5-2.9-16.1-22.9-40.6-24.8c-23-1.8-39,13.4-41.7,16c4.1,3.4,9.6,7.1,16.7,9.8
			c22.2,8.3,42.8,0,48.7-2.7c1.6,0.5,3.6,1,5.9,1.4C403.4,565.7,409.6,566.7,410.3,565.3z"/>
		<g>
			<path class="st11" d="M401.5,555.3c-1.3,0.6-2,2-2.7,3.2c-0.8,1.5-1.6,3-2.4,4.5c-0.1,0.1-0.3,0.7-0.3,0.8s3.3,0.9,3.9,0.9
				c2.9,0.2,5.8,0.6,8.7,0.4c0.4,0,1.3-0.2,1-0.5c-0.1-0.1,0,0.1,0,0c0-0.8-0.6-1.7-1.1-2.3c-1.8-2.4-3.9-4.5-6-6.6
				c-0.3-0.3-0.5-0.6-0.9-0.7"/>
		</g>

			<ellipse transform="matrix(9.986281e-02 -0.995 0.995 9.986281e-02 -222.3103 864.5876)" class="st12" cx="366.7" cy="555.2" rx="13.6" ry="14.2"/>
		<g>
			<g>
				<path class="st2" d="M322.5,560.9c9.6,14.8,30.5,19.9,47,17.1c0.5-0.1,0.3-0.8-0.2-0.7c-16.2,2.7-36.7-2.2-46.2-16.7
					C322.9,560.2,322.2,560.5,322.5,560.9L322.5,560.9z"/>
			</g>
		</g>
		<g>
			<g>
				<path class="st2" d="M389.8,564.8c-4.9,2-9.9,3.4-15,4.4c-0.5,0.1-0.3,0.8,0.2,0.7c5.2-1,10.1-2.5,15-4.4
					C390.4,565.3,390.2,564.6,389.8,564.8L389.8,564.8z"/>
			</g>
		</g>
		<g>
			<g>
				<path class="st2" d="M382,567.9c-0.7,0-1.3,0-2-0.2c-0.5-0.1-0.7,0.6-0.2,0.7c0.7,0.2,1.4,0.3,2.2,0.2
					C382.5,568.6,382.5,567.9,382,567.9L382,567.9z"/>
			</g>
		</g>
		<g>
			<path d="M327.6,556.5c-3-2.1-5.8-4.6-8.1-7.4c8.1-4.6,16.6-8.4,25.4-11.3c3.7-1.2,7.5-2.3,11.4-2.7c3.4-0.4,6.8-0.2,10.3,0
				c5.8,0.3,11.7,0.6,16.9,3c3.9,1.8,7.1,4.6,10.3,7.4c5.1,4.4,10.3,8.9,14.3,14.4c-7.1-6.3-15-11.6-23.2-16.3
				c-5.8-3.3-18.6-4.4-24.8-3.4c-7.6,1.2-29,10.3-32.4,16"/>
			<g>
				<path class="st2" d="M327.8,556.2c-1.7-1.2-3.3-2.5-4.8-3.9c-1.7-1.6-2.9-2.4-0.9-4.2c2.7-2.4,7.6-3.9,10.8-5.3
					c7.9-3.4,16.4-6.9,25.1-7.5c7.5-0.5,16.7-0.2,23.8,2.5c7.3,2.8,13.7,9.4,19.3,14.8c1.4,1.4,2.7,2.9,4.1,4.3
					c0.4,0.4,1.6,1.1,1.8,1.6c-0.4-0.6-1.5-1.3-2-1.7c-2.5-2.1-5.2-4.1-7.9-5.9c-5-3.5-10.4-7.5-16.4-9.3
					c-9.3-2.8-19.1-2.8-28.2,0.4c-5.3,1.9-10.5,4.1-15.4,6.8c-3.4,1.9-7.5,4-9.8,7.3c-0.3,0.4,0.4,0.8,0.6,0.4
					c3.2-4.7,10.1-7.5,15.1-9.8c5.4-2.5,11.2-5.1,17.1-6c18.5-3,34.4,8.1,47.6,19.6c0.3,0.3,0.9-0.1,0.6-0.5
					c-5.1-6.6-11.5-12.4-18-17.5c-6.1-4.9-12.7-6.7-20.4-7.2c-8.9-0.6-16.8-0.2-25.3,2.6c-8.9,2.9-17.4,6.8-25.5,11.4
					c-0.2,0.1-0.2,0.4-0.1,0.6c2.5,2.8,5.2,5.3,8.2,7.5C327.8,557.1,328.2,556.5,327.8,556.2L327.8,556.2z"/>
			</g>
		</g>
		<g>
			<g>
				<path class="st2" d="M334.3,542.3c0.5,0,0.5-0.8,0-0.8C333.9,541.6,333.9,542.3,334.3,542.3L334.3,542.3z"/>
			</g>
		</g>
		<g>
			<g>
				<path class="st2" d="M395.9,564.2c2,0.5,4,1.1,6,1.5c0.5,0.1,0.7-0.6,0.2-0.7c-2-0.4-4-1-6-1.5
					C395.6,563.4,395.4,564.1,395.9,564.2L395.9,564.2z"/>
			</g>
		</g>

			<ellipse transform="matrix(0.9748 -0.2229 0.2229 0.9748 -114.5647 95.7977)" class="st14" cx="367.1" cy="555.4" rx="5.1" ry="4.8"/>
		<g>
			<path class="st17" d="M365.3,551.6c-0.1-0.4-0.5-0.7-1-0.8c-0.4-0.1-0.9,0-1.3,0.2c-0.2,0.1-0.4,0.2-0.4,0.4
				c-0.1,0.2,0,0.4,0.1,0.7c0.1,0.5,0,1.2-0.5,1.5c-0.3,0.3-0.7,0.4-1,0.6c-0.3,0.3-0.5,0.7-0.2,1c0.2,0.3,0.6,0.2,0.9,0.1
				c0.3-0.2,0.6-0.4,0.9-0.5s0.7-0.1,0.9,0.2c0.1,0.1,0.1,0.3,0.2,0.4c0.2,0.2,0.5,0.2,0.8,0c0.2-0.2,0.3-0.5,0.4-0.7
				c0.4-1,0.7-2.3,0-3.2"/>
		</g>

			<ellipse transform="matrix(0.5317 -0.847 0.847 0.5317 -302.0444 567.7966)" class="st17" cx="362.4" cy="557" rx="0.7" ry="0.8"/>
	</g>
	<g>
		<g>
			<path class="st5" d="M370.1,731.5c10.5,8.2,18.2,19.6,28.9,27.6c10.9,8.2,24.9,11.3,38.4,11.5c12.9,0.1,25.7-2.7,37.4-8.1
				c5.8-2.7,11.4-6.1,16.5-10c6-4.7,11.3-10.3,18.8-12.8c0.5-0.2,0.3-0.9-0.2-0.7c-11.3,3.7-19.4,14.2-29.7,20
				c-12.1,6.7-25.8,10.5-39.6,10.8c-14.9,0.4-30.5-2.8-42.4-12.2c-10-8-17.4-18.7-27.6-26.6C370.2,730.7,369.7,731.2,370.1,731.5
				L370.1,731.5z"/>
		</g>
	</g>
	<g>
		<path class="st2" d="M328.3,556.2c7.2-6.5,17.1-8.7,26.5-10.8c2.7-0.6,5.4-1.2,8.2-1.2c2-0.1,4,0.1,6,0.4
			c13.2,1.7,26.5,6.1,36.8,15c0.9,0.8,2.4,1.5,3,0.6c-5.1-8.5-12.9-15.2-22-18.7c-5.7-2.2-11.9-3.2-17.9-3.8
			c-2.5-0.3-5.1-0.5-7.6-0.3c-2.9,0.3-5.7,1.1-8.4,2.1c-9.3,3.1-18.8,7.4-24.1,15.8"/>
	</g>
	<g>
		<path class="st2" d="M577.2,567.3c-6.9-6.5-16.6-9.2-25.8-11.6c-2.6-0.7-5.3-1.4-8-1.6c-2-0.2-3.9-0.1-5.9,0.1
			c-13.1,0.9-26.3,4.3-36.7,12.2c-0.9,0.7-2.4,1.3-3,0.4c5.3-7.8,13.2-13.7,22.2-16.5c5.7-1.8,11.8-2.4,17.8-2.7
			c2.5-0.1,5-0.2,7.5,0.1c2.8,0.4,5.6,1.4,8.2,2.4c9,3.4,18.3,8,23.3,16.2"/>
	</g>
	<g>
		<path class="st2" d="M600.2,277.8l-9.3,22.4c-0.6-2.1-1.4-4.1-2.4-6c-7.1-12.9-21.3-20.1-35.2-24.9
			c-58.3-20.1-126.1-9.2-175.2,28.1c-23.8,18.1-42.9,41.5-60.5,65.8c-46.6,64.8-83.3,136.9-108.1,213
			c-26.5,81.4-41.8,171.3-100.1,233.5C44.8,878.6-56.7,896.2-134.8,949c-45.8,31-82.9,74.7-107.2,124.6
			c11.7,51.4,22.9,102.8,31.8,154.8l23.7-5.4c21.1-4.8,42.1-10.4,63.1-15.7c18.3-4.6,36.6-9.1,55.2-12.5c18.4-3.4,36.8-5.9,55-10.6
			c32-8.3,63-20.3,95.2-28.3c14.2-25.9,20.9-57.3,30.8-85.8c14-40.3,35.9-77.1,54.2-115.6c38.9-81.3,61.8-169.4,96.1-252.8
			c8.3-20.3,17.4-40.5,21.7-62c4-20.1,3.8-40.9,5.8-61.3c4-41.3,17-81.1,32.7-119.4c18-43.8,40.4-87.1,75.3-118.9
			s84.4-50.4,130-38.2c16,4.3,31.7,12.2,48.1,10.4c3.7-0.4,7.4-1.7,10.8-3.6l-9.4,22.8c10.1-3.4,14.9-14.9,13.9-25.8
			C600.8,298.7,605.9,287.4,600.2,277.8z"/>
	</g>
	<g>
		<path class="st3" d="M336,876.6c-3.7,10.4-11.9,18.7-16.7,28.7c-3.1,6.5-4.8,13.5-6.4,20.5c-3.2,13.7-6.4,27.5-9.7,41.2
			c-2.4,10.1-4.7,20.2-4.9,30.6c-0.1,8,1.1,15.9,0.8,23.9c-1,23.3-15,44-28.5,63.2c-8.8,12.4-17.5,24.9-26.3,37.3
			c58.9-1.2,114.9-25.4,173.4-33.1c23.2-3.1,46.8-3.5,69.7-8.2c23.9-4.9,58.1,8.8,80.6-0.6c2.7-1.1-1.9-21.8,0-24
			c1.7-2-1.6-8.4-0.9-10.9c9.1-32.9,14.3-66.8,15.5-100.8c0.9-24.4-0.3-48.8-1.7-73.2c-0.6-10.1-1.5-21-8.4-28.3
			c-28.6,26.6-66.9,42-105.8,46.5s-78.6-1.3-115.8-13c-4.1-1.3-8.4-2.7-12.6-1.9c-14,2.7-13.7,23.4-23.8,33.3"/>
	</g>
	<g>
		<path class="st2" d="M563.6,335.6c21.7-15.8,47.9-29.9,74.3-25.1c38.3,7,56.6,48.3,68.8,84.2c24.7,72.6,49.5,145.4,63.4,220.7
			c11.3,61.1,15.6,123.8,34,183.2c18.5,59.6,51.2,116.3,52.7,178.7c0.2,7.5-0.6,16-6.5,20.9c-3.7,3-10.9,0.7-13.5,4.8
			c-70.2,106.7-180.7,208.4-149.8,81.1c1.1-4.6,12.6-21.3,8-22c-8.5-1.4-13.1-28.8-18.7-35.1c-7.3-8.3-18.4-12.5-26.6-20
			c-13.7-12.6-16.9-32.4-19.2-50.6c-8.9-71.5-14.4-143.5-16.5-215.6c-0.3-11.9-0.6-23.8,1.2-35.5c1.9-12,5.9-23.6,9.3-35.3
			c33.5-113.2,15.8-239.1-47.7-338.1c-2.2-3.4-4.5-7.3-3.8-11.3c1.2-6,8.4-8.7,14.5-10.2c10.6-2.7,21.2-5.4,31.7-8.1"/>
	</g>
	<g>
		<path class="st2" d="M573.9,328.5c9.4-4.7,9.1-19.9,1.8-27.7c-7.3-7.9-18.5-10.1-29-11.4c-63.8-7.9-132,6.7-180.1,49.6
			c-23.5,20.9-41.4,47.5-59,73.8c-16.7,24.9-33.5,50.1-43.2,78.7c-9,26.7-11.4,55.3-17.6,82.9c-6.8,30.2-18.2,59.1-27.4,88.6
			c-40.3,129.7-38.2,271.9-88.7,397.7c-12.1,30.1-27.3,63.6-15.1,93.9c2.6,6.3,6.7,12.5,12.9,15c5.6,2.3,11.9,1.1,17.7-0.2
			c30.5-6.7,60.1-17.1,88.2-30.9c7.6-3.8,15.4-7.9,20.7-14.7c5-6.3,7.5-14.3,11.8-21.2c6.5-10.5,17-17.7,25.4-26.7
			c33.7-35.8,31.5-91.9,34.7-141.6c0.6-8.5,1.4-17.2,5-24.9c3.2-6.8,8.3-12.4,11.5-19.1c8.2-17.2,2.2-37.8-4.6-55.7
			c-15.7-41.2-35.7-80.8-47.9-123.3c-12.1-42.4-15.8-89.2,1.3-129.6c5-11.7,11.6-22.7,15.7-34.8c3.9-11.5,5.4-23.7,9.1-35.3
			c6.4-20.2,19.1-37.4,31.7-54.3c32.6-44,64.5-92.5,116.8-107.5c35.9-10.3,79.4-14.3,112.5-21c5.2-1.1,7.8-6.8,10.9-11.1
			c5.5-7.7-6-16.4-15.2-18.9c-33.1-9.2-69-18.2-100.5-5"/>
	</g>
	<g>
		<path class="st2" d="M634.3,625.5c-7.8,36.9-20.7,72.7-38.1,106c-11.3,21.7-24.7,42.7-30.6,66.4c-5.3,21.5-4.1,43.9-2,65.9
			c5.8,60.7,18.3,122.8,3.8,182c-0.9,3.5-1.3,31.1,0.7,34.1c2.4,3.7,28.6,2.3,33,2c25.1-1.4,52.9,4.9,77-2c9.3-2.7,3.1-28.2,10-35
			c6.3-6.2,1.1-24.8,3.1-33.4c6.6-28.8-1.7-58.6-6.2-87.7c-5.1-32.8-5.2-66.2-8.7-99.2c-4.5-41.5-14.4-82.3-24.2-122.8
			c-4-16.3-9.2-34.5-23.9-42.8"/>
	</g>
	<g>
		<path class="st18" d="M297,733c6,9.5,36.2,49.8,42.8,56.4c17.9,18,44.7,36.7,69.2,46c9.3,3.5,14.8,5.6,24.1,5.5
			c12.2-0.1,15.3,1.5,27.2-1c28.4-6,71.4-31.7,89.1-39.4c22.9-10,30.2-33.8,40.1-63.7c-11.1,11.8-19.2,18.9-30.3,30.7
			c-6,6.3-16.1,15.4-22.8,21c-7.8,6.4-15.3,13.5-23.9,18.6c-5.9,3.5-11.9,7.1-17.8,10.6c-5.1,3.1-10.3,6.1-15.8,8.4
			c-5.1,2.1-10.5,3.6-16,4.7c-17.6,3.7-35.5,2.4-53.3-0.7c-10.4-1.8-25.9-7.4-34.5-13.5l-12.1-8.3c-9.1-6.5-18.5-18.4-25.9-24.6
			l-40.4-51.6c7.6,13,17.8,25.3,27.9,39.3"/>
	</g>
	<g>
		<path class="st5" d="M535.8,535.4c16.1-1.5,32.6,2.6,46.2,11.4c2.1,1.3,4.3,2.8,6.7,2.4c-1.9-3.8-4.8-7-8.4-9.1
			c-1.9-1.1-4-2-6.1-2.8c-6.9-2.7-13.8-5.4-21.2-5.9c-5-0.3-10.1,0.4-15,1.3c-1.1,0.2-2.3,0.5-2.7,1.5c-0.5,1,0.9,2.3,1.6,1.5"/>
	</g>
	<g>
		<path class="st5" d="M322.1,534.7c10.6-2.5,21.2-4.9,31.8-7.4c4.2-1,8.6-2,12.9-1.4c2.9,0.4,6.5,1.2,8.2-1.1
			c-6.1-3.9-13.6-5-20.8-4.6s-14.2,2.4-21.2,4.3c-4.9,1.4-10.3,3.2-12.4,7.8c3,1.2,6.5,1.4,9.6,0.6"/>
	</g>
	<g>
		<path class="st5" d="M406.5,658c-1.6,4.2-1.3,9,0.8,13c2.1,3.9,6,6.9,10.4,7.9c-5-1.8-8.2-6.8-9.2-12s0-10.5,1.3-15.6"/>
	</g>
	<g>
		<path class="st4" d="M428.4,571.8c-0.7,0.9-0.9,2.1-1.1,3.3c-2.3,13.4-4.6,27.1-1.8,40.4c0.1,0.7,0.7,1.6,1.3,1.3
			c2.8-14.1,3.1-28.6,3.4-43c0-0.5,0-1.1-0.3-1.5s-1-0.6-1.4-0.2"/>
	</g>
	<g>
		<path class="st6" d="M445.3,640.8c-0.9-0.1-1.7,0.4-2.2,1.1c-0.5,0.7-0.8,1.6-1,2.4c-0.2,1.1-0.3,2.2-0.3,3.3c0,0.7,0.1,1.5,0.5,2
			c0.5,0.6,1.3,0.8,2.1,0.9c1.6,0.2,3.2,0,4.6-0.5c0.7-0.3,1.5-0.7,1.9-1.3c0.7-0.9,0.7-2.2,0.7-3.3c0-0.5,0-1-0.3-1.5
			c-0.2-0.4-2.5-0.1-2.9-0.4c-1.4-1-0.9-2.5-2.6-2.7"/>
	</g>
	<g>
		<path class="st6" d="M448.2,585c1.1,7.3-3.2,14.7-1.5,21.9c1.8-1.5,2.3-4,2.6-6.4c0.4-3.2,0.6-6.4,0.5-9.6c0-1.9-0.3-4.1-1.8-5.3"
			/>
	</g>
	<g>
		<path class="st6" d="M450.3,561.4c-0.8,2.3-0.9,4.8-0.3,7.1c0.1,0.3,0.2,0.6,0.5,0.8c0.5,0.2,0.9-0.3,1.1-0.8
			c0.9-2.2,0.6-4.9-0.9-6.8"/>
	</g>
	<path class="st5" d="M475.1,601.2"/>
	<path class="st5" d="M475.4,600.9"/>
	<g>

			<linearGradient id="SVGID_1_" gradientUnits="userSpaceOnUse" x1="502.4604" y1="387.1205" x2="456.1313" y2="433.4495" gradientTransform="matrix(0.9748 -0.2229 -0.2229 -0.9748 101.7744 1129.485)">
			<stop  offset="0.1288" style="stop-color:#0D3F3F"/>
			<stop  offset="1" style="stop-color:#207070"/>
			<stop  offset="1" style="stop-color:#000000"/>
		</linearGradient>
		<path class="st19" d="M475.3,641.4c-2.4-12.2-1.3-59.9-1.6-72.4c-0.3-9.1,11.7,7,12.3,16.1c1.1,14.3,2.4,44.5,4.8,58.7
			c1.6,10-3,26.8-10.5,35.7c2.9-7.3,4.7-22.8-0.2-28.1C479.7,651.2,476,644.9,475.3,641.4z"/>
	</g>
	<g>
		<g>
			<path class="st2" d="M532.1,588.6c16.5,6,36.3-2.3,47.8-14.5c0.3-0.4-0.2-0.9-0.5-0.5c-11.3,11.9-30.9,20.2-47.1,14.3
				C531.8,587.7,531.6,588.4,532.1,588.6L532.1,588.6z"/>
		</g>
	</g>
</g>
</svg>
