<?xml version="1.0" encoding="utf-8"?>
<!-- Generator: Adobe Illustrator 23.0.1, SVG Export Plug-In . SVG Version: 6.00 Build 0)  -->
<svg version="1.1" id="Lag_1" xmlns="http://www.w3.org/2000/svg" xmlns:xlink="http://www.w3.org/1999/xlink" x="0px" y="0px"
	 viewBox="0 0 1920 1080" style="enable-background:new 0 0 1920 1080;" xml:space="preserve">
<style type="text/css">
	.st0{fill:#A2E9FF;}
	.st1{fill:#85C7D6;}
	.st2{fill:#020202;}
	.st3{fill:#247F89;}
	.st4{fill:#207070;}
	.st5{fill:#125A5E;}
	.st6{fill:#81B3C1;}
	.st7{fill:#034242;}
	.st8{fill:#0D3F3F;}
	.st9{fill:#FFFFFF;stroke:#020202;stroke-width:2;stroke-miterlimit:10;}
	.st10{fill:#CAD9DD;}
	.st11{fill:#B9DDEA;stroke:#020202;stroke-width:3;stroke-miterlimit:10;}
	.st12{fill:#D9E8ED;}
	.st13{fill:#1D1D1B;}
	.st14{fill:#FFFFFF;}
	.st15{fill:#F2F6F7;stroke:#020202;stroke-width:2;stroke-miterlimit:10;}
	.st16{fill:#F2F6F7;}
	.st17{fill:#022625;}
	.st18{fill:url(#SVGID_1_);}
</style>
<image style="display:none;overflow:visible;" width="1920" height="1167" xlink:href="desktop.jpg"  transform="matrix(1 0 0 1 0 -44)">
</image>
<g id="Lag_2">
	<rect x="-12" y="-5" class="st0" width="1939" height="1096"/>

		<rect x="6.8" y="138.8" transform="matrix(0.9332 0.3594 -0.3594 0.9332 302.5417 -304.3703)" class="st1" width="1926" height="1045.2"/>
	<path class="st0" d="M1229.5,1093.9h33.9C1252.1,1093.6,1240.8,1093.6,1229.5,1093.9z"/>
	<g>
		<g>
			<path class="st2" d="M1642.2,136c-17-42.4-50.2-77.1-91.8-96.1c-21.7-9.9-45.2-15.5-69-15.9c-31.1-0.6-61.6,6.7-92.3,10.3
				c-27.7,3.3-57.4,2.1-81.8,17.8c-22.8,14.7-43.8,33.1-63.5,51.6c-39.8,37.5-75.2,80.1-106.4,124.9c-17.2,24.7-32.6,50.6-46.7,77.1
				c-6.9,13.1-13.6,26.3-19.9,39.7c-1.1,2.3-1.6,4.5-2.4,6.9c-1.2,3.7-3.3,7.1-4.9,10.7c-3,6.5-5.7,13.1-8.2,19.7
				c-21.1,54.8-38.2,111.2-77,156.7c-34.8,40.7-82.6,71.9-133.9,87.3c-29.6,8.9-59.9,12.3-90.8,12.9c-30.3,0.6-60.5-0.6-90.6,4.1
				c-30.9,4.9-60.9,16.3-90.8,25.2c-29.5,8.9-59.5,17.3-88.3,28.6c-24.7,9.8-47.4,23.1-67.1,40.9c-18.8,17-34.3,37.2-47.1,59
				c-6.7,11.3-12.6,23.1-18.1,35c-0.8,1.7,1.8,3.3,2.6,1.5c22.2-48.3,53.7-93.1,101-119.7c25.4-14.2,53.5-22.6,81.2-31.3
				c30-9.4,60.3-17.7,90.2-27.3c29.5-9.5,59.4-12.4,90.3-12.7c29.6-0.3,59.4,0.4,88.7-4.3c51.9-8.3,100.6-30.8,141.2-64.2
				c18.8-15.5,35.5-33.5,49.5-53.5c16.1-22.9,28-48.3,38.3-74.2c10.8-27.3,19.2-55.7,31.6-82.3c5.9-12.6,10.9-25.2,17.2-37.7
				c6.4-12.8,13.1-25.5,20.1-38.1c28.1-50.1,62.4-96.5,100.5-139.5c17.4-19.6,35.8-38.4,55.5-55.8c10.3-9.1,20.9-17.9,31.9-26.2
				c12.1-9.2,23.9-17.8,38.7-22.2c14.3-4.3,29.3-5,44.1-6.4c15-1.4,29.9-3.4,44.8-5.7c29.8-4.6,59.9-8.9,89.9-3.3
				c46.4,8.7,88.5,36.7,114.5,76.1c6.4,9.8,11.8,20.2,16.2,31C1640,138.6,1642.9,137.8,1642.2,136L1642.2,136z"/>
		</g>
	</g>
	<g>
		<g>
			<path class="st2" d="M1604.3,142c-58.9-83.3-178.8-114.6-271-71c-46,21.7-81.6,60.2-112.9,99.3c-34.5,43.2-67.1,88-98.8,133.3
				c-32.2,46.1-63.1,93.1-92.7,141c-14,22.8-27.3,46.1-42.3,68.2c-14.8,21.8-32.2,40.9-52.7,57.5c-20.9,17-43.7,31.7-66.2,46.6
				c-22.6,14.9-45.6,29.4-69.7,41.8c-24.2,12.5-49.3,22.2-75.5,29.3c-26.3,7-53.1,12-79.4,18.8c-25.4,6.6-50.1,15.2-73.3,27.5
				c-22.5,12-43.3,26.8-63.2,42.6C463.7,811,424,849.1,384.1,886.4c-10.1,9.5-20.2,19-30.2,28.5c-2.8,2.7,1.4,6.9,4.2,4.2
				c39.5-37.6,79.4-74.8,120.4-110.8c39.3-34.6,81.5-67.5,131.4-85.3c50-17.8,103.6-22.6,153.1-41.9c48.7-19,92.6-48.6,135.7-77.8
				c20.6-13.9,40.9-28.5,58.8-45.8c17.6-17,31.8-36.9,44.7-57.6c29.1-46.3,57-93.2,87.4-138.7c30.6-45.9,62.4-91,95.5-135.1
				c31.2-41.7,62.5-85,102.8-118.5c41.5-34.6,92.1-52.8,146.4-50.1c51.4,2.6,102.5,22.9,139.9,58.5c9.3,8.8,17.6,18.5,25,28.9
				C1601.3,148.2,1606.5,145.2,1604.3,142L1604.3,142z"/>
		</g>
	</g>
	<g>
		<g>
			<path class="st2" d="M1609.7,162.1C1538,105.3,1448.1,55.9,1353.6,78c-22,5.2-42.7,14.5-61.1,27.6c-20,14.3-37.5,32-55.1,49
				c-36.2,34.9-71.8,70.7-100.6,112.2c-28.3,40.7-50.4,85.3-69.1,131.1c-19,46.3-36.2,93.3-71.8,129.9
				c-17.4,17.9-37.1,33.4-56.4,49.2c-20.5,16.7-41.3,33.1-63.9,47c-43.7,26.9-92.3,44.4-141.2,59.2
				c-51.3,15.6-103.3,28.7-155.8,39.4c-26.5,5.4-53.1,10.2-79.8,14.3c-24.8,3.8-50.3,5.7-74.6,12.3c-10.9,2.9-21.3,7-31,12.8
				c-1.7,1-0.2,3.6,1.5,2.6c21.2-12.5,45.6-16.3,69.6-19.6c26.1-3.6,52.2-7.6,78.2-12.3c52.4-9.5,104.4-21.4,155.7-35.7
				c47.7-13.3,95.6-27.9,140.4-49.4c45.5-21.8,84.2-52.7,122.8-84.7c18.8-15.6,37.3-31.7,52.5-51c14.4-18.3,25.3-38.9,34.7-60.1
				c9.8-22,18.1-44.5,27.6-66.7c9.7-22.7,20.4-45.1,32.3-66.8c24.6-44.7,55.1-84.7,90.4-121.3c17.6-18.3,35.9-35.8,54.2-53.4
				c17.9-17.1,36.2-34.2,58-46.3c41.6-22.9,91.6-26.2,137.5-16.6c47,9.9,90,33.2,128.9,60.7c10.3,7.3,20.3,14.9,30.2,22.7
				C1609.1,165.4,1611.2,163.3,1609.7,162.1L1609.7,162.1z"/>
		</g>
	</g>
	<g>
		<g>
			<path class="st2" d="M1632.4,147.4c-25.5-40.1-66-69.1-111.3-82.7c-47.6-14.3-97.7-10.1-142.5,11.3
				c-48.7,23.3-87.6,62.5-123.6,101.8c-40.8,44.5-82.4,89.6-114.7,140.9c-30.9,49.2-53.1,103-78.9,154.9
				c-25.5,51.2-55.3,99.7-97,139.3c-40.6,38.5-89.3,67.9-142.2,85.9c-55.9,19-114.5,27-172.1,38.8c-55.4,11.4-110.4,27.1-158.6,57.4
				c-43.8,27.6-81.4,65-109.1,108.7c-7,11-13.3,22.5-19,34.3c-2.5,5.2,5.2,9.8,7.8,4.5c22.7-46.8,56-88.1,97-120.1
				c43.6-34.1,94.5-54.7,147.9-67.9c56.5-14,114.4-21.1,170.7-35.7c53.3-13.9,103.7-35.9,147.9-69c43.5-32.6,79-73.5,106.8-120.2
				c29.2-48.9,50.7-101.8,76.5-152.4c13.1-25.8,27.5-51,44.1-74.8c17.5-25,37.1-48.4,57.3-71.3c36.3-41.2,72.8-84.3,116.6-117.8
				c40.6-31,88.4-51.1,140.1-47.7c47.7,3.2,94.3,24.6,127.4,59.1c8,8.4,15.1,17.5,21.4,27.3C1627.8,156.8,1635.6,152.3,1632.4,147.4
				L1632.4,147.4z"/>
		</g>
	</g>
	<g>
		<g>
			<path class="st2" d="M1633.6,140.7c-14-44.9-52.6-77.8-96.7-91.8c-51.3-16.2-107-4.4-153.5,20.3
				c-49.6,26.5-89.1,67.9-123.3,111.9c-36.9,47.4-70.5,97.6-102.2,148.5c-32.1,51.5-60.4,104.9-90,157.8
				c-27.7,49.4-59.4,95.2-103.2,131.8c-40.8,34.1-87.8,59.8-135.9,82c-52.6,24.2-106.9,44.7-160.6,66.2
				c-30.2,12.1-60.5,24.2-90.7,36.2c-27.6,11-55.4,21.6-82,34.9c-25.5,12.7-49,28.4-70.2,47.4c-20.9,18.7-39.4,39.9-57,61.6
				c-8.8,10.9-17.5,22-26.1,33.1c-3.5,4.5,2.8,10.9,6.4,6.4c33.9-43.7,68.7-88.6,115.1-119.8c24.3-16.3,51-28.5,78-39.6
				c29.1-12,58.5-23.4,87.7-35.1c54.4-21.7,109-42.8,163-65.5c47.7-20.1,95-42.3,138.2-71.1c44-29.4,82-65.6,111.9-109.3
				c32.8-47.9,57.6-100.8,86.5-151c29.9-51.8,62-102.3,96.3-151.3c32.4-46.4,66.2-92.9,109.3-130.1c42.1-36.3,95.4-63.4,151.9-63.6
				c47.6-0.2,96.5,21.5,123.7,61.6c6.5,9.6,11.5,20,15,31.1C1626.7,148.6,1635.4,146.3,1633.6,140.7L1633.6,140.7z"/>
		</g>
	</g>
	<g>
		<g>
			<path class="st2" d="M1614.9,162c-6.4-54-67.7-67.4-111.5-76c-53-10.4-109.4-19.3-160.6,3.4c-23.5,10.4-44.4,25.9-63.5,43.1
				c-20.3,18.3-39.2,38.3-56.5,59.4c-34.3,41.7-60.9,88-84.3,136.5c-23.5,48.9-45.4,99.2-78.1,142.8
				c-32.5,43.3-74.8,78.3-119.6,108.2c-47.2,31.6-97.8,58.1-150.7,78.9c-52.5,20.6-107,33.4-161.5,47.5
				c-91.6,23.7-195.7,61.9-236.9,155.5c-4.4,10.1-7.9,20.6-10.3,31.3c-0.4,1.9,2.5,2.7,2.9,0.8c10.1-45.1,39-82.8,74.9-111
				c40.4-31.8,88.5-50.6,137.4-64.8c52.7-15.2,106.7-25.8,158.8-43.5c51.2-17.3,100.7-40,147.3-67.4c44.4-26.1,87.2-56,123.8-92.4
				c37-36.8,63.9-80.6,87-127.1c23.5-47.4,44.2-96.1,72.9-140.6c28.7-44.4,63.7-86.1,104.3-120.1c20.4-17,43.1-31.9,68.5-40.1
				c26.9-8.7,55.5-9.5,83.5-6.8c28.1,2.7,56.2,8.3,83.8,14.4c25.7,5.7,52.1,14.4,70,34.9c8.2,9.4,13.8,20.8,15.3,33.3
				C1612.2,163.9,1615.2,163.9,1614.9,162L1614.9,162z"/>
		</g>
	</g>
	<g>
		<g>
			<path class="st2" d="M386.2,939.5c34.8-39.2,78.4-69,124.4-93.5c48.7-25.9,100.1-46.7,151.4-66.8
				c55.3-21.6,111.5-40.3,167.7-59.3c26-8.8,51.9-18.4,76.1-31.6c24.1-13.2,46.3-29.6,67.4-47.2c21.6-17.9,42.7-36.7,63-56
				c19.5-18.5,37.8-38.4,52.4-61.1c14.8-23,26.3-47.8,37.6-72.6c10.6-23.3,21.5-46.5,33.3-69.2c45.6-88.1,103-172.4,180.9-235
				c41.4-33.3,89.3-62.5,141.8-73.7c48.6-10.4,102.7-2.3,140.5,32c8.6,7.8,15.8,16.7,21.7,26.7c1,1.7,3.6,0.2,2.6-1.5
				c-23.1-38.8-66.9-60.5-111-64.1c-54-4.3-106.7,17.6-151.6,45.6c-84.7,53-149.2,132.3-199.4,217.6
				c-26.5,45.1-48.1,92.3-70.3,139.5c-12.2,25.9-25.6,51.5-43.4,74c-17.4,22-38.1,41-58.9,59.7c-43.8,39.3-88.2,76.8-143.2,99.3
				c-27,11-54.9,19.5-82.5,28.7c-29,9.6-57.9,19.8-86.6,30.5c-53.7,20-107.2,41.2-158.9,65.9c-46.4,22.1-91.5,48.1-129.9,82.6
				c-9.6,8.6-18.6,17.8-27.2,27.4C382.8,938.8,385,941,386.2,939.5L386.2,939.5z"/>
		</g>
	</g>
	<g>
		<g>
			<path class="st2" d="M1606.1,162c-40.1-27.5-83.9-57.2-134.4-57.3c-24.1-0.1-46.4,9.4-66.3,22.3c-10,6.5-19.4,13.8-28.8,21.1
				c-10.4,8.2-21.3,15.8-31.4,24.3c-37.5,31.7-71.6,67.3-100.1,107.4c-7.3,10.2-14.2,20.7-20.8,31.5c-3.4,5.6-6.8,11.1-10.5,16.6
				c-1.5,2.3-3.6,4.4-4.9,6.8c-1.7,3-2.8,6.1-4.7,9.1c-7.4,11.5-13,24.2-20.5,35.6c-7.2,10.9-12.8,22.4-19.5,33.6
				c-7.2,12.2-14.5,24.4-21.5,36.8c-3.3,5.8-6.5,11.7-9.6,17.6c-3.2,6.2-7.7,11.4-11,17.4c-13.6,24.4-27.6,48.5-42.4,72.1
				c-15,23.8-30.9,46.4-50.6,66.7c-17.7,18.3-38,33.9-60.2,46.4c-44.1,24.7-94.7,37.1-144.7,41.8c-29.3,2.8-58.9,4-88.4,3.9
				c-29.1-0.1-58.2-1.5-87.4-1.3c-26.6,0.2-54.9,0.2-80.4,8.8c-22.2,7.5-41.9,20.5-60.2,34.8c-43.4,33.9-84.8,70.7-124.1,109.3
				c-9.8,9.6-19.5,19.4-29,29.3c-1.3,1.4,0.8,3.5,2.1,2.1c37.8-39.3,77.8-76.3,119.6-111.3c20.4-17,40.7-34.8,63.8-48.2
				c10.8-6.3,22.2-11.5,34.3-15c13.3-3.8,27.1-4.9,40.9-5.8c28.8-1.8,57.6-1,86.5-0.4c28.7,0.7,57.3,0.5,86-0.9
				c50.7-2.5,101.4-9.4,148.7-28.5c45.6-18.5,83.8-47.8,114.9-85.9c16.9-20.7,30.8-44,44.5-66.8c6.9-11.4,13.5-22.9,20.1-34.5
				c3.4-6.1,6.7-12.3,10.2-18.3c3.3-5.7,7.3-10.6,10.4-16.5c6.6-12.6,13.9-24.8,20.9-37.1c6.3-11,14.6-21.8,19.6-33.5
				c2.4-5.5,5.6-10.3,8.9-15.3c4-6,7.4-12.4,10.8-18.7c6.2-11.5,12.7-22.8,19.9-33.6c13.9-20.8,26.5-42.2,41.7-62.1
				c15.3-20,32-38.8,49.9-56.5c8.6-8.6,17.5-16.9,26.7-24.9c10-8.8,20.5-16.7,31.1-24.8c19.8-15.3,38.9-31.9,61.8-42.5
				c50.1-23.1,102.6-0.9,145.9,26.5c10.4,6.5,20.5,13.5,30.6,20.4C1606.2,165.7,1607.7,163.1,1606.1,162L1606.1,162z"/>
		</g>
	</g>
	<g>
		<g>
			<path class="st2" d="M1575.9,164.6c-5.1-18.2-19-33-36.4-40.2c-8.9-3.7-18.8-5.3-28.4-4.1c-11.5,1.4-21.9,6.9-31.8,12.7
				c-49.2,28.9-98.3,58-146.9,88c-41.2,25.4-81.7,52.8-116.4,86.8c-16.9,16.6-32.3,34.8-45.3,54.6c-12.8,19.6-23,40.8-32.2,62.4
				c-17.9,42.3-31.6,86.6-54.4,126.7c-11.5,20.2-25.5,39.1-42.7,54.9c-19.6,17.9-42.7,31.5-66.7,42.7
				c-101.1,47.4-213.9,59.7-321.2,86.4c-90.3,22.5-182.9,57.4-249.3,125.2c-8.3,8.4-16,17.4-23.3,26.7c-1.2,1.5,0.9,3.6,2.1,2.1
				C441.9,814,531.9,772.8,621.6,747c103.1-29.5,211-40.4,312-77.7c46.2-17.1,92.7-39.1,125.5-76.9c28.8-33.1,45.8-74.2,61.6-114.7
				c16.7-42.9,32.6-86.5,59.6-124.2c28.5-39.7,66.3-71.6,106.2-99.3c42.3-29.4,87.3-54.9,131.5-81.4c12.9-7.7,25.8-15.4,38.7-23.1
				c11.6-6.9,22.9-14.5,35-20.4c21.8-10.7,46.3-7.4,64.4,9c8,7.3,13.8,16.4,16.8,26.9C1573.6,167.2,1576.5,166.4,1575.9,164.6
				L1575.9,164.6z"/>
		</g>
	</g>
	<g>
		<g>
			<path class="st2" d="M1594.9,180.3c-18.6-18-39.4-33.5-62.1-46c-21.8-12.1-45.9-22.6-70.7-26.5c-22-3.5-45.3-0.7-62.2,14.9
				c-8.9,8.2-15.3,18.5-21.9,28.5c-7,10.7-14.6,21.1-22.6,31c-31.4,38.6-69.2,71.2-103.6,106.9c-16.9,17.5-33,35.8-47,55.7
				c-14.2,20.2-25.4,42.1-35.2,64.8c-19.5,45.4-34.2,94.2-64.6,133.9c-33.2,43.3-83.5,67.6-131.7,90.3
				c-54,25.4-109.1,48.5-165.1,69.1c-54.8,20.1-110.7,36.4-166,54.7c-92.2,30.6-191.6,78.2-231.1,173.7
				c-4.4,10.6-7.7,21.5-10.1,32.6c-0.4,1.9,2.5,2.7,2.9,0.8c10.1-46.8,38.3-87.1,73.8-118.4c39.6-34.9,87.7-57.9,136.9-75.9
				c52.8-19.3,107.2-33.9,160.3-52.4c54.5-18.9,108.1-40.2,160.8-63.6c25.4-11.3,50.6-22.9,75.3-35.5c22.8-11.7,45.2-24.6,65-41
				c37.6-31.1,58.7-74.1,76.7-118.5c9.4-23.1,18.2-46.5,29-69c10.8-22.3,24.1-43.1,39.6-62.4c30.3-37.7,67-69.7,100.7-104.2
				c16.8-17.2,33-35.1,47.3-54.5c14.7-20.1,26-46.2,50.9-55.5c23.7-8.9,50.5-2.6,73.3,5.9c24.6,9.2,47.9,21.8,69,37.3
				c10.7,7.8,20.7,16.4,30.3,25.6C1594.2,183.8,1596.3,181.7,1594.9,180.3L1594.9,180.3z"/>
		</g>
	</g>
	<g>
		<g>
			<path class="st2" d="M1294.1,247.4c-52.3,45.4-96.6,99.9-130.6,160.3c-16.8,29.8-31.1,60.9-42.6,93.1
				c-5.9,16.5-11.1,33.3-15.6,50.3c-4.7,18.1-8.3,36.5-14,54.3c-5.8,18.2-14.2,35.2-26.9,49.6c-12,13.5-26.6,24.4-41.8,33.9
				c-32.7,20.4-68.5,36-105.4,47c-38.9,11.5-78.6,16.4-119,19.1c-39.7,2.7-79.3,5.2-117.8,15.8c-72.4,19.9-136.5,61-197.8,103.1
				c-7.7,5.3-15.4,10.6-23.1,16c-1.6,1.1-0.1,3.7,1.5,2.6c61.9-43,125.1-86.9,196.9-111.6c38.6-13.3,78.3-18.6,118.9-21.4
				c39.9-2.8,79.6-5.2,118.6-14.6c36.9-8.9,72.7-22.5,106.1-40.4c30.5-16.3,61.4-36.4,79.2-67c18.2-31.4,22.2-69.1,32.4-103.4
				c10.1-34.1,23.2-67.2,39.2-98.9c31.5-62.6,73.7-119.8,124.7-168c6.3-5.9,12.7-11.7,19.2-17.4
				C1297.7,248.2,1295.6,246.1,1294.1,247.4L1294.1,247.4z"/>
		</g>
	</g>
	<g>
		<g>
			<path class="st2" d="M1628.8,137.3c-31.3-40.3-77.9-63.9-123.9-83.7c-24.9-10.7-50.5-23.4-77.8-26.1
				c-27.9-2.8-53.3,9.1-76.8,22.7c-86.8,50.2-153.5,128.1-205.6,212.6c-26.8,43.4-49.7,88.9-71.1,135.1
				c-22.6,48.9-44.7,98.6-76.1,142.7c-30.3,42.6-70,76.5-115.6,101.9c-44.6,24.9-93.2,41.9-142.3,55.5
				c-105.1,29-215.3,42.2-314.8,89c-12.4,5.8-24.5,12.2-36.4,19.1c-5,2.9-0.5,10.7,4.5,7.8c96-55.7,207.1-71.9,313.3-97.9
				c95.4-23.4,194.3-57.2,264.6-129.2c36.7-37.6,62.7-83.8,85.4-130.7c22.6-46.6,43.1-94.2,67.9-139.7
				c47.5-87.4,107.4-171,188.3-230.5c20-14.8,41.4-28.7,64-39.2c13.1-6.1,27.2-10.5,41.7-10.5c14.8,0,29.2,4.1,43,9.2
				c24.7,9.1,49.2,19.9,72.9,31.5c22.3,11,44,23.7,62.9,40c9.4,8.1,17.9,17.1,25.5,26.9C1626,148.2,1632.4,141.8,1628.8,137.3
				L1628.8,137.3z"/>
		</g>
	</g>
	<g>
		<g>
			<path class="st2" d="M1065.7,630.8c-74,34.6-146.3,77.5-202.9,137.2c-53.3,56.2-92.9,131.1-88.9,210.4
				c0.9,17.5,3.5,35.2,0.9,52.7c-3,20.8-14.6,36.3-32.4,47.1c-1.7,1-0.1,3.6,1.5,2.6c14.1-8.5,25.4-20.1,30.7-35.9
				c4.8-14.1,4.6-29.3,3.7-44c-1-17.1-2.5-33.9-1.1-51.1c1.7-21.4,6.5-42.4,13.7-62.6c27.3-77.1,86.9-138,152.9-184
				c38.8-27.1,80.5-49.7,123.4-69.8C1068.9,632.5,1067.4,629.9,1065.7,630.8L1065.7,630.8z"/>
		</g>
	</g>
	<g>
		<g>
			<path class="st2" d="M1062.9,638.8c-51.4,39.4-92.1,92.1-117.4,151.8c-13.5,31.9-21.5,65.7-27.3,99.7
				c-5.9,34.6-10.4,69.6-20.7,103.3c-10.5,34.5-28.6,66.7-55.9,90.7c-1.5,1.3,0.7,3.4,2.1,2.1c22.5-19.8,39.1-45.4,50.1-73.2
				c12.7-32.1,18.2-66.6,23.7-100.6c5.5-34.1,11.6-68,23-100.7c11-31.7,26.8-61.9,46.1-89.4c21.6-30.8,47.9-58.3,77.8-81.2
				C1066,640.2,1064.5,637.6,1062.9,638.8L1062.9,638.8z"/>
		</g>
	</g>
	<g>
		<g>
			<path class="st2" d="M1067,628.9c-12,31.5-30.3,59.9-48.9,87.8c-19.3,28.8-39.7,56.9-58,86.3c-33.8,54.4-62.8,119.3-54.4,185
				c4,30.9,24.2,69.9-2.6,96.1c-1.4,1.4,0.7,3.5,2.1,2.1c21.6-21.2,13.9-51.9,7.6-77.8c-8-33.5-6.2-67.2,2.6-100.4
				c17.9-67.4,60.4-123.5,98.9-180.3c21.1-31.1,42.2-62.7,55.6-98C1070.6,627.8,1067.7,627.1,1067,628.9L1067,628.9z"/>
		</g>
	</g>
	<g>
		<g>
			<path class="st2" d="M1094.8,604.5c-17.5,29.6-32.7,60.5-47.8,91.4c-3.8,7.8-7.6,15.5-11.4,23.3c-1.6,3.2-3.7,6.5-4.9,9.9
				c-1.3,3.8-2.2,7.6-3.9,11.4c-6.4,14.4-12.3,29.1-17.4,44c-10.5,30.7-17.9,62.5-21.3,94.8c-3.5,33.9,1.8,67.6,0.2,101.6
				c-1.9,38.5-18.3,73.2-41.6,103.2c-1.2,1.5,0.9,3.6,2.1,2.1c18.7-24.1,34.2-51.9,39.9-82.2c6.4-34,0.2-68.4,0.9-102.6
				c0.7-33.3,7.6-66.9,17.2-98.7c4.7-15.8,10.3-31.4,16.6-46.7c3.1-7.4,7.4-14.8,9.7-22.5c2.5-8.4,6.8-16.1,10.6-24
				c17.1-34.9,33.8-70,53.6-103.4C1098.3,604.4,1095.7,602.8,1094.8,604.5L1094.8,604.5z"/>
		</g>
	</g>
	<g>
		<g>
			<path class="st2" d="M1084.3,626.3c-5.9,61.6-24.2,121.7-52.9,176.5c-28.3,54.3-66.6,103.4-112.6,143.8
				c-26,22.9-54.5,42.9-85,59.6c-1.7,0.9-0.2,3.5,1.5,2.6c54.6-29.9,102.9-70.7,142.3-119c38.9-47.8,69.1-102.6,88.3-161.2
				c10.9-33.2,18-67.6,21.4-102.3C1087.5,624.4,1084.5,624.4,1084.3,626.3L1084.3,626.3z"/>
		</g>
	</g>
	<g>
		<g>
			<path class="st2" d="M1116.4,499.8c-1.4,88.5,12,177.6-1.1,265.8c-5.8,38.9-16.6,77.4-35.6,112.1c-18.5,33.9-45.2,61.1-73.6,86.9
				c-30.6,27.8-62.7,54.8-86,89.3c-1.1,1.6,1.5,3.1,2.6,1.5c42.7-63.2,113.9-100.5,153.8-166.1c42.4-69.7,49-154.1,47.3-233.8
				c-1.1-51.9-5.2-103.7-4.4-155.6C1119.5,497.9,1116.5,497.9,1116.4,499.8L1116.4,499.8z"/>
		</g>
	</g>
	<g>
		<g>
			<path class="st2" d="M1603.4,175.9c-52.7-8.4-106-17.2-159.5-14.1c-51,2.9-99.9,17.7-141.2,48.2c-38.9,28.8-70.1,66.3-97.6,105.8
				c-14.6,21-27.2,43.3-38,66.4c-2.6,5.6-5,11.4-7.8,16.9c-2.6,5.2-5.8,10.4-7.5,16.1c-3.3,11.7-8.8,23.2-12.9,34.8
				c-18.3,52.4-34.3,107.2-70.3,150.8c-33.4,40.4-81.5,66.2-129.5,85.5c-45.7,18.4-93.7,30.2-142,39.7
				c-49.5,9.8-99.9,16.3-148.8,28.6c-51.3,12.9-97.3,39.2-141.2,68c-22.4,14.7-44.2,30.4-65.9,46.1c-21.1,15.3-42.2,30.5-61.5,48.1
				c-9.4,8.5-18.4,17.5-27,26.9c-3.9,4.3,2.4,10.7,6.4,6.4c35.5-38.9,79.2-68.8,122.1-98.9c21.6-15.1,43.5-29.7,66.2-43.1
				c22.6-13.3,46.2-26.4,70.9-35.3c24.6-8.9,50.4-14,76-18.8c24.4-4.6,48.9-8.8,73.4-13.3c48.1-8.8,96.2-18.7,142.6-34.3
				c46.6-15.6,92.7-36.9,131.7-67c42.4-32.8,67.7-81.1,85.9-130.4c9.4-25.3,16.9-51.4,26.9-76.4c2-4.9,4.4-9,5.6-14.1
				c1.6-6.7,5.8-12.7,8.6-19c5.1-11.2,10.2-22.3,16-33.2c12-22.8,25.8-44.6,41.8-64.8c7.7-9.8,14.5-19.8,22.8-29.2
				c7.9-8.9,16-17.6,24.5-26c35.8-35.2,77.8-60.3,127.4-70.3c53.2-10.8,108.3-5.3,161.5,2.5c12.7,1.9,25.4,3.9,38.1,5.9
				C1606.6,185.5,1609.1,176.8,1603.4,175.9L1603.4,175.9z"/>
		</g>
	</g>
	<g>
		<g>
			<path class="st2" d="M1054.8,626.6c-51.3,35.4-92.4,84.2-119.6,140.2c-15,30.8-25.7,63.5-31.3,97.2c-2.9,17.5-5.2,35.3-5.2,53.1
				c0,18.3,1.8,36.4,2.8,54.6c1.1,20,1.3,39.9-3.7,59.4c-4.9,19-14.9,34.7-24.5,51.5c-2.9,5,4.9,9.6,7.8,4.5
				c8.1-14.2,16.9-27.7,22.3-43.2c5.3-15.5,7.7-31.8,7.8-48.2c0.2-18.6-1.7-37.1-2.7-55.6c-1.1-18.1-0.9-36,1.3-54
				c7.8-65.6,33.3-128.3,74.1-180.4c21.5-27.4,46.9-51.6,75.6-71.4C1064,631.1,1059.6,623.3,1054.8,626.6L1054.8,626.6z"/>
		</g>
	</g>
	<g>
		<g>
			<path class="st2" d="M1089.7,587.7c-1.3,17.1-10,32.2-17.8,47.1c-7.9,15.2-15,30.8-21,46.8c-12.2,32.6-19.9,67.2-20.3,102.1
				c-0.4,35,9.8,68.7,13.1,103.3c3.3,35-3.8,69.9-18.2,101.8c-15.6,34.7-38.7,65.2-64,93.3c-3.9,4.3,2.5,10.7,6.4,6.4
				c45.4-50.1,84.8-111.2,85.8-181c0.5-35.8-10.7-70.4-13.4-105.9c-2.7-35.9,3.9-72.1,15.3-106c6.4-19,14.5-37.4,23.7-55.2
				c8.7-16.8,18-33.3,19.4-52.5C1099.2,581.9,1090.2,582,1089.7,587.7L1089.7,587.7z"/>
		</g>
	</g>
	<g>
		<g>
			<path class="st2" d="M1104.6,556.1c0.4,70.1,0.8,141.2-16.1,209.7c-14.2,57.7-40.2,112.3-75.5,160.1c-19.9,27-43,51.6-68.5,73.4
				c-4.4,3.8,2,10.1,6.4,6.4c45.9-39.3,83.7-87.9,110.9-141.9c29.2-58,44.1-120.6,49.1-185.2c3.1-40.7,3-81.7,2.7-122.5
				C1113.6,550.3,1104.6,550.3,1104.6,556.1L1104.6,556.1z"/>
		</g>
	</g>
	<g>
		<g>
			<path class="st2" d="M916.8,725.6c-18.5,46.2-31.4,94.9-35,144.6c-1.7,24.2-1.1,48.5,2.2,72.5c1.7,12.4,4.2,24.7,7.5,36.7
				c3.2,11.8,7.5,23.2,10.8,35c5.7,20.9,7,53.3-17.9,62.9c-5.4,2.1-3,10.8,2.4,8.7c18.7-7.2,28.1-26.9,28.4-46.1
				c0.2-12.8-3.3-25.4-7.1-37.5c-3.9-12.4-8-24.7-10.9-37.5c-11.3-50.4-8.7-103,2.3-153.2c6.2-28.6,15.2-56.5,26-83.7
				C927.7,722.6,919,720.2,916.8,725.6L916.8,725.6z"/>
		</g>
	</g>
	<g>
		<g>
			<path class="st2" d="M925.2,734.1c0.9-19.7,17.7-36.9,37.4-38.3c5.7-0.4,5.8-9.4,0-9c-24.7,1.7-45.2,22.5-46.4,47.3
				C916,739.9,925,739.9,925.2,734.1L925.2,734.1z"/>
		</g>
	</g>
	<g>
		<g>
			<path class="st2" d="M1586.4,156.2c-13.2-21-33.4-35.6-55.2-46.9c-11.4-5.9-23.3-10.4-35.4-14.5c-13.4-4.6-27.3-7.2-41.3-9
				c-28.8-3.7-59.1-6.5-87.8-1.4c-5.9,1-12.3,2.1-17.8,4.7c-5.4,2.5-11.3,4.1-16.9,6.5c-11.3,5-21.7,12-30.7,20.4
				c-4.5,4.2-7.6,8.6-11.3,13.3c-4.5,5.6-9.7,10.7-14.2,16.4c-8.1,10.2-15.5,20.9-22.8,31.7c-3.9,5.7-7.7,11.5-11.7,17.1
				c-4,5.5-9.1,10-13.3,15.4c-3.6,4.7-6.1,10.2-9,15.4c-3.7,6.5-8.3,12.4-12.5,18.5c-33.3,48-64.2,97.7-93.1,148.4
				c-7.3,12.7-15.4,24.9-22.4,37.8c-7.1,13-14.1,26-20.9,39.1c-14,26.9-27.8,53.9-40.7,81.3c-26.2,55.4-45.3,115.9-83.7,164.7
				c-30.1,38.2-72.6,63.5-118.6,77.9c-45.7,14.3-93.6,19.2-141,24.2c-53.9,5.7-107.9,11.8-159.4,29.6c-51.8,17.9-101,43-144,77.3
				c-10.4,8.3-20.3,17-29.9,26.2c-4.2,4,2.2,10.4,6.4,6.4c39-37.7,85.4-67.3,135.4-88c26.6-11,53.8-20.4,81.9-26.7
				c27.1-6.1,54.6-9.7,82.1-12.8c89.6-10.1,187.2-14.6,260.2-74.3c43.8-35.8,69.2-87.8,91.3-138.7c12-27.7,23.9-55.4,37.3-82.5
				c13.2-26.7,26.6-53.3,40.6-79.6c13.7-25.6,28.7-50.2,43.3-75.2c14.4-24.8,29.4-49.4,44.9-73.6c7.7-12.1,15.6-24,23.6-35.9
				c8.2-12.2,17.5-24,25.3-36.6c2.9-4.8,5.1-10,8-14.7c3.6-5.8,9-10.1,13.3-15.4c8.3-10.4,15.1-22.1,22.8-33
				c7.9-11.3,16.4-22.2,25.7-32.4c3.8-4.2,6.6-8.9,10.7-12.9c4.8-4.7,10.1-9,15.7-12.7c5.1-3.3,10.4-6.3,16-8.6
				c5.3-2.2,10.9-3.5,16.1-6c13-6.1,30.2-6.3,44.3-6.3c28.5-0.1,58.8,2.2,86.3,9.7c6.8,1.8,13.5,4.1,19.9,6.9
				c5.9,2.6,11.9,4.1,17.7,7c10.9,5.4,21.6,11.4,31.3,18.7c10.2,7.6,19,16.8,25.8,27.6C1581.7,165.6,1589.5,161.1,1586.4,156.2
				L1586.4,156.2z"/>
		</g>
	</g>
	<g>
		<g>
			<path class="st2" d="M1599.9,173.4c-18.3-15.4-39.9-25.6-62.6-32.8c-23.9-7.6-48.8-13-73.6-16.5c-26.2-3.6-53-4.2-78.7,2.5
				c-22.5,5.8-43.2,17-61.8,30.7c-40.8,30.1-73.9,70.7-106.1,109.4c-17.5,21-35,42.2-51.7,63.8c-7.8,10-15.1,20.5-20.4,32.1
				c-5.4,11.8-8.4,24.3-11.4,36.8c-22.1,92-79.2,173.1-161,221.6c-42.4,25.1-90.3,41.3-139.3,46.8c-52.2,5.9-104.7-5.9-156.5,5
				C574.9,694.4,498.8,771,411,821c-11,6.3-22.3,12.1-33.8,17.5c-5.2,2.4-0.7,10.2,4.5,7.8c92.2-43,165.1-120.5,261.9-154.6
				c23.7-8.4,48.4-13.8,73.6-14.8c27.4-1,54.7,2.6,82.1,2.2c47.9-0.7,95.4-11.3,139.3-30.5c84.4-36.9,151.4-106.9,186.3-192
				c9-22,14.4-44.6,20.5-67.5c3.5-13.2,8.4-25.5,15.7-37c6.9-10.8,15.1-20.7,23.1-30.7c33.7-41.8,67.4-84.2,105.3-122.4
				c34.2-34.5,74.5-64.2,124.5-68c26.9-2,53.7,2.1,79.9,7.7c23.9,5.2,48.1,11.2,70.2,22.1c10.5,5.2,20.5,11.4,29.5,19
				C1597.9,183.5,1604.3,177.2,1599.9,173.4L1599.9,173.4z"/>
		</g>
	</g>
	<g>
		<g>
			<path class="st2" d="M1120.8,565c-6,38.9,2,77.5,10.4,115.5c8.1,36.6,16.6,74,9.9,111.6c-3,16.9-8.9,33.3-18.1,47.8
				c-4.2,6.5-10.3,12-14.1,18.7c-2.5,4.4-6.6,8-10,11.7c-3.4,3.7-6.8,7.3-10.2,11c-25,27.3-48.9,55.7-69.7,86.3
				c-25,36.8-47.3,76.2-64.8,117.1c-0.8,1.8,1.8,3.3,2.6,1.5c31-72.3,75.4-138.1,128.1-196.3c6.3-7,12.8-13.9,19.2-20.8
				c5.7-6.1,10.4-12.6,15.5-19.2c9.9-12.9,17-27.7,21.4-43.4c9.5-34.4,5.1-69.5-1.9-103.8c-9.3-45-22.4-90.5-15.3-136.8
				C1124,563.9,1121.1,563.1,1120.8,565L1120.8,565z"/>
		</g>
	</g>
	<g>
		<g>
			<path class="st2" d="M1604,190c13-24.8,46.1-32.7,70.9-22.1c27.3,11.6,43.7,42.4,49.3,70.2c1.7,8.2,3.3,16.9,3.5,25.3
				c0.2,8.6,0.2,17.2,0.4,25.7c0.3,17.8,0.6,35.5,0.9,53.3c0.7,35.1,1.4,70.3,2,105.4c0.3,17.8,2,36.3-0.8,53.9
				c-2.6,16.2-7.3,32-12.3,47.6c-5,15.9-10.3,31.7-14.2,47.9c-3.9,16.2-6.3,32.7-7.7,49.3c-2.9,33.6-2,67.4-3.6,101.1
				c-0.8,17.3-2.2,34.5-6,51.5c-3.6,16.2-7.4,32.4-10.7,48.7c-3.3,16-8,31.8-8.5,48.3c-0.5,16.9,2.9,33.3,5.4,50
				c5.2,34.3,7,69.5,1.2,103.9c-1.4,8.4-3.3,16.8-5.6,25c-0.5,1.9,2.4,2.7,2.9,0.8c9.4-33.7,11-68.7,7.8-103.4
				c-1.7-18-5.3-35.6-7.4-53.5c-1-8.5-1.5-17.1-1-25.7c0.5-9.6,2.7-18.7,4.8-28.1c3.8-16.8,6.7-33.9,10.8-50.7
				c4-16.5,7.2-32.8,8.5-49.7c2.7-35,1.6-70.1,3.7-105.1c1.1-18.2,3.1-36.3,6.9-54.1c3.7-17.3,9.1-34.2,14.5-51
				c5.2-16.2,10.3-32.5,13.2-49.3c3-17.3,1.7-35,1.4-52.5c-0.6-36.5-1.4-72.9-2.1-109.4c-0.4-18.4-0.7-36.8-1-55.3
				c-0.1-9.1,0-18.3-0.4-27.5c-0.4-7.8-1.9-15.8-3.5-23.4c-5.4-26.7-20.5-55.6-45-69.2c-21.5-11.9-50.4-10.1-69.4,6.1
				c-4.7,4-8.5,8.9-11.3,14.4C1600.5,190.2,1603.1,191.7,1604,190L1604,190z"/>
		</g>
	</g>
	<g>
		<g>
			<path class="st2" d="M1609.2,202.8c22.6-10.1,49.8-9.1,70.8,4.5c25.2,16.2,35.3,47.3,35.8,76c0.5,32.4-7.2,65.1-13.4,96.7
				c-6.4,32.3-12.7,64.7-13.1,97.8c-0.4,32.5,6.6,64.2,15.6,95.2c9,30.8,18,62.2,17.7,94.6c-0.3,33.2-8.9,66.3-15.2,98.7
				c-6.2,31.9-12.4,63.7-18.6,95.6c-6.3,32.3-12.1,64.6-18.8,96.8c-6.5,31.7-13.4,63.3-19.3,95.1c-1.5,8.2-3,16.4-4.3,24.6
				c-0.3,1.9,2.6,2.7,2.9,0.8c5.6-33.1,12.5-66,19.3-98.8c7-33.6,13.3-67.3,19.9-101c6.4-32.8,12.8-65.5,19.1-98.3
				c6.4-32.9,14.2-65.8,17.1-99.3c2.8-32.7-3.8-64-12.7-95.3c-9.4-33.1-19.3-66.2-19.7-101c-0.4-35.2,6.1-69.5,12.8-103.9
				c6.3-31.9,14-65,13.7-97.6c-0.3-27.1-8.7-56.3-30.3-74.2c-17.9-14.8-42.2-19.9-64.8-15c-5.5,1.2-10.9,3.1-16.1,5.4
				C1605.9,201,1607.5,203.5,1609.2,202.8L1609.2,202.8z"/>
		</g>
	</g>
	<g>
		<g>
			<path class="st2" d="M1618.9,227.4c12.3-1.8,25.6-3.5,37.7,0.4c14.2,4.6,20.1,17.2,25.9,29.7c12.8,27.3,25.3,55.1,32.2,84.5
				c3.4,14.6,5.4,29.6,5.1,44.6c-0.2,7.2-0.9,14.4-2.1,21.5c-1.2,7-2.5,14.1-1.9,21.2c1.1,11.5,8.3,20.5,14.9,29.4
				c3.7,4.9,7.4,10,9.6,15.8c2.5,6.5,3,13.4,2.9,20.3c-0.1,13.6-2.2,27.8,4.6,40.2c5.9,10.8,19.3,20.7,17.3,34.2
				c-0.3,1.9,2.6,2.7,2.9,0.8c1.6-11.1-5.5-19.5-11.7-27.8c-3.9-5.2-7.5-10.5-9.1-16.8c-1.9-7.2-1.5-14.9-1.3-22.3
				c0.5-13,0.4-25.3-6.4-36.8c-6.4-10.7-16.7-19.8-19.9-32.2c-2.2-8.6-0.4-17.4,1.1-26c1.2-7.1,1.9-14.2,2.1-21.4
				c0.3-15-1.6-29.9-5-44.5c-7-30.3-20-58.9-33.1-87c-5.9-12.6-12.1-24.8-26-29.8c-12.9-4.7-27.3-2.8-40.6-0.9
				C1616.2,224.8,1617,227.7,1618.9,227.4L1618.9,227.4z"/>
		</g>
	</g>
	<g>
		<g>
			<path class="st2" d="M1629.8,273.5c7.4,1.8,13.4,5.8,19.4,10.2c5.1,3.8,10.4,7.7,14.5,12.6c9.8,11.9,17.2,25.6,22.3,40.1
				c5,14.3,7.7,29,10,44c2.6,16.6,6.3,33.2,9.7,49.7c12.5,61.6,31.2,133.5-4.3,190.9c-15.7,25.5-39.1,46.8-63.5,63.9
				c-23.7,16.6-49.7,29.6-76.4,40.5c-6.1,2.5-10.8,5.6-15.6,10.1c-2.6,2.5-5.4,4.7-8.2,7c-3,2.4-3.9,3.8-5.9,6.8
				c-4.2,6.5-10.3,12.1-15.1,18.2c-4.6,5.8-9,11.7-13.2,17.8c-17.1,24.8-31.2,52-41.2,80.4c-5.3,15-8.1,30.7-9.8,46.4
				c-0.9,7.8-1.5,15.6-2.1,23.5c-0.6,8,0,17.3-2.1,25.1c-0.7,2.7-1.6,4.8-1.8,7.6c-0.3,4.4-0.7,8.7-1.2,13.1
				c-1.1,8.4-2.6,16.8-4.2,25.1c-3,16.2-5.6,32.2-9.9,48.1c-2.1,7.8-4.2,15.7-5.6,23.6c-0.4,1.9,2.5,2.7,2.9,0.8
				c3-16.1,8.4-31.5,11.5-47.6c3.1-16.3,6.1-32.8,8.2-49.2c0.5-4,0.9-8.1,1.2-12.1c0.3-3.8,1.6-6.8,2.2-10.4
				c1.2-7.6,1.2-15.6,1.8-23.3c1.2-16.7,2.6-33.4,6.2-49.8c6.8-31.2,21.9-61.5,38.9-88.3c8.6-13.6,18.2-26.7,28.7-38.9
				c4.8-5.6,9-11.9,14.6-16.4c6.3-5.1,11.4-10.8,19-14.1c52.6-22.4,105.3-51.3,138.7-99.5c17.5-25.2,24.8-53.6,25-84.1
				c0.3-33.8-6-67.1-12.7-100.1c-3.4-16.9-6.2-34.1-10.2-50.9c-3.7-15.6-4.8-31.6-9.1-47.1c-3.8-13.8-9.3-27.2-16.9-39.3
				c-3.6-5.7-7.6-12.1-12.7-16.7c-4.7-4.3-9.6-8.1-14.8-11.9c-5.4-3.9-11.1-7.2-17.6-8.7C1628.7,270.2,1627.9,273.1,1629.8,273.5
				L1629.8,273.5z"/>
		</g>
	</g>
	<g>
		<g>
			<path class="st2" d="M1635.7,320.3c24.2,3.4,41.5,22.1,52.3,42.9c12.9,24.7,18.5,52.6,22.5,79.9c4.4,29.5,5.5,59.3,6.5,89.1
				c1,28.9,2.9,58.6-2.5,87.3c-4.9,25.8-16.9,49-32.6,69.8c-16.7,22-35.9,42-52.7,63.9c-34.8,45.5-62.5,96.2-90.5,146.1
				c-32.6,58.2-68.3,114.8-97.7,174.7c-1.7,3.5,3.5,6.5,5.2,3c26.8-54.6,59-106.4,89-159.2c29.3-51.7,57.3-104.5,92.5-152.6
				c32.2-44,77.1-81,90.8-135.9c7.1-28.4,5.9-58.5,4.9-87.5c-1.1-30-1.9-60.1-5.7-89.9c-3.8-30.5-9.6-61.8-23.4-89.5
				c-11.4-22.9-30.5-44.3-57.1-48.1C1633.6,314,1631.9,319.8,1635.7,320.3L1635.7,320.3z"/>
		</g>
	</g>
	<g>
		<g>
			<path class="st2" d="M1633.5,371.5c19.6,10,35.7,27.5,43.3,48.3c9.4,25.8,10.3,55,12.9,82.1c5.2,54.4,8.4,109.1,7.9,163.7
				c-0.1,13.8-0.7,27.4-3.2,41c-2.3,12.3-5.1,25.2-12,35.8c-12.8,19.8-34.1,31-51.6,46.1c-4.1,3.5-8,7.2-11.6,11.2
				c-3.9,4.3-6.9,9.1-10.7,13.4c-7.1,8.2-13.5,16.8-18.8,26.2c-11.2,19.7-18.4,41.4-24.2,63.2c-1.7,6.4-3.3,12.9-4.8,19.3
				c-0.7,2.9-1.2,6-2.1,8.9c-0.9,2.9-2.9,5.2-3.9,8.1c-2.4,6.8-3.3,14.6-4.7,21.7c-1.5,7.5-3,15-4.4,22.6
				c-5.5,29.3-10.4,58.6-16.4,87.8c-0.8,3.8,5,5.4,5.8,1.6c5.5-26.7,10.1-53.5,15-80.3c2.4-13.2,4.9-26.4,7.7-39.5
				c0.7-3.5,1.3-7.1,2.3-10.5c0.8-2.7,2.6-4.9,3.6-7.5c2.2-5.4,3-11.9,4.4-17.6c5.5-22.6,11.9-45.2,22.3-66.1
				c5.4-10.9,11.9-21.2,19.7-30.5c7.4-8.7,13.9-17.9,22.6-25.5c17.3-15.4,38.4-26.5,52.2-45.4c7.1-9.7,10.6-20.4,13.4-32
				c3-12.8,4.9-25.9,5.2-39c1.2-56.3-1.8-112.6-6.9-168.7c-1.5-15.8-3.1-31.6-4.9-47.4c-1.6-14.7-3.9-30.1-9-44.1
				c-8.1-22.2-24.9-41.2-46-51.9C1633.1,364.6,1630.1,369.7,1633.5,371.5L1633.5,371.5z"/>
		</g>
	</g>
	<g>
		<g>
			<path class="st2" d="M1629.7,444.2c22.3,37.6,33.2,81.2,31,124.9c-0.6,11.1-2,22.2-4.2,33.1c-1.1,5.1-2.2,10.2-3.8,15.2
				c-1.4,4.5-3.8,8.9-4.5,13.3c-0.8,5.1-4.1,10.5-6.3,15.2c-2.4,5.1-4.8,10.1-7.4,15c-5.1,9.8-10.7,19.5-16.5,28.9
				c-11.6,18.8-24.2,37.1-36.4,55.5c-6.4,9.6-12.8,19.2-18.8,29.1c-3,4.9-6.1,9.7-9.2,14.5c-3,4.8-5,9.9-8.1,14.7
				c-25.3,39.4-47.4,80.6-67.2,123c-2.4,5.2-4.5,10-6,15.5c-1.7,6-5.2,11.8-7.6,17.5c-5.1,12.1-9.6,24.4-13.7,36.9
				c-8.3,25.4-14.7,51.4-20.5,77.5c-0.8,3.8,4.9,5.4,5.8,1.6c5.2-23.7,11-47.2,18.2-70.3c3.5-11.3,7.4-22.6,11.7-33.6
				c4.2-10.8,9.8-21.2,13-32.3c1.6-5.6,5-11.2,7.5-16.4c2.6-5.5,5.3-11,8-16.5c5.1-10.4,10.3-20.6,15.7-30.8
				c11.3-21.3,23.4-42.2,36.2-62.5c6.1-9.7,11.2-19.6,17.3-29.3c6.3-9.9,12.4-19.8,18.8-29.6c12.7-19.2,25.9-38.2,38.1-57.8
				c11.9-19.1,22.8-38.7,31.5-59.5c0.8-1.9,1.3-3.4,1.8-5.3c0.4-1.5,0.7-2.1,1.4-3.7c2.1-5.1,3.6-10.7,4.9-16
				c2.5-10.3,4.3-20.7,5.4-31.2c5-48.5-6.1-97.9-30.9-139.8C1632.9,437.9,1627.7,440.9,1629.7,444.2L1629.7,444.2z"/>
		</g>
	</g>
	<g>
		<g>
			<path class="st2" d="M1617.9,490.3c13.9,41.3,4.8,85.1-13.7,123.4c-17.6,36.4-43.5,67.1-68.7,98.3
				c-25.8,31.8-51.2,64.6-67.2,102.5c-8.2,19.4-14,40-18.4,60.5c-1.1,4.9-2,9.9-2.9,14.8c-1,5.7-3.3,10.9-4.5,16.5
				c-2.3,10.1-4,20.4-6,30.6c-4.7,23.9-11,47.5-16.3,71.2c-5.4,24.3-10.7,48.7-16.8,72.9c-0.9,3.7,4.8,5.3,5.8,1.6
				c10.8-42.9,19.7-86.3,30-129.4c2.5-10.5,4.3-21.1,6.3-31.6c1-5.2,2-10.4,3.2-15.5c1.4-5.6,3.4-10.8,4.4-16.5
				c3.8-20.9,9.4-41.5,16.4-61.5c27.8-79.5,99.4-132.1,137.2-205.9c21-41,32.1-88.6,17.1-133.4
				C1622.5,485.1,1616.7,486.7,1617.9,490.3L1617.9,490.3z"/>
		</g>
	</g>
	<g>
		<g>
			<path class="st2" d="M1632.8,415.9c12,20.7,21.2,42.3,31,64.1c5,11.3,8.5,23,12.8,34.6c4.1,11,7.6,22.1,10.9,33.4
				c3.3,11.4,6.9,22.8,9.3,34.5c2.4,12,3.9,24.2,4.7,36.4c1.4,22.8,0,45.2-5.4,67.4c-21,86.3-85.4,153.2-119.7,233.7
				c-20.9,49.2-26.4,102.5-25.2,155.5c0.1,3.9,6.1,3.9,6,0c-1.1-49.2,3.4-98.8,21.3-145c16.4-42.1,41.8-80.5,65.4-118.8
				c22.4-36.5,44.3-74.2,55.9-115.8c12.4-44.3,10.3-91.5-2.4-135.5c-14.8-51-32.6-101.5-59.3-147.6
				C1636.1,409.5,1630.9,412.6,1632.8,415.9L1632.8,415.9z"/>
		</g>
	</g>
	<g>
		<g>
			<path class="st2" d="M1620.9,213c5.6-12.2,18.9-19.8,32-20.9c14.4-1.2,27.7,4.5,38.1,14.3c18.1,16.9,24.9,41.9,26.7,65.9
				c1.2,15.4,0.5,31,0.1,46.4c-0.4,16.3-1.2,32.5-2.2,48.7c-2.1,32.7-5.2,65.3-8.9,97.9c-7.4,65.1-17,129.9-24.5,195
				c-7.5,65.1-12.7,131-12.5,196.6c0.1,32.8,2.2,65.6,4.8,98.2c1.3,16.1,2.7,32.1,4.4,48.2c0.9,8.4,1.8,16.9,2.8,25.3
				c0.4,3.6,0.5,7.1,0.5,10.7c0,4.1,0.8,8,1.2,12c0.9,8.1,1.1,16.2,1.8,24.3c0.3,3.8,6.3,3.9,6,0c-0.7-8.4-0.9-16.9-1.9-25.3
				c-0.9-7.9-0.9-15.8-1.8-23.6c-2-17.1-3.7-34.2-5.3-51.3c-3-33.5-5.4-67.1-6.2-100.7c-0.8-34.2,0.4-68.5,2.6-102.6
				c2.1-34,4.7-68,8.5-101.9c7.6-68,17.7-135.8,25.5-203.8c3.8-33.5,7.1-67.1,9.2-100.8c1-16.9,1.8-33.8,2.2-50.7
				c0.4-15.6,1-31.3-0.6-46.8c-2.4-23.7-9.6-47.8-27.1-64.8c-18.7-18.2-47.7-23.6-69.3-7c-4.8,3.7-8.7,8.3-11.2,13.9
				C1614.1,213.5,1619.3,216.5,1620.9,213L1620.9,213z"/>
		</g>
	</g>
	<g>
		<g>
			<path class="st2" d="M1618.7,221.2c23.5-11.6,51.6,1,65.8,21.2c15.7,22.2,17.8,50.7,16.5,77c-0.8,15.5-2.7,31-3.6,46.6
				c-0.8,15.5-0.5,31-1.1,46.4c-0.6,15.6-2.6,31.1-6.6,46.3c-4,15.3-9.4,30.2-14.2,45.3c-19.5,60.6-34.2,122.5-48.3,184.5
				c-6.9,30.6-14.6,61.1-19.2,92.2c-4.5,30.3-4.3,61.1,1.3,91.2c6.4,34.2,18.3,67,24.9,101.2c6.7,35,6.8,70.5,2.2,105.8
				c-0.5,3.8,5.5,3.8,6,0c4.1-31.3,4.5-62.9-0.2-94.2c-4.7-32.1-15.2-63-22.8-94.5c-7.6-31.7-10.6-63.7-7.1-96.2
				c3.5-32.8,11.7-65.1,19.1-97.2c14.7-64.2,29.6-128.4,49.8-191.2c4.9-15.1,10.2-30,14.2-45.3c4-15,6-30.5,6.7-46
				c0.7-16.1,0.3-32.2,1.2-48.3c0.9-16.2,3-32.3,3.7-48.5c1.1-26-1.5-53.9-16.1-76.2c-12.7-19.4-35.7-33.1-59.4-30.2
				c-5.6,0.7-10.8,2.4-15.9,4.9C1612.2,217.7,1615.3,222.9,1618.7,221.2L1618.7,221.2z"/>
		</g>
	</g>
	<g>
		<g>
			<path class="st2" d="M1619.1,151.3c31.5-5.9,62.2,10.5,82.4,33.9c20.6,23.9,29.7,54.8,31.5,85.9c2,35.9-4.7,71.6-10.8,106.9
				c-6.1,35.3-12.5,70.6-21.6,105.2c-8.7,33.3-20.3,65.3-35.2,96.3c-7.1,14.9-14.1,29.8-18.6,45.7c-4.9,17.2-7.6,35-11,52.6
				c-6.8,34.6-15.1,68.9-25.2,102.7c-9.7,32.3-21.8,64.5-23.6,98.5c-0.8,16,0.9,32.1,6.2,47.4c5.3,15.5,14.1,29.5,23.6,42.9
				c18.2,25.6,39.5,50.2,48,81.2c2.3,8.5,3.8,17.2,5.1,25.9c0.6,3.8,6.4,2.2,5.8-1.6c-2.5-16.4-6-32.2-13.1-47.3
				c-6.8-14.5-16-27.8-25.5-40.7c-9.9-13.5-20.3-26.8-28.6-41.4c-8.5-15.1-14-31.6-15.2-48.9c-2.6-35.6,9.6-70.1,19.9-103.5
				c10.6-34.2,19.4-68.9,26.6-104c3.6-17.9,6.4-35.9,10.7-53.7c4.2-17.2,11-33.3,18.6-49.3c14.9-31.3,27.2-63.1,36.2-96.6
				c9.4-35.1,16.1-71,22.3-106.8c6.2-35.5,13.1-71.4,11.7-107.5c-1.2-30.2-8.6-60.5-26.5-85.3c-17.2-23.7-43.3-42.4-73-45.3
				c-7.4-0.7-14.8-0.2-22.1,1.1C1613.7,146.2,1615.3,152,1619.1,151.3L1619.1,151.3z"/>
		</g>
	</g>
	<g>
		<g>
			<path class="st2" d="M1618.6,235.3c43.7,31.5,76.6,77.5,81.3,132.1c2.7,30.9-2.7,61.9-11.2,91.6c-8.6,30.4-20.1,60.2-31.5,89.6
				c-11.4,29.4-25.6,57.7-39.3,86c-13.8,28.4-29.5,55.8-45.1,83.3c-15.8,27.9-31.8,55.6-47.8,83.4c-14.7,25.5-29.7,51-42.2,77.7
				c-13.6,29.1-23.5,59.6-26.1,91.7c-2.8,34.6,1.5,69.2,9.7,102.7c1.4,5.6,10.1,3.2,8.7-2.4c-7.5-30.4-11.5-61.5-9.9-92.8
				c1.6-30.3,9.6-59.3,21.9-87c12-27.2,27-52.9,41.8-78.6c16-27.8,32-55.6,47.9-83.5c15.9-28,32.2-55.9,46.4-84.8
				c14-28.6,27.7-57.4,40.1-86.8c6.1-14.4,11.3-29.2,16.7-44c5.4-14.9,10.8-29.7,15.3-44.9c8.9-29.5,15.8-61.2,14.4-92.2
				c-0.8-16.6-3.2-33.1-8.6-48.8c-4.7-13.6-11-26.7-18.7-38.9c-15.4-24.2-36-44.5-59.2-61.2C1618.5,224.1,1614,231.9,1618.6,235.3
				L1618.6,235.3z"/>
		</g>
	</g>
	<g>
		<g>
			<path class="st2" d="M1635.9,305c13.1-4.6,24.7,4.5,29.9,16.3c4.9,11.3,6.3,24.2,8.5,36.2c1.1,6.3,2.2,12.7,3.2,19.1
				c1.1,7,1.4,14,2.7,20.9c2.7,14.1,4.5,28.3,6.3,42.5c7.1,56.1,11,112.9,4.7,169.2c-1.6,14.4-3.9,28.6-6.8,42.8
				c-2.7,12.8-6.6,24.9-10.2,37.5c-7.3,25.5-18,49.8-29.4,73.7c-23.4,48.9-52.9,94.5-79.5,141.6c-14.8,26.3-28.5,53.2-40.2,81
				c-11.6,27.7-22.5,55.7-25.5,85.9c-0.6,5.8,8.4,5.7,9,0c2.8-28,13-54.4,23.8-80.1c10.9-26,23.5-51.2,37.2-75.9
				c27.2-48.9,58-95.9,82.3-146.3c11.7-24.3,22.7-49,30.4-74.9c1.6-5.5,2.3-12.2,4.7-17.4c2.8-6,4-12.5,5.4-18.9
				c3.1-14.3,5.5-28.8,7.3-43.3c7.1-58.2,3.3-117-4.1-174.9c-2-15.9-4.4-31.7-7.1-47.5c-1.2-7.5-1.7-15.2-2.9-22.8
				c-1.3-8-2.7-15.9-4.2-23.8c-2.3-12.9-4.5-26.9-12.7-37.5c-8.3-10.7-21.8-16.5-35-11.9C1628.1,298.2,1630.4,306.9,1635.9,305
				L1635.9,305z"/>
		</g>
	</g>
	<g>
		<g>
			<path class="st2" d="M1642.8,356.1c12.3-4.5,21.8,7.7,26.7,17.5c5.1,10.3,7.9,22.1,10.8,33.2c6.8,25.7,11.5,52,13.8,78.5
				c4.6,52.6,0.2,105.8-13.1,156.9c-13.3,51.1-35.6,99.2-56,147.8c-9.9,23.7-19.4,47.6-27.2,72c-7.4,23.2-14.8,47.3-16.1,71.8
				c-1.5,27.8,9.1,52.1,24,75c14.9,23,33.4,44.6,42.1,71c1.8,5.5,10.5,3.1,8.7-2.4c-15.5-47-63.6-81.2-65.8-132.8
				c-1.1-25.7,6.9-51.4,14.4-75.7c7.8-25.4,17.6-50.2,27.9-74.8c20.8-49.8,43.8-99,57.2-151.5c13.4-52.5,17.7-107.4,12.5-161.3
				c-2.8-29.5-8.3-58.7-16.6-87.2c-3.5-12.2-7.1-24.7-15-34.8c-7.3-9.4-18.7-16.3-30.7-11.9C1635.1,349.4,1637.4,358.1,1642.8,356.1
				L1642.8,356.1z"/>
		</g>
	</g>
	<g>
		<g>
			<path class="st2" d="M1618.8,247.7c13.1,2,22.2,11.3,29.5,21.8c8.3,12,15.6,24.6,22.1,37.6c12.7,25.7,21.6,53.1,27,81.2
				c11,56.8,7.5,115.6-4.8,171.9c-13.8,63-37.7,123.2-63.7,182c-6.6,14.8-13.2,29.6-20,44.4c-6.4,14.1-13.3,28.1-18,42.9
				c-4.4,13.8-6.8,28.6-3.9,43c2.6,13.3,10.1,24.6,19,34.6c9.2,10.3,19.8,19.1,29.4,29c9.9,10.3,18.6,21.6,25.8,33.9
				c13.7,23.4,21.8,50,22.3,77.2c0.1,6.7-0.2,13.5-1,20.2c-0.6,5.7,8.4,5.7,9,0c3-26.9-1.1-54.3-11.4-79.3
				c-10.8-26.3-27.7-48.5-48.3-68.1c-10.1-9.6-20.8-19-28.4-30.8c-8.4-13.2-10.4-28.3-7.5-43.5c3-15.8,9.7-30.6,16.3-45.1
				c6.9-15,13.7-30.1,20.5-45.2c26.5-59.5,51.4-120.2,66.4-183.8c13.4-57,18.2-116.2,8.9-174.3c-4.6-28.4-12.6-56.2-24.2-82.5
				c-6-13.5-12.9-26.6-20.7-39.2c-6.8-10.8-14-22-24.5-29.6c-5.2-3.7-11.1-6.1-17.4-7.1C1615.5,238.2,1613.1,246.9,1618.8,247.7
				L1618.8,247.7z"/>
		</g>
	</g>
	<g>
		<g>
			<path class="st2" d="M1634.4,400.3c35.9,24.4,50.2,69.4,55,110.5c5.5,46.8-0.9,94.4-8.8,140.6c-8,46.4-19.2,92.1-31.7,137.4
				c-12.7,45.8-26.3,91.6-40.7,136.9c-15.6,49.1-33.2,98.1-38,149.7c-0.5,5.8,8.5,5.7,9,0c4.5-47.4,20.1-92.6,34.6-137.6
				c14.9-46.1,28.6-92.7,41.7-139.3c13-46.2,24.6-92.8,33-140c8.2-46.6,15.2-94.7,10.6-142.1c-4.5-46.3-19.6-96.4-60-123.8
				C1634.1,389.3,1629.6,397,1634.4,400.3L1634.4,400.3z"/>
		</g>
	</g>
	<g>
		<g>
			<path class="st2" d="M1601.9,520.7c1.6,40.6-1.7,81.2-10.5,120.9c-4.4,19.8-10,39.3-17,58.4c-6.7,18.5-14,37.1-22.4,54.9
				c-16.1,34.1-38.1,65-63.1,93.2c-3.1,3.5-6.2,6.9-9.4,10.3c-1.4,1.5-3.2,3-4.3,4.7c-0.9,1.4-0.6,3-1.2,4.4
				c-1.6,3.5-5.3,6.9-7.5,10.1c-2.8,3.9-5.5,8-8,12.1c-9.4,15.3-16.9,31.9-21.2,49.4c-5.3,21.6-4.7,44.3-2.9,66.3
				c0.9,11.4,2.8,22.7,3.4,34.2c0.6,11.9,0.5,23.8,2,35.6c0.7,5.7,9.7,5.7,9,0c-1.3-10.2-1.4-20.5-1.8-30.8
				c-0.4-10.5-1.8-20.8-2.9-31.3c-2-20.2-3.5-41.8-0.1-61.9c3.1-18.1,9.8-35.2,18.8-51.1c4.5-7.9,9.5-15.4,15-22.7
				c1.4-1.8,3.1-3.6,4.2-5.5c0.8-1.4,0.5-3.1,1.1-4.3c0.5-0.9,3.1-3,3.9-3.9c1.8-1.9,3.5-3.8,5.3-5.8c24.9-27.7,47.3-57.9,64-91.3
				c8.7-17.3,15.7-35.5,22.7-53.5c7.4-18.9,13.6-38.3,18.4-58.1c10.7-43.8,15-89,13.3-134C1610.6,515,1601.6,514.9,1601.9,520.7
				L1601.9,520.7z"/>
		</g>
	</g>
	<g>
		<path class="st3" d="M1604.9,186.5c8.5,36,17,72.1,25.5,108.1c4.9,20.8,7,40.5,5.8,61.8c-1,16.9-3.1,34.8-6.3,51.5
			c-4.9,25.2-5.9,51.1-10.8,76.3c-9.8,50.7-34.7,97.2-59.3,142.7c-13.7,25.4-27.6,51.1-47.4,72.3c-44.2,47.3-110.9,65.5-174,81.7
			c-24.5,6.3-50.1,12.6-74.8,7.1c-35-7.7-60.3-36.9-82.9-64.5c-12.4-15.1-24.9-30.3-34.6-47.2c-29.1-50.8-30.7-113.4-16.4-170
			c14.2-56.6,42.9-108.5,72.1-159.2c35.3-61.2,75.8-125.2,140.8-154.1c37.9-16.9,80.4-20,121.9-23.2c47.9-3.7,99.5-7,140.5,17.7"/>
	</g>
	<g>
		<path class="st4" d="M1555.9,620.9c-14.4,16.5-35.1,26.8-55.8,34.9s-46.1,21-65.4,31.9c-5.8,3.3-24.1,27.8-28,33.5
			c-20.7,30.3-34.7,59.2-35.5,80.3c0,1.1,0.9,2,1.9,1.9c8.5-0.7,29.3-7.3,34.6-10.1c23.9-12.5,43.5-24.8,63.4-42.6
			c18.3-16.4,35.6-49.9,48.8-70.4c11.4-17.7,22.2-35.7,32.9-53.7c1-1.6-0.9-3.4-2.5-2.5l0,0"/>
	</g>
	<g>
		<path class="st4" d="M1140.6,506.8c7.8,12.7,8.4,27.8,12.4,41.9c7,24.8,24.7,46.2,32.8,70.8c6.9,20.7,6.6,43,2.7,64.3
			c-3.9,21.3-11.4,42-18.9,62.6c-8.8-9.2-15.1-20-21.3-30.7c-8.1-13.9-16.2-27.8-21.4-42.7c-14.1-40.4-5.7-84.1,2.7-125.7
			c2.9-14.4,5.9-28.9,11.2-42.8"/>
	</g>
	<g>
		<g>
			<path class="st2" d="M1601.9,519.1c-19.1,50.5-47.1,98-77,142.8c-13.5,20.2-28.5,39.4-47.5,54.8c-19.6,15.8-42.9,27-66.2,36.3
				c-24.8,9.9-50.1,19.9-76.1,26.2c-26.1,6.3-52.3,5.8-77.6-3.5c-46.5-17.1-82.4-57.3-104.4-100.6c-13.4-26.5-22.2-55.8-24-85.6
				c-1.9-31.5,4.1-62.3,10.7-93c1.2-5.6-7.5-8.1-8.7-2.4c-6.1,28.2-11.8,56.7-11.4,85.7c0.4,27.6,6.5,55,16.9,80.5
				c19.2,47.1,52.9,90.7,98.3,114.9c23.7,12.7,50.5,19.2,77.5,16.9c27.3-2.4,53.5-12.3,78.9-22c25.1-9.5,50.3-19.1,73.2-33.4
				c21.3-13.3,39-30.6,54.2-50.6c18.8-24.7,34.9-51.9,50.3-78.8c15.8-27.6,30.2-56,41.5-85.8C1612.6,516,1603.9,513.7,1601.9,519.1
				L1601.9,519.1z"/>
		</g>
	</g>
	<g>
		<g>
			<path class="st2" d="M1131.5,516.8c5.8,0,5.8-9,0-9C1125.7,507.8,1125.7,516.8,1131.5,516.8L1131.5,516.8z"/>
		</g>
	</g>
	<g>
		<g>
			<path class="st2" d="M1596.8,185.1c32.7,81.7,43,172.9,26.5,259.6c-4.6,24.2-11.3,47.9-20.1,71c-2.1,5.4,6.6,7.8,8.7,2.4
				c31.8-83.7,35.8-176.6,16-263.6c-5.6-24.5-13.1-48.4-22.4-71.7C1603.3,177.4,1594.6,179.7,1596.8,185.1L1596.8,185.1z"/>
		</g>
	</g>
	<g>
		<g>
			<path class="st2" d="M1429.5,398.4c-0.7-6.6,0.9-12.9,5.1-18.2c1.2-1.5-0.9-3.6-2.1-2.1c-4.6,5.8-6.8,12.9-6,20.3
				C1426.7,400.3,1429.7,400.3,1429.5,398.4L1429.5,398.4z"/>
		</g>
	</g>
	<g>
		<g>
			<path class="st2" d="M1433.6,397.7c-0.4-3.1-0.4-6.1,0.3-9.2c0.6-2.8,1.7-7,4.4-8.5c1.7-1,0.2-3.6-1.5-2.6
				c-6.1,3.5-7,14.1-6.2,20.3C1430.8,399.6,1433.8,399.6,1433.6,397.7L1433.6,397.7z"/>
		</g>
	</g>
	<g>
		<g>
			<path class="st2" d="M1437.8,396.1c-0.1-6.7,0.1-15.7,7.8-18.1c1.8-0.6,1.1-3.5-0.8-2.9c-9.2,2.8-10.2,12.8-10,21
				C1434.8,398,1437.8,398,1437.8,396.1L1437.8,396.1z"/>
		</g>
	</g>
	<g>
		<g>
			<path class="st2" d="M1440.8,395.3c-1.1-6.7,3.4-12.4,10-13.5c1.9-0.3,1.1-3.2-0.8-2.9c-8.4,1.3-13.4,9-12.1,17.2
				C1438.3,398,1441.1,397.2,1440.8,395.3L1440.8,395.3z"/>
		</g>
	</g>
	<g>
		<g>
			<path class="st2" d="M1443.5,396.6c-0.8-4.4,4.8-8.5,8-10.6c3.4-2.2,7.4-2.6,11.3-2.9c1.9-0.2,1.9-3.2,0-3
				c-5.7,0.5-10.6,1.4-15.2,5.1c-3.9,3.2-8.1,6.7-7,12.2C1440.9,399.3,1443.8,398.5,1443.5,396.6L1443.5,396.6z"/>
		</g>
	</g>
	<g>
		<g>
			<path class="st2" d="M1446.4,397.9c5.9-11.1,18.7-16.5,30.9-13.8c6.4,1.4,12.3,3.8,18.8,4.8c6.3,0.9,12.6,1.2,18.9,1.9
				c13.8,1.6,25.7,7,37.1,14.8c10.2,7.1,23,15.6,27.4,27.8c0.7,1.8,3.6,1,2.9-0.8c-4.4-12.2-15.8-20.3-25.9-27.6
				c-12-8.7-24.8-15.1-39.6-17c-8.5-1.1-17.1-1.1-25.5-3c-6.9-1.5-13.3-4.7-20.5-4.7c-11.2,0-21.9,6.1-27.2,16.1
				C1442.9,398.1,1445.5,399.6,1446.4,397.9L1446.4,397.9z"/>
		</g>
	</g>
	<g>
		<g>
			<path class="st2" d="M1450.7,398.8c2.5-5.6,9.5-7.1,14.9-8.5c5.8-1.6,11.9-2.8,17.9-3.1c5.9-0.3,10.8,1.8,16.3,3.5
				c5.3,1.6,10.9,2.6,16.2,4.2c11.2,3.4,21.8,8.9,32.4,13.7c9.8,4.5,19.8,9.5,26.4,18.4c1.1,1.5,3.7,0,2.6-1.5
				c-6.8-9.2-16.6-14.5-26.8-19.1c-12.1-5.5-24.3-11.9-37.3-15.3c-11.8-3.1-23.2-7.9-35.5-6.3c-6.5,0.9-13,2.3-19.2,4.4
				c-4.5,1.6-8.7,3.6-10.7,8.1C1447.4,399,1449.9,400.6,1450.7,398.8L1450.7,398.8z"/>
		</g>
	</g>
	<g>
		<g>
			<path class="st2" d="M1454.5,399.6c3-4.6,11.6-5.7,16.6-6.6c5.6-1,11.3-1.4,16.9-1.1c11.1,0.5,21.9,3.5,32.3,7.1
				c19.4,6.7,37.8,15.7,54.5,27.6c1.2,0.8,2.3-1.1,1.1-1.9c-18.8-13.3-40.1-23.4-62.2-30.1c-11-3.4-22.5-5.5-34-4.8
				c-5.6,0.3-11.1,1.3-16.4,2.8c-4.1,1.2-8.4,2.3-10.8,6C1451.8,399.7,1453.7,400.9,1454.5,399.6L1454.5,399.6z"/>
		</g>
	</g>
	<g>
		<g>
			<path class="st2" d="M1459.6,401.2c2.2-5.6,10.3-5,15.1-5.3c4.4-0.2,8.9-0.3,13.3-0.2c9.2,0.1,18.4,0.7,27.5,1.7
				c18.4,2,37.1,6.8,50.4,20.4c0.7,0.7,1.7-0.4,1.1-1.1c-14.6-14.9-35.2-19.4-55.2-21.3c-11.7-1.1-23.4-1.7-35.2-1.2
				c-6,0.2-15.7-0.5-18.4,6.4C1457.8,401.7,1459.3,402.1,1459.6,401.2L1459.6,401.2z"/>
		</g>
	</g>
	<g>
		<g>
			<path class="st2" d="M1468.9,402.4c8.1-6.6,18.3-10.3,28.8-10.1c10.5,0.2,20.3,4.6,29.3,9.8c8.4,4.8,16.4,10.2,24.8,14.9
				c4.7,2.7,9.4,5.2,14.2,7.6c4.6,2.4,9.8,4.4,12.2,9.4c0.4,0.9,1.7,0.1,1.3-0.8c-1.9-3.9-5.1-6-8.9-8c-5.5-2.9-11-5.6-16.4-8.7
				c-10.5-5.9-20.4-12.8-31-18.4c-18.3-9.5-38.8-10.4-55.4,3.1C1467,401.9,1468.1,403,1468.9,402.4L1468.9,402.4z"/>
		</g>
	</g>
	<g>
		<g>
			<path class="st2" d="M1476.5,403.6c13.2-11,32.8-12.7,47.5-3.7c7.5,4.6,14.1,9.8,22.1,13.6c3.6,1.7,7.3,3.3,11,4.8
				c4.9,2,10.7,3.4,13.8,8c0.5,0.8,1.8,0.1,1.3-0.8c-2-3.1-4.9-4.7-8.2-6.1c-5.1-2.2-10.4-4.1-15.4-6.4c-5.2-2.4-10.2-5.1-15-8.3
				c-4.2-2.8-8.1-6.1-12.7-8.2c-14.8-6.9-32.9-4.3-45.4,6.1C1474.7,403.1,1475.8,404.2,1476.5,403.6L1476.5,403.6z"/>
		</g>
	</g>
	<g>
		<g>
			<path class="st2" d="M1464.3,400.8c3.1-4.5,8.6-6.1,13.5-7.9c5.7-2,11.4-3.1,17.5-2.2c9.2,1.5,18.2,5.8,26.9,9
				c8.8,3.3,18.9,5.9,27,10.7c7.1,4.2,12.7,8.9,20.8,11.3c0.9,0.3,1.3-1.2,0.4-1.4c-5.1-1.5-9.9-3.7-14.2-6.7
				c-3.6-2.5-6.8-5-10.9-6.7c-10.3-4.3-21-7.9-31.5-11.9c-9.1-3.4-18.6-7.5-28.5-5.7c-7.4,1.3-17.6,4.3-22.1,10.7
				C1462.4,400.8,1463.7,401.6,1464.3,400.8L1464.3,400.8z"/>
		</g>
	</g>
	<g>
		<g>
			<path class="st2" d="M1483.5,403.2c8.2-6.1,19.3-4.9,28.9-3.2c10,1.8,19.5,5.2,28.4,10c0.8,0.5,1.6-0.8,0.8-1.3
				c-10.1-5.4-20.9-9.1-32.3-10.7c-9-1.2-18.8-1.7-26.5,3.9C1482,402.5,1482.7,403.8,1483.5,403.2L1483.5,403.2z"/>
		</g>
	</g>
	<g>
		<g>
			<path class="st2" d="M1492.6,403.8c3.6-2.9,9.9-2.3,14.3-2.2c4.7,0.2,9.5,0.9,14.1,2.1c7.7,2,14.4,6.4,22,8.6
				c0.9,0.3,1.3-1.2,0.4-1.4c-4.7-1.4-8.9-3.9-13.4-5.8c-5-2-10.3-3.5-15.7-4.3c-6.5-1-17.2-2.6-22.8,1.9
				C1490.8,403.4,1491.9,404.4,1492.6,403.8L1492.6,403.8z"/>
		</g>
	</g>
	<g>
		<g>
			<path class="st2" d="M1498.5,406.9c24.6-0.1,50.1,0,72.5,11.4c0.9,0.4,1.6-0.9,0.8-1.3c-22.7-11.5-48.4-11.8-73.3-11.6
				C1497.6,405.4,1497.6,406.9,1498.5,406.9L1498.5,406.9z"/>
		</g>
	</g>
	<g>
		<g>
			<path class="st2" d="M1446.9,398.1c0.3-5.6,9.4-7.2,13.6-8.2c3-0.7,10.3-3.1,13.1-1.1c0.8,0.6,1.5-0.7,0.8-1.3
				c-2.2-1.6-5.3-0.6-7.9-0.3c-3.6,0.5-7.2,1.3-10.7,2.4c-4.5,1.4-10.1,2.9-10.4,8.5C1445.4,399,1446.9,399,1446.9,398.1
				L1446.9,398.1z"/>
		</g>
	</g>
	<g>
		<g>
			<path class="st2" d="M1451.6,398.6c1.2-7.5,4.2-17,13.2-17.5c1-0.1,1-1.6,0-1.5c-9.7,0.6-13.3,10.3-14.6,18.6
				C1450,399.2,1451.5,399.6,1451.6,398.6L1451.6,398.6z"/>
		</g>
	</g>
	<g>
		<g>
			<path class="st2" d="M1455.3,397c2.2-8.2,9.2-14.2,17.7-15.1c1-0.1,1-1.6,0-1.5c-9.1,1-16.7,7.3-19.1,16.2
				C1453.6,397.5,1455.1,397.9,1455.3,397L1455.3,397z"/>
		</g>
	</g>
	<g>
		<g>
			<path class="st2" d="M1460.9,397.3c2.5-6.7,9-11.1,16.1-10.9c1,0,1-1.5,0-1.5c-7.9-0.2-14.9,4.6-17.6,12
				C1459.1,397.8,1460.6,398.2,1460.9,397.3L1460.9,397.3z"/>
		</g>
	</g>
	<g>
		<g>
			<path class="st2" d="M1470.2,399.5c-0.8-4.7,6-7.2,9.2-8.5c3.6-1.3,7.2-1.9,11-1.4c0.9,0.1,1.4-1.3,0.4-1.4
				c-5.7-0.8-11,0.6-16,3.3c-3.5,1.8-6.8,4.1-6.1,8.4C1468.9,400.8,1470.4,400.4,1470.2,399.5L1470.2,399.5z"/>
		</g>
	</g>
	<g>
		<g>
			<path class="st2" d="M1475.9,401.8c-1.8-10.3,8.8-15.2,17.3-15.4c1,0,1-1.5,0-1.5c-9.6,0.2-20.7,6-18.8,17.3
				C1474.7,403.2,1476.1,402.8,1475.9,401.8L1475.9,401.8z"/>
		</g>
	</g>
	<g>
		<g>
			<path class="st2" d="M1480.5,400.9c6.9-6.9,16-10.1,25.7-9.1c1,0.1,1-1.4,0-1.5c-10-1-19.6,2.4-26.8,9.5
				C1478.7,400.5,1479.8,401.6,1480.5,400.9L1480.5,400.9z"/>
		</g>
	</g>
	<g>
		<g>
			<path class="st2" d="M1488,403.9c0.8-3.8,7.8-4.5,10.8-5.3c4.2-1,8.3-1.4,12.6-1c1,0.1,1-1.4,0-1.5c-6-0.6-11.7,0.5-17.5,2.2
				c-3,0.9-6.7,1.6-7.4,5.1C1486.4,404.4,1487.8,404.8,1488,403.9L1488,403.9z"/>
		</g>
	</g>
	<g>
		<g>
			<path class="st2" d="M1502.1,406.9c1.5-5.8,12.2-6,16.8-6.2c4.8-0.2,9.6,0.1,14.3,0.9c0.9,0.2,1.4-1.3,0.4-1.4
				c-6.7-1.1-13.5-1.4-20.3-0.4c-4.9,0.7-11.1,1.2-12.6,6.8C1500.4,407.4,1501.9,407.8,1502.1,406.9L1502.1,406.9z"/>
		</g>
	</g>
	<g>
		<g>
			<path class="st2" d="M1495.9,404.8c5.2-0.4,10.3-1.3,15.2-3c6.1-2.1,13.2-6.1,19.2-1.4c0.7,0.6,1.8-0.5,1.1-1.1
				c-3.7-3-8.1-3.2-12.7-1.9c-7.8,2.2-14.5,5.2-22.8,5.8C1494.9,403.4,1494.9,404.9,1495.9,404.8L1495.9,404.8z"/>
		</g>
	</g>
	<g>
		<g>
			<path class="st2" d="M1481.5,403.3c14.1-6.2,29.7-6.9,44.3-2.1c0.9,0.3,1.3-1.1,0.4-1.4c-15-4.9-31-4.1-45.5,2.2
				C1479.9,402.4,1480.6,403.7,1481.5,403.3L1481.5,403.3z"/>
		</g>
	</g>
	<g>
		<g>
			<path class="st2" d="M1466.5,401.7c0-6,17.9-5.6,21.4-5.7c7.1-0.1,14.1,0.5,21.1,1.6c0.9,0.2,1.4-1.3,0.4-1.4
				c-9.9-1.6-19.9-2.1-29.8-1.2c-4.3,0.4-14.6,0.8-14.6,6.8C1465,402.7,1466.5,402.7,1466.5,401.7L1466.5,401.7z"/>
		</g>
	</g>
	<g>
		<g>
			<path class="st2" d="M1477.2,402.8c1.2-1.9,6.8-2.3,8.6-2.5c2.2-0.2,4.4-0.2,6.5-0.1c5.4,0.4,10.4,2.1,15.1,4.8
				c0.8,0.5,1.6-0.8,0.8-1.3c-5.6-3.2-11.8-5-18.3-5.1c-3.7-0.1-11.8-0.2-14,3.4C1475.4,402.9,1476.7,403.6,1477.2,402.8
				L1477.2,402.8z"/>
		</g>
	</g>
	<g>
		<g>
			<path class="st2" d="M1504.8,405.6c12.8-0.6,25.8-0.9,37.4,5.4c0.8,0.5,1.6-0.8,0.8-1.3c-11.8-6.4-25.1-6.2-38.2-5.6
				C1503.9,404.2,1503.9,405.7,1504.8,405.6L1504.8,405.6z"/>
		</g>
	</g>
	<g>
		<g>
			<path class="st2" d="M1504.8,404.2c5.4-0.4,10.9-0.7,16.4-0.4c6.8,0.3,11.6,3.4,16.8,7.6c0.7,0.6,1.8-0.5,1.1-1.1
				c-4.3-3.4-8.6-6.8-14.2-7.7c-6.5-1.1-13.6-0.3-20.1,0.1C1503.9,402.7,1503.9,404.2,1504.8,404.2L1504.8,404.2z"/>
		</g>
	</g>
	<g>
		<g>
			<path class="st2" d="M1521.7,394.2c8.6-0.4,18.4,2.5,20.3,12.1c0.2,0.9,1.6,0.5,1.4-0.4c-2.1-10.2-12.4-13.6-21.7-13.2
				C1520.7,392.7,1520.7,394.2,1521.7,394.2L1521.7,394.2z"/>
		</g>
	</g>
	<g>
		<g>
			<path class="st2" d="M1539.5,409.5c7.4,1.2,13.8,4.7,18.9,10.2c0.7,0.7,1.7-0.4,1.1-1.1c-5.3-5.7-12-9.3-19.6-10.6
				C1538.9,407.9,1538.5,409.4,1539.5,409.5L1539.5,409.5z"/>
		</g>
	</g>
	<g>
		<g>
			<path class="st2" d="M1599.9,183.8c-1.2-4.8,9-9.2,12.2-11.2c4-2.5,7.9-5,11.9-7.6c0.8-0.5,0.1-1.8-0.8-1.3
				c-6.4,4-12.7,8-19.1,12.1c-3.1,2-6.7,4.2-5.7,8.3C1598.7,185.1,1600.1,184.7,1599.9,183.8L1599.9,183.8z"/>
		</g>
	</g>
	<g>
		<g>
			<path class="st2" d="M1602.8,177.6c11.7-12.3,23.3-24.5,35-36.8c0.7-0.7-0.3-1.7-1.1-1.1c-16.5,14.8-32.7,30-48.5,45.5
				c-0.6,0.6,0.2,1.6,0.9,1.2c19.4-11.1,32-30.3,50-43.4c-0.3-0.4-0.6-0.8-0.9-1.2c-11.3,11.9-21.9,24.5-31.7,37.6
				c-0.5,0.7,0.6,1.5,1.2,0.9c13.5-15,27.1-30,40.6-45c0.5-0.6-0.2-1.7-0.9-1.2c-13.1,10.1-25.3,21.4-36.4,33.7
				c0.4,0.3,0.8,0.6,1.2,0.9c7.7-10.3,16.3-19.8,25.9-28.4c0.7-0.6-0.3-1.7-1.1-1.1c-9.7,8.7-18.4,18.3-26.1,28.7
				c-0.5,0.7,0.6,1.5,1.2,0.9c11-12.2,23.1-23.4,36.1-33.5c-0.3-0.4-0.6-0.8-0.9-1.2c-13.5,15-27.1,30-40.6,45
				c0.4,0.3,0.8,0.6,1.2,0.9c9.8-13.1,20.3-25.5,31.5-37.3c0.6-0.6-0.2-1.7-0.9-1.2c-17.9,13-30.6,32.3-50,43.4
				c0.3,0.4,0.6,0.8,0.9,1.2c15.8-15.6,31.9-30.8,48.5-45.5c-0.4-0.4-0.7-0.7-1.1-1.1c-11.7,12.3-23.3,24.5-35,36.8
				C1601.1,177.2,1602.2,178.3,1602.8,177.6L1602.8,177.6z"/>
		</g>
	</g>
	<g>
		<g>
			<path class="st2" d="M1609.7,174.1c31.6-2.3,59.8,18.6,75,45c18.2,31.5,19.1,70,17.4,105.4c-0.9,19.8-3,38.9-12,56.9
				c-7.9,15.7-18.7,29.7-28.1,44.6c-19,30-34.6,62.1-46.8,95.4c-6.1,16.8-11.4,34-15.7,51.4c-4.3,17.6-6.8,35.5-10.5,53.3
				c-2,9.5-5.1,18.4-10.3,26.7c-4.9,7.8-11.1,14.7-17.1,21.6c-12.5,14.2-25.5,28-39,41.2c-23,22.5-48.5,43.2-66.7,70
				c-17,24.9-23.7,53.4-19.5,83.2c4.1,29.3,16.2,56.7,27,84c10.5,26.9,21,55.2,20,84.5c-0.2,7.2-1.3,14.3-3,21.3
				c-0.9,3.7,4.9,5.3,5.8,1.6c14.8-59.8-24.4-115.3-39.4-170.9c-8.1-30.2-8.2-60.9,7.1-88.9c15.9-29.1,42-50.9,65.6-73.4
				c13.9-13.3,27.3-27.1,40.2-41.4c11.9-13.3,25-26.9,31.3-43.9c6.4-17.3,7.5-36.5,11.4-54.4c3.9-18.1,8.9-35.9,14.8-53.4
				c11.8-34.8,27.5-68.2,46.7-99.5c9.5-15.5,20.7-30,29.3-46c8.8-16.2,12.9-33.3,14.2-51.6c2.6-35.8,2.8-74.1-11.3-107.7
				c-11.6-27.5-35-52-64.8-59c-7.1-1.7-14.4-2.2-21.6-1.7C1605.8,168.4,1605.8,174.4,1609.7,174.1L1609.7,174.1z"/>
		</g>
	</g>
	<g>
		<g>
			<path class="st2" d="M1634.4,149.3c45,33.6,78.1,81.9,94.9,135.3c8.3,26.5,12.7,54.1,12.6,81.9c-0.1,32.6-9.2,64.3-8.8,97
				c0.2,17.9,1.9,35.7,2.8,53.6c0.9,17.6,1.1,35.3,0.7,53c-0.9,36.4-5.2,72.2-11,108.1c-2.7,16.5-4.7,33.1-1.8,49.7
				c2.8,16.4,9.9,31.5,15.1,47.2c9.8,29.7,11.7,61.2,10.7,92.3c-1.9,61.1-14.9,123.4-1.4,184.1c1.6,7.4,3.7,14.6,6.2,21.7
				c1.2,3.6,7,2.1,5.8-1.6c-20.7-60.2-9.1-124.5-5.4-186.4c1.8-30.8,1.8-61.9-4.8-92.2c-3.5-16-9.7-31-14.9-46.5
				c-5.9-17.4-7.8-34.3-5.7-52.5c2-17.6,5.6-35,7.9-52.6c2.3-17.8,3.9-35.8,4.8-53.7c1.8-36.4-0.5-72.3-2.3-108.6
				c-0.9-18.2-0.6-36.3,2.2-54.4c2.3-15.3,5-30.6,5.8-46.1c1.4-27.7-1.7-55.7-8.7-82.5c-14-53.4-43.8-102.9-85.5-139.2
				c-5.1-4.5-10.5-8.7-15.9-12.8C1634.3,141.8,1631.3,147,1634.4,149.3L1634.4,149.3z"/>
		</g>
	</g>
	<g>
		<g>
			<path class="st2" d="M1611.5,176.6c35.3,43.9,53.4,98.4,65.8,152.6c6.7,29.3,12.3,58.8,19.1,88.1c6.9,29.6,15.4,58.6,25.4,87.2
				c9.6,27.4,21.5,55.9,22.4,85.3c1,31.5-6.2,63.3-11.4,94.3c-10.3,61.3-22,122.4-31.3,183.9c-5.1,33.5-6.8,67.8-2.3,101.5
				c4.6,34.5,12.8,68.3,16.9,102.8c0.4,3.8,6.5,3.8,6,0c-3.6-30.9-10.3-61.4-15.2-92.1c-5-31.3-5.2-62.8-1.8-94.3
				c3.5-31.7,9.3-63.4,15-94.8c5.6-30.7,11.1-61.5,16.4-92.3c2.7-15.8,5.3-31.6,7.8-47.4c2.4-14.9,4.9-29.8,5.8-45
				c0.9-15.5-0.3-30.3-3.9-45.4c-3.3-14-7.8-27.7-12.6-41.3c-9.9-28.5-19.6-56.9-27-86.1c-7.4-29.5-13.2-59.4-19.7-89.1
				c-13.2-61.1-31.3-122.7-71.1-172.2C1613.3,169.3,1609.1,173.6,1611.5,176.6L1611.5,176.6z"/>
		</g>
	</g>
	<g>
		<g>
			<path class="st2" d="M1656,161.9c3.9,0,3.9-6,0-6C1652.1,155.9,1652.1,161.9,1656,161.9L1656,161.9z"/>
		</g>
	</g>
	<g>
		<g>
			<path class="st2" d="M1607.7,161.9c3.9,0,3.9-6,0-6C1603.9,155.9,1603.9,161.9,1607.7,161.9L1607.7,161.9z"/>
		</g>
	</g>
	<g>
		<g>
			<path class="st2" d="M1605,183.5c16-4.9,32.6-10.1,49.6-8.7c13.1,1.1,27.1,7,34.6,18.3c9.1,13.6,6.8,33,7.1,48.6
				c0.3,17.7,0.6,35.5,0.7,53.2c0.4,70.4-1.6,141.1-11.6,210.9c-9,63.1-24.5,125.6-49.8,184.2c-12.4,28.8-27.3,56.4-44.5,82.6
				c-16.7,25.3-35.2,49.4-50.8,75.5c-15.5,25.9-27.6,53.7-31.8,83.8c-4.6,32.5-1.1,65.5,4.9,97.6c1.5,8.3,3.3,16.6,5.1,24.9
				c0.8,3.8,6.6,2.2,5.8-1.6c-7.4-33.9-13.5-68.6-11.5-103.4c1.9-32.6,12.5-62.7,28.5-91c15.3-26.9,34-51.5,51.2-77.1
				c18-26.6,33.5-54.7,46.5-84.1c26-58.9,42.2-121.7,51.6-185.3c10.4-70.5,12.7-141.8,12.5-213c-0.1-18.1-0.3-36.1-0.6-54.2
				c-0.3-15.6,1.5-33.5-4.6-48.3c-11.4-27.2-44.9-30.6-70-25.3c-8.2,1.7-16.2,4.2-24.2,6.6C1599.7,178.9,1601.2,184.6,1605,183.5
				L1605,183.5z"/>
		</g>
	</g>
	<g>
		<g>
			<path class="st2" d="M1628.8,166.3c28.7-9.3,59.3,3.2,79.8,23.8c20.3,20.3,30.4,47.9,35.8,75.6c3.2,16.8,4.9,33.8,5.8,50.9
				c0.9,16.2,1.7,32.7,0.7,48.9c-1.1,16.9-4.8,33.2-8.7,49.6c-3.8,16.1-7,32.2-9,48.6c-7.9,65.7,0.6,133.3,24.8,194.9
				c5.6,14.2,11.5,28.2,15.5,42.9c4.3,15.9,5.4,31.8,2.6,48.1c-2.8,16.5-8.2,32.4-12.8,48.4c-4.9,16.7-9.7,33.5-14.7,50.2
				c-9.3,31.3-18.9,62.8-23.1,95.3c-4.3,33.9-2.8,68.3,0.7,102.1c0.9,8.1,1.9,16.1,3,24.2c0.5,3.8,6.3,2.2,5.8-1.6
				c-4.9-34.8-7.7-70.2-5.4-105.3c2.3-34.7,11.3-68.1,21.2-101.2c4.9-16.5,9.8-33.1,14.6-49.6c4.9-16.8,10.4-33.6,14.4-50.6
				c3.6-15.3,5.1-30.6,2.7-46.2c-2.3-15.6-7.8-30.5-13.6-45.1c-12.1-30.7-22.2-61.5-27.5-94.2c-5.6-34.4-6.6-69.7-3.2-104.4
				c1.8-17.6,5-34.8,9-52c3.8-16.4,7.8-32.6,9.2-49.4c1.4-16.5,0.6-33.2-0.2-49.8c-0.8-16.7-2.3-33.3-5.1-49.8
				c-4.7-27.7-13.5-55.3-31.7-77.3c-17.4-21-44-36.5-71.8-36.2c-7,0.1-14,1.3-20.7,3.4C1623.5,161.7,1625.1,167.5,1628.8,166.3
				L1628.8,166.3z"/>
		</g>
	</g>
	<g>
		<g>
			<path class="st2" d="M1333.6,366.2c3.4-5.9,5.5-13.4,3.8-20.2c-0.5-1.9-3.4-1.1-2.9,0.8c1.5,6-0.5,12.6-3.5,17.9
				C1330.1,366.3,1332.6,367.9,1333.6,366.2L1333.6,366.2z"/>
		</g>
	</g>
	<g>
		<g>
			<path class="st2" d="M1328.1,363.9c1.3-4.8,3-9.7,3.9-14.6c0.6-3.2,0.3-5.9-1.8-8.4c-1.2-1.5-3.3,0.6-2.1,2.1
				c2.7,3.2,0.4,8.2-0.6,11.7c-0.8,2.8-1.5,5.6-2.3,8.4C1324.7,365,1327.6,365.8,1328.1,363.9L1328.1,363.9z"/>
		</g>
	</g>
	<g>
		<g>
			<path class="st2" d="M1322.7,360.5c2.2-3.6,2.3-8.2,1.5-12.3c-0.5-2.7-1.8-8.4-5-9c-1.9-0.3-2.7,2.5-0.8,2.9c2,0.4,2.9,6.4,3.1,8
				c0.4,3,0.3,6.2-1.4,8.9C1319.1,360.7,1321.7,362.2,1322.7,360.5L1322.7,360.5z"/>
		</g>
	</g>
	<g>
		<g>
			<path class="st2" d="M1318,358c1.1-5,3.2-11.2,1.1-16.2c-1.5-3.6-5.8-7.6-9.8-7.7c-1.9,0-1.9,3,0,3c4.5,0.1,7.6,6.1,7.6,9.8
				c0,3.4-1.1,7-1.8,10.4C1314.7,359.1,1317.6,359.9,1318,358L1318,358z"/>
		</g>
	</g>
	<g>
		<g>
			<path class="st2" d="M1312,353.2c0.4-6.3,2.6-13.3-1-19.1c-2.7-4.3-7.6-6.5-12.1-8.3c-13.6-5.3-27.8-11.7-42.5-12.8
				c-1.9-0.1-1.9,2.9,0,3c12.4,0.9,23.9,6,35.4,10.3c4.9,1.8,10.8,3.3,14.7,7.1c5.6,5.3,2.9,13.2,2.5,19.8
				C1308.9,355.1,1311.9,355.1,1312,353.2L1312,353.2z"/>
		</g>
	</g>
	<g>
		<g>
			<path class="st2" d="M1307.7,348.8c0.3-5.2,0.2-10.6-2.7-15.1c-2.7-4.3-7.3-7.5-11.3-10.6c-4.6-3.6-9.5-6.7-15.1-8.5
				c-6.5-2.1-13.4-2.8-19.9-4.8c-1.8-0.6-2.6,2.3-0.8,2.9c10.4,3.2,20.9,3.7,30.2,10c4.1,2.8,8.3,5.9,11.8,9.4
				c4.7,4.7,5.2,10.4,4.8,16.7C1304.6,350.7,1307.6,350.7,1307.7,348.8L1307.7,348.8z"/>
		</g>
	</g>
	<g>
		<g>
			<path class="st2" d="M1256.9,320.1c15.1,0.9,41,8.5,41.7,27.1c0.1,1.4,2.3,1.5,2.2,0c-0.8-20-27.6-28.4-44-29.4
				C1255.5,317.7,1255.5,320,1256.9,320.1L1256.9,320.1z"/>
		</g>
	</g>
	<g>
		<g>
			<path class="st2" d="M1257.4,323.4c7.9-0.2,15.8,1.2,23,4.5c3.9,1.7,6.5,3.5,8.6,7.2c1.9,3.1,3.5,6.4,5.2,9.6
				c0.7,1.3,2.6,0.1,1.9-1.1c-2.1-3.9-4-8.4-6.6-12c-2-2.7-5-4.2-8-5.6c-7.6-3.4-15.8-4.9-24.2-4.8
				C1256,321.1,1255.9,323.4,1257.4,323.4L1257.4,323.4z"/>
		</g>
	</g>
	<g>
		<g>
			<path class="st2" d="M1248.8,325.9c15.7-2.8,31.7,4.2,40.4,17.5c0.5,0.8,1.8,0.1,1.3-0.8c-9-13.9-25.7-21.1-42.1-18.2
				C1247.5,324.6,1247.9,326.1,1248.8,325.9L1248.8,325.9z"/>
		</g>
	</g>
	<g>
		<g>
			<path class="st2" d="M1250.2,320.8c12.6-1.1,25.4,1.2,35.8,8.8c4.6,3.4,7.6,7.5,11.1,11.9c3.4,4.4,9.3,6.4,14.1,8.8
				c0.9,0.4,1.6-0.9,0.8-1.3c-3.2-1.6-6.6-3.1-9.7-5c-3-1.8-4.6-4.4-6.6-7.1c-3.1-4.1-7.1-7.6-11.4-10.3c-10.1-6.4-22.2-8.3-34-7.3
				C1249.3,319.4,1249.2,320.9,1250.2,320.8L1250.2,320.8z"/>
		</g>
	</g>
	<g>
		<g>
			<path class="st2" d="M1261.6,316.6c19,1.2,35.9,13.3,43.3,30.8c0.4,0.9,1.7,0.1,1.3-0.8c-7.7-18-25.1-30.3-44.6-31.5
				C1260.6,315.1,1260.6,316.6,1261.6,316.6L1261.6,316.6z"/>
		</g>
	</g>
	<g>
		<g>
			<path class="st2" d="M1286.2,325c11.7,5.4,24.6,13.6,24,28.2c0,1,1.5,1,1.5,0c0.6-15.1-12.6-23.8-24.7-29.5
				C1286,323.3,1285.3,324.6,1286.2,325L1286.2,325z"/>
		</g>
	</g>
	<g>
		<g>
			<path class="st2" d="M1313.4,355.3c1.3-9.3-6-19.9-14.9-22.7c-0.9-0.3-1.3,1.2-0.4,1.4c7.9,2.5,15,12.4,13.8,20.8
				C1311.8,355.8,1313.2,356.2,1313.4,355.3L1313.4,355.3z"/>
		</g>
	</g>
	<g>
		<g>
			<path class="st2" d="M1313.5,355c2.2-2.3,2.4-6.3,2.3-9.4c0-3.8-1.4-6.5-3.7-9.5c-0.6-0.8-1.6,0.3-1.1,1.1c2,2.6,3.2,5,3.3,8.4
				c0,2.6,0,6.3-1.9,8.3C1311.8,354.6,1312.9,355.6,1313.5,355L1313.5,355z"/>
		</g>
	</g>
	<g>
		<g>
			<path class="st2" d="M1318.9,358.1c1.4-8,1.8-14.8-4.2-21.1c-0.7-0.7-1.7,0.4-1.1,1.1c5.5,5.9,5.1,12.2,3.8,19.6
				C1317.3,358.6,1318.8,359,1318.9,358.1L1318.9,358.1z"/>
		</g>
	</g>
	<g>
		<g>
			<path class="st2" d="M1324.2,360.7c3.4-4.6,4.4-14.3,0.6-18.9c-0.6-0.7-1.7,0.3-1.1,1.1c3.4,4.1,2.1,13.2-0.8,17.1
				C1322.4,360.8,1323.7,361.5,1324.2,360.7L1324.2,360.7z"/>
		</g>
	</g>
	<g>
		<g>
			<path class="st2" d="M1329.2,364.1c2.5-6.2,6.3-14.2,2.3-20.5c-0.5-0.8-1.8-0.1-1.3,0.8c3.7,5.8-0.1,13.7-2.4,19.4
				C1327.4,364.6,1328.9,365,1329.2,364.1L1329.2,364.1z"/>
		</g>
	</g>
	<g>
		<g>
			<path class="st2" d="M1286.6,336.5c-0.6-2.8-3-4-5.3-5.4c-4.3-2.5-8.9-4.4-13.5-6.2c-9.9-3.7-19.4-3.3-29.8-3.3c-1,0-1,1.5,0,1.5
				c8,0,16.9-1,24.6,1.5c3.9,1.3,7.8,2.8,11.5,4.4c3.1,1.4,10.4,4,11.1,7.8C1285.3,337.9,1286.8,337.5,1286.6,336.5L1286.6,336.5z"
				/>
		</g>
	</g>
	<g>
		<g>
			<path class="st2" d="M1592.7,174.8c-50.5-11.9-102.7-16.5-154.5-13.2c-25.3,1.6-50.9,4.6-75.7,10.3c-10.6,2.4-21.2,5.8-30.5,11.5
				c-9.5,5.8-17.2,14-23.7,23c-24.3,33.3-35.3,75.2-63.6,105.8c-7.4,8-15.8,14.5-25.1,20.1c-9,5.5-18.3,10.8-25,19.1
				c-7.7,9.4-13.2,20.9-19.1,31.5c-6.1,11-12,22-17.7,33.1c-26.6,51.3-50,104.3-70.1,158.5c-1.3,3.6,4.5,5.2,5.8,1.6
				c17.5-47.3,37.6-93.6,60.1-138.7c11.2-22.4,23-44.5,35.3-66.2c6.1-10.7,12.4-19.9,22.7-26.9c8.5-5.7,17.7-10.5,25.7-17
				c31.1-25.1,44.6-64.7,63.7-98.3c11.3-19.9,24.6-38.4,46.8-46.7c10.8-4,22.3-6.1,33.6-8.1c12.8-2.3,25.7-4,38.7-5.3
				c57.1-5.5,115-1.6,170.8,11.6C1594.8,181.5,1596.4,175.7,1592.7,174.8L1592.7,174.8z"/>
		</g>
	</g>
	<g>
		<g>
			<path class="st2" d="M1594.8,161.8c-69.8-5.6-142.9-11-209,16.9c-29.5,12.4-54.9,31.2-75.1,56c-10.7,13.2-20.2,27.3-30.3,41
				c-10.1,13.8-21.1,27-32.8,39.5c-23.3,24.9-49.3,46.2-77.2,65.7c-13.5,9.4-26,19.5-35.4,33.2c-10,14.6-18,30.9-26.1,46.6
				c-16.6,32.4-30.6,65.7-42.1,100.2c-11.4,34.3-20.8,69.2-31.2,103.8c-19.2,63.8-42.6,128.6-86,180.3c-5.2,6.2-10.7,12.2-16.5,17.9
				c-2.7,2.7,1.5,7,4.2,4.2c45.7-45.6,72.9-105.5,93.1-166c22.9-68.6,38.1-139.7,68.3-205.7c7.5-16.5,15.7-32.6,24.3-48.6
				c8.3-15.4,16.4-31.5,29.1-43.9c12.2-11.8,27-20.5,40.6-30.6c12.9-9.6,25.3-20,37.2-31c24.4-22.7,45.4-48.1,64.7-75.1
				c10.2-14.3,20.5-28.8,32.8-41.4c11.1-11.4,23.7-21.1,37.4-29.1c61.2-35.6,134.3-35.1,202.7-30.2c9.1,0.7,18.2,1.4,27.3,2.1
				C1598.6,168.2,1598.6,162.2,1594.8,161.8L1594.8,161.8z"/>
		</g>
	</g>
	<g>
		<g>
			<path class="st2" d="M1213.2,337.2c-9,21.8-21.4,42.2-36.7,60.2c-14.8,17.3-33.3,31.1-47.7,48.8c-14.6,18-23,40.1-37.7,58.2
				c-13.2,16.2-29.2,29.9-46.3,41.9c-19.8,13.8-40.9,25.5-62.1,37.1c-3.4,1.9-0.4,7,3,5.2c37.8-20.7,76.8-42.2,105.5-75.1
				c7-8,13.1-16.6,18.6-25.6c6.1-10.3,11.5-21,18.3-30.9c13.9-20,34.2-34.5,50.3-52.7c17.1-19.4,30.6-41.5,40.5-65.4
				C1220.5,335.2,1214.7,333.6,1213.2,337.2L1213.2,337.2z"/>
		</g>
	</g>
	<g>
		<g>
			<path class="st2" d="M1246.4,323.7c8.4-0.2,16.5,1.7,24.4,4.4c7.1,2.4,15,5.2,18.2,12.6c0.4,0.9,1.7,0.1,1.3-0.8
				c-2.8-6.6-9.3-9.7-15.7-12.1c-9.1-3.4-18.4-6-28.2-5.7C1245.4,322.2,1245.4,323.7,1246.4,323.7L1246.4,323.7z"/>
		</g>
	</g>
	<g>
		<g>
			<path class="st2" d="M1248.3,320.7c7.2-0.8,14.2,0,21.1,2.5c0.9,0.3,1.3-1.1,0.4-1.4c-7-2.5-14.1-3.4-21.5-2.5
				C1247.4,319.3,1247.4,320.8,1248.3,320.7L1248.3,320.7z"/>
		</g>
	</g>
	<g>
		<g>
			<path class="st2" d="M1250.6,318.9c5.6-0.5,11,0.1,16.4,1.7c0.9,0.3,1.3-1.2,0.4-1.4c-5.5-1.7-11.1-2.3-16.8-1.8
				C1249.7,317.5,1249.6,319,1250.6,318.9L1250.6,318.9z"/>
		</g>
	</g>
	<g>
		<g>
			<path class="st2" d="M1257.1,321.6c-6.7,0-13.5-0.1-20.2-0.4c-1,0-1,1.5,0,1.5c6.7,0.3,13.5,0.4,20.2,0.4
				C1258.1,323.1,1258.1,321.6,1257.1,321.6L1257.1,321.6z"/>
		</g>
	</g>
	<g>
		<g>
			<path class="st2" d="M1250,323.8c-3.6,0-7.2,0-10.8,0c-2.4,0-4.7-0.2-6.8,1.1c-0.8,0.5-0.1,1.8,0.8,1.3c2.4-1.5,5.9-0.9,8.6-0.9
				c2.8,0,5.5,0,8.3,0C1250.9,325.3,1250.9,323.8,1250,323.8L1250,323.8z"/>
		</g>
	</g>
	<g>
		<g>
			<path class="st2" d="M1287.3,332.9c-13.2-7.9-29.1-8.5-43.3-13.9c-0.9-0.3-1.3,1.1-0.4,1.4c14.1,5.4,29.8,5.9,42.9,13.8
				C1287.4,334.7,1288.1,333.4,1287.3,332.9L1287.3,332.9z"/>
		</g>
	</g>
	<g>
		<g>
			<path class="st2" d="M1285.6,339.1c-2.1-15-20.8-21-33.5-23.7c-0.9-0.2-1.3,1.2-0.4,1.4c12.2,2.6,30.4,8.3,32.5,22.7
				C1284.3,340.4,1285.8,340,1285.6,339.1L1285.6,339.1z"/>
		</g>
	</g>
	<g>
		<g>
			<path class="st2" d="M1282.3,337.9c-0.2-2.8-1.9-4.1-4.1-5.9c-3.2-2.7-6.5-5.2-9.8-7.8c-6.4-4.9-12.9-9.3-21.1-10.2
				c-1-0.1-0.9,1.4,0,1.5c7,0.8,12.8,4.4,18.3,8.5c2.7,2,5.4,4.2,8.1,6.3c2.2,1.8,6.9,4.5,7.1,7.6
				C1280.9,338.9,1282.4,338.9,1282.3,337.9L1282.3,337.9z"/>
		</g>
	</g>
	<g>
		<g>
			<path class="st2" d="M1279.3,335c-6.1-7.6-15.4-10.1-24.3-12.9c-0.9-0.3-1.3,1.2-0.4,1.4c8.7,2.8,17.7,5.1,23.6,12.6
				C1278.8,336.8,1279.9,335.7,1279.3,335L1279.3,335z"/>
		</g>
	</g>
	<g>
		<g>
			<path class="st2" d="M1616.2,162.9c-24.7-44.7-70.6-71.2-115.8-91.3c-5.7-2.5-11.9-4.2-17.8-6.5c-7-2.7-14.1-5.1-21.4-6.9
				c-14.1-3.6-28.6-5.5-43.1-5.5c-26.2,0-50.9,7.9-73.1,21.6c-23.1,14.2-42.2,33.5-60.1,53.7c-18.8,21.1-36.3,43.4-52.7,66.4
				c-33.8,47.2-63.1,97.4-92.2,147.5c-52.4,90.1-107.3,180.9-184.1,252.7c-37.4,34.9-79.7,64.5-126.3,85.8c-2.7,1.2-5.4,2.4-8.2,3.6
				c-3,1.3-5.9,1.6-8.9,2.7c-3,1-5.9,2.9-8.7,4.3c-4.3,2.1-8.8,3.6-13.3,5.2c-14.3,5.2-28.4,10.9-43,15.3
				c-30.1,9.1-60.5,17.2-91.1,24.3c-29.9,7-59.9,13.3-89.8,19.7c-28.3,6.1-57.7,10.4-83.2,25.1c-10.1,5.8-18.9,14.3-25.8,23.6
				c-7.9,10.5-12.4,22.6-19.3,33.6c-13.9,22.1-35.4,37.9-55.7,53.5c-10.3,7.9-19.6,16.1-28.8,25.4c-2.7,2.8,1.5,7,4.2,4.2
				c9.9-10,20.2-18.8,31.4-27.4c9.3-7.2,18.7-14.4,27.5-22.3c8.9-8,17.1-16.7,23.9-26.5c7.2-10.4,11.5-22.4,18.6-32.9
				c16.2-24.1,42.5-35.9,70-42.5c29.4-7,59.2-12.5,88.7-18.9c29.4-6.4,58.8-13.1,87.9-20.8c29.7-7.8,58.4-17.8,87.3-28.3
				c6.1-2.2,11.7-4.8,17.6-7.4c5.9-2.6,12.2-4.3,18.2-7c12-5.3,23.7-11.2,35.1-17.6c21.2-11.8,41.4-25.4,60.6-40.4
				c79.1-61.8,137.5-145.7,189-230.8c58.9-97.3,111.2-200,190.7-282.8c17.9-18.6,38.3-35.3,62-45.9c26.7-12,56-13.5,84.5-7.7
				c7.4,1.5,14.6,3.4,21.7,5.8c6.9,2.3,13.6,6.1,20.6,8c11.7,3.3,22.9,9.5,33.7,15.2c22.5,11.8,44.2,26,61.8,44.5
				c8.8,9.2,16.2,19.4,22.4,30.5C1612.9,169.3,1618.1,166.3,1616.2,162.9L1616.2,162.9z"/>
		</g>
	</g>
	<g>
		<g>
			<path class="st2" d="M930.8,716.4c-39.9-1-79.6,5.1-118.3,14.6c-37.1,9.1-73.7,20.8-109.5,34.2c-68.9,25.7-135.3,58.2-197.7,97
				c-34.9,21.7-68.6,45.4-100.9,70.8c-3,2.4,1.2,6.6,4.2,4.2c57.1-45,118.8-84.2,183.7-117.1c65.4-33.1,134.3-60,205.1-79
				c43.5-11.7,88.2-19.8,133.4-18.6C934.7,722.5,934.7,716.5,930.8,716.4L930.8,716.4z"/>
		</g>
	</g>
	<g>
		<g>
			<path class="st2" d="M1511.3,691.8c-33.1,33.2-66.6,70.1-77.8,116.9c-6.5,27-3.8,54.8,0,82c4,28.4,8.9,56.7,9.9,85.4
				c1.1,32.8-1.5,65.7-8.4,97.8c-1.2,5.6,7.5,8.1,8.7,2.4c5.8-27.2,8.8-55.1,9-82.9c0.2-28.3-3.2-56-7.3-83.9
				c-4.2-28.1-9.6-57.3-5.6-85.7c3.3-23.4,12.9-45.3,25.8-64.9c14.7-22.4,33.3-41.9,52.2-60.8
				C1521.8,694.1,1515.4,687.7,1511.3,691.8L1511.3,691.8z"/>
		</g>
	</g>
	<g>
		<g>
			<path class="st2" d="M1514.7,692.3c5.8,0,5.8-9,0-9C1508.9,683.3,1508.9,692.3,1514.7,692.3L1514.7,692.3z"/>
		</g>
	</g>
	<g>
		<g>
			<path class="st2" d="M1512.4,685.4c-14.7,50.7-7.7,103.8-12.7,155.7c-2.5,25.9-8.9,50.5-17.7,74.9c-8.9,24.5-19.6,48.4-26.8,73.6
				c-8.1,28-12.5,56.9-12.9,86c-0.1,5.8,8.9,5.8,9,0c0.3-26.2,4-52.1,10.8-77.3c6.7-25.1,17.1-48.8,26.1-73.1
				c8.6-23.1,16-46.6,19.1-71c3.3-26.2,3.5-52.5,3.9-78.9c0.5-29.4,1.8-59,10-87.4C1522.7,682.2,1514.1,679.8,1512.4,685.4
				L1512.4,685.4z"/>
		</g>
	</g>
	<g>
		<g>
			<path class="st2" d="M1457,399.4c-0.4-3.2,0.9-6.2,2.6-8.9c0.7-1.1,4.4-6.3,6-5.9c1.9,0.5,2.7-2.4,0.8-2.9
				c-3.2-0.8-6.6,3.5-8.3,5.7c-2.5,3.3-4.6,7.7-4.1,11.9C1454.2,401.3,1457.2,401.3,1457,399.4L1457,399.4z"/>
		</g>
	</g>
	<g>
		<g>
			<path class="st2" d="M1462.2,399.9c0.8-3.4,1.4-7.1,2.8-10.3c0.8-1.9,2-3.5,3.9-4.5c1.6-0.8,5.3-2.1,7-1.2
				c1.7,0.9,3.2-1.7,1.5-2.6c-3.6-1.8-9.7,0.3-12.4,2.9c-3.9,3.8-4.6,9.9-5.7,14.8C1458.9,401,1461.8,401.8,1462.2,399.9
				L1462.2,399.9z"/>
		</g>
	</g>
	<g>
		<g>
			<path class="st2" d="M1459.9,399.2c0.9-3.3,1.5-6.9,3.5-9.8c2-3,4.8-5.1,8.2-6.4c0.9-0.3,0.5-1.8-0.4-1.4c-3.2,1.2-6,3.1-8.1,5.8
				c-2.7,3.4-3.5,7.3-4.6,11.4C1458.1,399.8,1459.6,400.2,1459.9,399.2L1459.9,399.2z"/>
		</g>
	</g>
	<g>
		<g>
			<path class="st2" d="M1315.9,598.6c-4.3,4.4-6.8,9.8-7.4,15.9c0,0.5,0.7,0.5,0.8,0c0.6-5.9,3.1-11.1,7.2-15.3
				C1316.8,598.7,1316.3,598.2,1315.9,598.6L1315.9,598.6z"/>
		</g>
	</g>
	<g>
		<path class="st5" d="M1226.3,625.5c3.9,3.7,9.9,4.5,15.2,3.7s10.3-3.1,15.5-4.9c8.6-2.9,17.8-4.3,26.8-4c5.2,0.2,10.4,0.9,15,3.1
			c2.7,1.3,5.1,3.1,7.9,4.2c7.1,2.9,15.2,1,22.8,1.5c9.4,0.6,18.3,4.9,25.8,10.6s13.7,12.8,20,19.8c7,7.9,15.3,16.3,25.9,16.4
			c-13.8,2.8-28.5,0.4-40.7-6.4c-5.7-3.2-10.9-7.4-16.8-10.3c-5.6-2.7-11.7-4.3-17.7-5.9c-10.8-2.8-21.7-5.5-32.8-6.9
			c-12.2-1.5-24.6-1.4-36.7-3.7c-12.1-2.3-24.2-7.5-31.4-17.4"/>
	</g>
	<g>
		<path class="st5" d="M1374.9,684.6c-7.2,13.6-20.9,23.4-36.1,25.9c-9.5,1.6-19.3,0.4-28.8-1.2c-10-1.6-19.9-3.7-29.8-6.1
			c-11.1-2.7-22.4-6.1-31-13.6c-8.6-7.5-13.6-20.2-8.9-30.6c5.8,5.2,11.6,10.4,17.4,15.6c3,2.7,6.1,5.4,9.4,7.7
			c4.2,2.9,8.9,5,13.7,6.9c20.4,7.7,43.1,9.4,64.5,5.2C1354.8,692.6,1374.9,684.6,1374.9,684.6z"/>
	</g>
	<g>
		<path class="st6" d="M1284.9,663.7c-3.6-0.8-7.3-1.3-11-1.5c-1.6-0.1-3.4-0.2-4.9,0.5c-0.8,0.4-1.5,1-1.6,1.9
			c-0.1,0.9,0.6,1.7,1.2,2.3c0.5,0.5,1,1.1,1.8,1.2c0.5,0.1,1-0.1,1.4-0.2c3-1,6-2,9-3c1-0.3,2-0.7,3.1-0.8c0.6-0.1,1.3-0.1,1.5-0.7
			"/>
	</g>
	<g>
		<path class="st6" d="M1284.8,669.8c-1-0.2-2,0.3-2.5,1.1c-0.5,0.8-0.4,2,0.2,2.8c0.3,0.3,0.6,0.6,1,0.7c0.3,0.1,0.7,0.2,1,0.2
			c0.6,0,1.4-0.1,1.8-0.6c0.5-0.6,0.3-1.4,0.1-2.2c-0.2-0.8-0.5-1.7-1.3-2"/>
	</g>
	<g>
		<g>
			<path class="st2" d="M1333.8,602.6c0.4,6-1.1,11.6-4.5,16.6c-0.3,0.4,0.4,0.8,0.6,0.4c3.4-5.1,5-10.9,4.6-17
				C1334.5,602.1,1333.7,602.1,1333.8,602.6L1333.8,602.6z"/>
		</g>
	</g>
	<g>
		<path class="st7" d="M1125.6,606.5c-5.5,11.8-3,25.8-0.2,38.5c10.2,46.6,23.4,93.8,18.1,141.3c-0.4,3.7-0.9,7.6,0.3,11.1
			c1.1,3.1,3.5,5.6,5.8,7.8c25.6,24.2,59.8,35.8,93.5,43.9c62.2,15,128.3,19.9,189.2,0.1c6.1-50,34.5-110.8,64.6-150.3
			c-12.8,6.5-33.6,23.8-50.2,32.7c-7.3,3.9-14.3,7.8-21.8,11.3c-11.4,5.3-22.6,10.9-33.5,17.1c-14.1,8-30.1,12-45.8,15.4
			c-14.2,3.1-28.6,5.8-43.1,5.7c-45.4-0.1-87.6-27.7-116.8-64c-29.1-36.3-47-80.9-63.1-125.2c-2.7,23.6-0.7,47.8,5.7,70.6"/>
	</g>
	<g>
		<path class="st1" d="M1471.4,195.3c-36.8-0.8-73.2,11.5-104.3,31.1s-57.3,46.3-79.8,75.4c9.4,4.2,18.9,8.4,28.3,12.6
			c6.2,2.7,12.4,5.5,17.8,9.5c3.1,2.3,5.9,4.9,9.4,6.6c2.9,1.4,6,2.1,9.2,2.7c41.7,8.7,83.4,17.5,125.6,23.4c14.2,2,28.5,3.7,42,8.4
			c19.2,6.7,37.1,19.4,57.4,19.4c3.5,0,7.1-0.5,10.1-2.4c3-2,4.8-5.2,6.4-8.4c9.8-19.7,14.5-43.4,6.1-63.8
			c-7.5-18.2-24.9-34.8-20-53.9c1.3-5.2,4.4-10,4.5-15.3c0.2-8-6.2-14.6-12.7-19.3c-28.8-20.9-66.4-24-101.9-26.4"/>
	</g>
	<g>
		<path class="st8" d="M1327.6,566.2c0.8,1.9,0.3,4.1-0.3,6.1c-0.6,2.2-1.3,4.4-2.8,6c-0.3,0.3-0.6,0.6-1,0.7c-0.3,0.1-0.7,0-1-0.1
			c-2.9-0.8-5.8-1.5-8.6-2.3c-1.3-0.3-2.6-0.7-3.5-1.8c-1.1-1.4-1.1-3.4-0.9-5.2c0.3-2.7,1-5.8,3.3-7.2c0.9-0.5,1.8-0.8,2.8-0.9
			c1.3-0.2,2.6-0.2,4-0.1c0.9,0.1,1.8,0.4,2.6,0.8C1323.8,562.9,1326.9,564.6,1327.6,566.2z"/>
	</g>
	<g>
		<path class="st8" d="M1361.6,573.2c0.8,1.9,0.3,4.1-0.3,6.1c-0.6,2.2-1.3,4.4-2.8,6c-0.3,0.3-0.6,0.6-1,0.7c-0.3,0.1-0.7,0-1-0.1
			c-2.9-0.8-5.8-1.5-8.6-2.3c-1.3-0.3-2.6-0.7-3.5-1.8c-1.1-1.4-1.1-3.4-0.9-5.2c0.3-2.7,1-5.8,3.3-7.2c0.9-0.5,1.8-0.8,2.8-0.9
			c1.3-0.2,2.6-0.2,4-0.1c0.9,0.1,1.8,0.4,2.6,0.8C1357.8,569.9,1360.9,571.6,1361.6,573.2z"/>
	</g>
	<g>
		<g>
			<path class="st2" d="M1583.1,168.2c-41.9-23.8-90.6-30.9-138.2-29.5c-24,0.7-49,2.5-72.2,8.8c-22.8,6.2-41.9,19.2-58.7,35.5
				c-35.5,34.7-64.9,76.9-88.6,120.4c-24.6,45.2-44.6,92.7-73.1,135.7c-29.7,44.9-66,85.5-108.6,118.5c-3,2.4,1.2,6.6,4.2,4.2
				c36.8-28.5,68.8-62.6,96.1-100.2c28.9-39.9,50.2-83.7,72.2-127.6c22.9-45.6,49.8-88.6,83.5-127c15.2-17.3,31.6-34.5,52.2-45.2
				c22.1-11.5,47.8-14.2,72.3-16.1c53.1-4.1,108.7,0.9,155.8,27.6C1583.4,175.3,1586.4,170.1,1583.1,168.2L1583.1,168.2z"/>
		</g>
	</g>
	<g>
		<g>
			<path class="st2" d="M1216.6,345.9c-29.1,42.6-53.8,87.3-76.9,133.3c-10.6,21.2-22.2,42-39.3,58.7c-15.9,15.5-35.4,27-55.9,35.2
				c-20,8-41.2,13.2-62.4,16.6c-9.2,1.5-22.4,0.2-26.6,10.4c-2,4.8-2.7,10.3-3.8,15.4c-1.4,6.7-2.8,13.3-4.1,20
				C937.4,688,932.1,741,930,794.4c-2,50-7.8,112.3-57.7,138.7c-3.4,1.8-0.4,7,3,5.2c40.7-21.5,55-68.9,58.8-111.6
				c2.4-26.4,2.4-53,4.4-79.4c2.1-27.3,5.3-54.4,9.7-81.4c2.2-13.5,4.7-26.9,7.4-40.2c1.3-6.4,2.6-12.7,4.1-19
				c0.8-3.4,1.4-6.5,5-8.2c2.6-1.2,6.6-1.1,9.5-1.5c21.9-3,43.6-7.6,64.4-15.2c19.5-7,38-16.5,54.3-29.4
				c18.2-14.4,31.8-32.8,42.9-53c13.7-24.9,25.5-50.9,39.4-75.7c14.4-25.6,29.9-50.5,46.4-74.7
				C1224,345.7,1218.8,342.7,1216.6,345.9L1216.6,345.9z"/>
		</g>
	</g>
	<g>
		<path class="st9" d="M1423.8,464.2c-1-4.1,27.5-23.9,59.1-18.6c29.6,5,45.1,29.2,47.7,33.4c-6.2,3-14.4,6-24.2,7.1
			c-30.7,3.5-54.1-13.5-60.7-18.7c-2.2,0.1-4.9,0.2-7.9-0.1C1432.4,466.9,1424.3,466.3,1423.8,464.2z"/>
		<g>
			<path class="st10" d="M1433.4,456c-2.3,1.8-4.6,3.6-6.9,5.3c-0.5,0.4-0.9,0.7-1.2,1.2c-0.2,0.4-0.3,0.8-0.3,1.3
				c0,0.2,0.1,0.5,0.3,0.7c0.1,0.1,0.3,0.2,0.5,0.2c6.7,1.4,14.6,1.9,17.6,1.8c1.2-0.1-5.8-8.3-5.3-12.5
				C1438,454,1434.9,454.9,1433.4,456z"/>
		</g>

			<ellipse transform="matrix(0.1434 -0.9897 0.9897 0.1434 809.2302 1865.3291)" class="st11" cx="1482.1" cy="465.2" rx="17.7" ry="18.5"/>
		<g>
			<path d="M1531.1,479.2c4.5-1.7,8.8-4,12.6-6.8c-8.7-8.3-18.3-15.8-28.5-22.3c-4.3-2.7-8.8-5.3-13.6-7c-4.2-1.5-8.6-2.4-13-3.3
				c-7.4-1.5-15-2.9-22.4-1.5c-5.4,1-10.4,3.6-15.4,6.1c-7.9,4-15.8,8.1-22.6,13.7c11-5.7,22.6-10,34.5-13.3
				c8.4-2.3,24.9,0.3,32.4,3.4c9.2,3.9,33.4,22.2,35.9,30.5"/>
			<g>
				<path class="st2" d="M1531.2,479.6c4.5-1.8,8.7-4,12.7-6.8c0.2-0.1,0.3-0.4,0.1-0.6c-8.2-7.7-16.9-14.7-26.3-20.9
					c-9.8-6.4-19.3-10-30.8-12.2c-10.3-2-19.7-2.5-29.5,1.7c-10.2,4.5-20.6,10-29.3,17c-0.3,0.3,0.1,0.8,0.5,0.6
					c11.2-5.7,24-11.5,36.5-13.7c9.5-1.6,21.1,0.1,29.9,3.8c7.3,3.1,13.9,8.3,20,13.2c5.5,4.4,13.4,10.2,15.9,17.1
					c0.2,0.5,0.9,0.3,0.7-0.2c-1.5-4.2-5.1-7.6-8.2-10.6c-4.5-4.3-9.4-8.2-14.4-11.8c-10.1-7.3-19.8-11.3-32.4-12.4
					c-8.2-0.7-14.9,0.8-22.7,3.3c-4.7,1.5-9.3,3.2-13.9,5.1c-1.7,0.7-3.5,1.5-5.2,2.3c-1.1,0.5-2.2,1-3.3,1.6
					c-2.5,1.3-1,0.6,0.6-0.4c8.4-5.1,16.7-10.3,25.8-14.2c11.7-5.1,23.4-3,35.5-0.3c11.6,2.6,21.3,8.6,30.8,15.4
					c4.9,3.5,9.6,7.3,14.1,11.2c0.8,0.7,2,1.6,2.7,2.4c1.7,2.1,1.8,2.1-0.2,3.9c-2.4,2.1-6.7,3.6-9.6,4.7
					C1530.6,479,1530.8,479.8,1531.2,479.6L1531.2,479.6z"/>
			</g>
		</g>
		<path class="st12" d="M1438,454"/>
		<ellipse class="st13" cx="1482.6" cy="465.8" rx="6.6" ry="6.2"/>
		<g>
			<path class="st14" d="M1481.5,460.4c-0.1-0.6-0.5-1-1-1.3c-0.5-0.2-1.1-0.2-1.7-0.1c-0.3,0-0.5,0.1-0.7,0.3
				c-0.2,0.2-0.1,0.6-0.1,0.9c0,0.7-0.4,1.5-1,1.8c-0.4,0.2-1,0.3-1.4,0.5c-0.4,0.2-0.8,0.8-0.6,1.2c0.2,0.4,0.7,0.5,1.2,0.4
				s0.8-0.4,1.3-0.4c0.4-0.1,1,0,1.1,0.5c0.1,0.2,0,0.4,0.1,0.6c0.2,0.3,0.6,0.4,1,0.2c0.3-0.2,0.5-0.5,0.8-0.8c0.8-1.2,1.5-2.7,1-4
				"/>
		</g>

			<ellipse transform="matrix(0.7071 -0.7071 0.7071 0.7071 102.5672 1180.4082)" class="st14" cx="1476.2" cy="466.4" rx="0.9" ry="1.1"/>
	</g>
	<g>
		<path class="st15" d="M1320.7,427.9c2.7-3.2-13.8-33.7-44.3-43.3c-28.7-8.9-53.4,5.7-57.7,8.3c4.2,5.5,10.1,11.8,18.4,17.2
			c25.8,17,54.4,12.4,62.6,10.8c1.9,1.1,4.3,2.4,7.1,3.5C1311.8,426.4,1319.4,429.5,1320.7,427.9z"/>
		<g>
			<path class="st10" d="M1312.4,412.7c-1.8,0.4-3.1,1.9-4.3,3.3c-1.5,1.7-2.9,3.4-4.4,5c-0.1,0.1-0.6,0.8-0.6,1
				c0,0.1,3.9,2.1,4.6,2.3c3.6,1,7.2,2.4,10.9,3c0.5,0.1,1.7,0.1,1.4-0.3c-0.1-0.2,0,0.2,0,0c0.2-1-0.3-2.3-0.7-3.3
				c-1.6-3.5-3.6-6.9-5.6-10.1c-0.3-0.4-0.5-0.9-0.9-1.2"/>
		</g>

			<ellipse transform="matrix(0.3192 -0.9477 0.9477 0.3192 482.062 1475.8203)" class="st11" cx="1268.2" cy="402.4" rx="17.7" ry="18.5"/>
		<g>
			<g>
				<path class="st2" d="M1210.5,396.8c3.3,9.4,11.8,18.6,20,24.1c4.8,3.2,10.1,5,15.5,6.9c6.2,2.2,12.5,4,19.1,4.3
					c0.5,0,0.5-0.7,0-0.8c-10.8-0.5-23.6-4.6-32.9-10.3c-8.6-5.3-17.7-14.8-21-24.5C1211.1,396.2,1210.3,396.4,1210.5,396.8
					L1210.5,396.8z"/>
			</g>
		</g>
		<g>
			<g>
				<path class="st2" d="M1294.7,421.5c-6.7,1.1-13.4,1.5-20.2,1.2c-0.5,0-0.5,0.7,0,0.8c6.9,0.2,13.7-0.2,20.4-1.3
					C1295.4,422.1,1295.2,421.4,1294.7,421.5L1294.7,421.5z"/>
			</g>
		</g>
		<g>
			<g>
				<path class="st2" d="M1284,423.1c-0.9-0.1-1.7-0.4-2.5-0.9c-0.4-0.2-0.8,0.4-0.4,0.6c0.8,0.5,1.7,0.8,2.7,0.9
					C1284.2,423.9,1284.4,423.2,1284,423.1L1284,423.1z"/>
			</g>
		</g>
		<g>
			<path d="M1218.1,392.8c-3.3-3.5-6-7.5-8.2-11.8c11.6-3.5,23.5-5.8,35.5-7c5.1-0.5,10.2-0.8,15.3-0.1c4.4,0.5,8.7,1.7,13,3
				c7.2,2,14.7,4.2,20.6,8.8c4.4,3.4,7.7,7.9,11,12.4c5.2,7.1,10.5,14.3,14,22.4c-7.2-10.1-15.6-19.1-24.8-27.4
				c-6.5-5.9-22.3-11-30.5-11.6c-9.9-0.7-39.9,4.7-45.8,10.9"/>
			<g>
				<path class="st2" d="M1218.4,392.5c-1.7-1.9-8.9-9.1-6.5-11.7c1.2-1.3,6.7-1.8,8.3-2.2c2.8-0.7,5.6-1.3,8.4-1.8
					c11.6-2.2,24.2-4.2,35.9-2c9.5,1.8,20.5,4.6,28.5,10.1c8.5,5.9,14.7,16.2,20.2,24.8c1.3,2,2.5,4,3.6,6.1
					c0.6,1.1,3.1,5.3,0.9,1.5c-2.3-4-6-7.5-9-10.9c-5.5-6-11.3-12.9-18.4-17.1c-10.7-6.2-23.1-9.2-35.4-7.9
					c-7.3,0.8-14.6,2.1-21.7,4.1c-5,1.4-11.1,2.9-15,6.6c-0.3,0.3,0.2,0.9,0.5,0.5c5.3-5.1,14.9-6.6,21.9-8.1
					c7.6-1.6,15.8-3.2,23.7-2.7c9.3,0.6,20.1,4.2,27.7,9.5c10.6,7.3,19.8,19,27.2,29.3c0.3,0.4,0.8,0.1,0.6-0.4
					c-4.4-9.8-10.9-18.7-17.5-27.1c-6.3-8-14-12.3-23.6-15.2c-11.2-3.4-21.4-5.3-33.1-4.2c-12.1,1.1-24,3.6-35.6,7
					c-0.2,0.1-0.3,0.3-0.2,0.6c2.3,4.3,5,8.2,8.3,11.8C1218.2,393.4,1218.7,392.9,1218.4,392.5L1218.4,392.5z"/>
			</g>
		</g>
		<g>
			<g>
				<path class="st2" d="M1231,376.6c0.5,0,0.5-0.8,0-0.8C1230.5,375.9,1230.5,376.6,1231,376.6L1231,376.6z"/>
			</g>
		</g>
		<g>
			<g>
				<path class="st2" d="M1302.7,422.3c2.4,1.2,4.8,2.5,7.2,3.7c0.4,0.2,0.8-0.4,0.4-0.6c-2.5-1.1-4.8-2.4-7.2-3.7
					C1302.6,421.4,1302.3,422,1302.7,422.3L1302.7,422.3z"/>
			</g>
		</g>
		<ellipse class="st13" cx="1268.6" cy="402.8" rx="6.6" ry="6.2"/>
		<g>
			<path class="st16" d="M1267.5,397.4c-0.1-0.6-0.5-1-1-1.3c-0.5-0.2-1.1-0.2-1.7-0.1c-0.3,0-0.5,0.1-0.7,0.3
				c-0.2,0.2-0.1,0.6-0.1,0.9c0,0.7-0.4,1.5-1,1.8c-0.4,0.2-1,0.3-1.4,0.5c-0.4,0.2-0.8,0.8-0.6,1.2c0.2,0.4,0.7,0.5,1.2,0.4
				s0.8-0.4,1.3-0.4c0.4-0.1,1,0,1.1,0.5c0.1,0.2,0,0.4,0.1,0.6c0.2,0.3,0.6,0.4,1,0.2c0.3-0.2,0.5-0.5,0.8-0.8c0.8-1.2,1.5-2.7,1-4
				"/>
		</g>

			<ellipse transform="matrix(0.7071 -0.7071 0.7071 0.7071 84.4358 1010.635)" class="st16" cx="1262.2" cy="403.4" rx="0.9" ry="1.1"/>
	</g>
	<g>
		<g>
			<path class="st5" d="M1221.4,627.3c8.9,10.9,14.8,23.7,22.6,35.4c7.2,10.7,16.3,19.1,27.8,25c24.1,12.4,52.9,14.9,79,7.9
				c7.2-1.9,14.1-4.6,20.8-7.9c8.1-4,15.8-8.7,25-9.5c0.5,0,0.5-0.8,0-0.8c-7.9,0.7-14.8,4.2-21.7,7.7c-8.1,4.2-16.3,7.6-25.1,9.9
				c-17.8,4.6-36.8,4.7-54.7,0.4c-17.4-4.3-34.4-12.6-45.8-26.8c-10.5-13.1-16.8-28.9-27.4-41.9
				C1221.7,626.4,1221.1,627,1221.4,627.3L1221.4,627.3z"/>
		</g>
	</g>
	<g>
		<path class="st2" d="M1219.2,392.6c11.1-6.1,24.2-6.1,36.8-6c3.6,0,7.2,0.1,10.7,0.8c2.5,0.5,5,1.3,7.5,2.2
			c16.3,6,31.9,15.4,42.4,29.8c0.9,1.2,2.5,2.6,3.7,1.6c-4-12.3-12-23.1-22.5-30.2c-6.6-4.5-14.1-7.5-21.7-10.1
			c-3.1-1.1-6.3-2.1-9.6-2.6c-3.7-0.5-7.5-0.2-11.3,0.2c-12.7,1.3-26.1,3.9-35.2,13.1"/>
	</g>
	<g>
		<path class="st2" d="M1532,478.9c-6.9-10.3-18.4-16.4-29.4-22.2c-3.1-1.6-6.3-3.3-9.7-4.4c-2.4-0.8-5-1.2-7.5-1.6
			c-16.9-2.7-34.7-2.2-50.2,4.8c-1.3,0.6-3.4,1-3.9-0.4c8.9-8.3,20.8-13.5,33-14.5c7.8-0.6,15.7,0.4,23.4,1.8
			c3.2,0.6,6.4,1.2,9.5,2.4c3.5,1.3,6.7,3.4,9.8,5.4c10.5,7,21,15.5,24.8,27.4"/>
	</g>
	<g>
		<path class="st2" d="M1645.3,118l-18.3,25.8c-0.1-2.8-0.5-5.6-1.3-8.3c-5.3-18.5-21.2-31.7-37.4-41.8
			c-68.3-42.4-157.5-48.3-230.6-15.2c-35.4,16-66.6,40.2-95.9,65.9c-78.2,68.6-145.7,149.5-199.3,239
			c-57.3,95.6-102.8,205.4-194.9,267.5c-102.1,68.8-236.1,61.6-350.6,106c-67.2,26-127,70.7-172.3,127.2
			c-0.1,68.6-0.7,137.3-4.5,205.8h31.7c28.2,0,56.4-1,84.7-1.7c24.6-0.6,49.1-0.9,73.7,0.2c24.4,1,48.5,3.2,72.9,2.5
			c43.1-1.3,85.9-7.4,129.1-8.3c25.6-28.8,43.1-66.7,64-100.1c29.4-47.1,68-87.6,102.5-131c73-92,127.7-197.2,195.5-293.1
			c16.5-23.3,33.9-46.3,45.6-72.4c11-24.4,16.7-50.8,25.1-76.2c17.1-51.2,45.2-98,76.2-142.1c35.6-50.4,76.6-98.9,130.1-129.1
			c53.5-30.2,121.8-39.5,176.1-10.8c19,10.1,36.7,24.7,58.1,27.1c4.9,0.6,9.9,0,14.8-1.4l-18.6,26.2c13.9-1.4,23.2-14.6,25.2-28.8
			C1640,144.7,1649.8,131.7,1645.3,118z"/>
	</g>
	<g>
		<path class="st3" d="M1135.8,801.7c-7.7,12.2-20.5,20.3-29.6,31.6c-5.9,7.3-10,15.8-14.1,24.2c-8.1,16.5-16.2,33-24.2,49.5
			c-5.9,12.1-11.9,24.3-15.1,37.4c-2.4,10.1-3.2,20.5-5.9,30.5c-8,29.4-31.8,51.5-54.5,71.9c-14.7,13.3-29.5,26.5-44.2,39.8
			c75.2,15.5,153.4,1.1,229.8,8.3c30.4,2.9,60.4,9.1,90.9,9.8c31.8,0.7,63.3-4.8,94.6-10.2c3.8-0.6,7.7-1.4,10.7-3.6
			c2.8-2.1,4.5-5.2,6.2-8.2c21.1-39.1,37.5-80.7,48.9-123.6c8.2-30.7,13.7-62.1,19.1-93.4c2.2-12.9,4.2-27.1-2.5-38.4
			c-44.1,25.5-97.1,33.9-147.9,28.3c-50.8-5.6-99.4-24.5-143.3-50.2c-4.8-2.8-9.9-5.8-15.5-6c-18.5-0.7-24.2,25.7-39.9,35.4"/>
	</g>
	<g>
		<path class="st2" d="M1582.1,180.7c32.1-13.7,69.5-24.1,101.6-10.3c46.6,20,57.9,77.8,63,126.9c10.3,99.3,20.6,199,16.5,298.8
			c-3.3,80.9-16.2,161.7-10.1,242.5c6.1,81.1,31.3,162.6,15.1,242.3c-1.9,9.6-5.4,20.2-14.4,24.6c-5.6,2.7-12.3,2.4-18.5,2.1
			c-58.3-2.9-117,0.7-174.4,10.7c-6.1,1.1-12.5,2.1-18.2-0.2c-10.4-4.2-13-17-18.3-26.7c-6.9-12.6-19.8-21.2-27.9-33.1
			c-13.7-20-12.1-46-9.6-69.9c9.5-93.4,23.4-186.5,41.7-278.7c3-15.2,6.2-30.4,11.9-44.8c5.9-14.7,14.3-28.3,22.1-42.2
			c75.5-134,89.5-299.1,37.6-443.3c-1.8-5-3.7-10.6-1.5-15.4c3.2-7.3,13.2-8.6,21.4-8.8c14.2-0.4,28.5-0.7,42.7-1.1"/>
	</g>
	<g>
		<path class="st2" d="M1597.2,174.7c13.4-3.2,17.4-22.6,10.4-34.7c-7-12.1-20.6-18.2-33.5-23c-78.7-28.6-169.6-29.8-243.2,10.6
			c-36,19.7-66.4,48.3-96.4,76.6c-28.4,26.7-57.2,53.9-77.7,87.4c-19.2,31.3-30.5,67-46.4,100.2c-17.4,36.4-40.2,69.8-60.5,104.6
			c-88.9,153-127.4,334.2-228.2,479.3c-24.1,34.7-53.2,72.8-46.4,114.9c1.4,8.8,4.8,17.9,12,22.8c6.5,4.5,14.8,4.9,22.6,4.9
			c40.7,0.3,81.3-4.3,121-13.6c10.8-2.5,21.9-5.6,30.6-12.6c8.2-6.6,13.7-16,21.1-23.5c11.4-11.4,26.7-17.6,40-26.6
			c53.2-35.7,66.7-107.5,85.2-169.8c3.2-10.6,6.8-21.5,13.5-30.2c6-7.7,14.2-13.3,20.2-20.9c15.4-19.5,13.8-47.3,10.3-72.1
			c-8-56.9-21.9-113.1-25-170.5s5.9-117.9,39.3-164.2c9.7-13.4,21.3-25.5,30-39.6c8.3-13.5,13.7-28.5,21.8-42.2
			c14-23.7,35.2-42,56-59.8c54.2-46.4,108.8-98.7,179.5-102.6c48.6-2.7,105,5,149,6c6.9,0.2,11.8-6.3,17.1-11
			c9.3-8.2-2.9-22.6-13.8-28.4c-39.3-21.3-82.4-43.2-126.2-35.5"/>
	</g>
	<g>
		<path class="st2" d="M1587.6,569.4c-20.6,44.6-47.4,86.3-79.2,123.6c-20.7,24.2-43.8,47-58.2,75.5c-13,25.7-18,54.6-21.7,83.2
			c-10.3,78.8-12.4,161.2-48.1,232.2c-2.1,4.2-4.4,9-2.8,13.4c2,5.4,8.6,7.2,14.2,8.2c32.2,5.5,65.1,7.4,97.7,5.6
			c12.6-0.7,25.6-2,36.4-8.6c9.8-6,16.6-15.8,21.6-26.1c16.8-34.6,14.8-74.9,17.6-113.2c3.1-43.2,12.7-85.6,17.7-128.6
			c6.4-54,5.7-108.6,4.9-163c-0.3-21.9-1.7-46.5-17.9-61.2"/>
	</g>
	<g>
		<path class="st17" d="M1128,608c4.8,13.8,31.6,73.7,38,84c17.6,28.1,46.1,59.6,74.5,78.5c10.7,7.1,17.2,11.4,29,14
			c15.5,3.4,19.1,6.3,34.9,6.6c37.8,0.7,99.9-19.5,124.6-24.1c32-6,48.2-34.2,69.4-69.2c-17.5,11.8-29.9,18.4-47.4,30.2
			c-9.4,6.3-24.9,15-35,20c-11.7,5.8-23.3,12.6-35.8,16.7c-8.6,2.8-17.1,5.6-25.7,8.3c-7.4,2.4-14.8,4.8-22.5,6.1
			c-7.1,1.2-14.4,1.5-21.7,1.3c-23.5-0.4-45.8-7.2-67.5-16.3c-12.6-5.3-30.8-16.9-39.9-27.1l-13-14c-9.7-10.9-18.1-28.7-25.7-38.7
			L1128,607c5.9,18.8,15.2,37.3,24,58"/>
	</g>
	<g>
		<path class="st5" d="M1488.7,426.4c20.8,2.8,40.7,12.7,55.3,27.8c2.2,2.3,4.7,4.9,7.9,5c-1.3-5.3-4.1-10.2-8.1-14
			c-2.1-2-4.6-3.7-7-5.3c-7.9-5.4-16-10.9-25.2-13.6c-6.3-1.9-12.9-2.4-19.5-2.8c-1.4-0.1-3-0.1-3.9,1.1s0.5,3.3,1.6,2.4"/>
	</g>
	<g>
		<path class="st5" d="M1217.6,363.4c14.2,0,28.4-0.1,42.5-0.1c5.7,0,11.5,0,16.8,2c3.5,1.3,7.9,3.4,10.7,0.9
			c-6.6-6.7-15.8-10.3-25.1-11.9s-18.8-1.1-28.2-0.7c-6.6,0.3-14,1-18,6.3c3.5,2.4,7.8,3.7,12.1,3.5"/>
	</g>
	<g>
		<path class="st5" d="M1288.9,544.6c-3.2,4.8-4.3,11.1-2.7,16.7c1.5,5.6,5.6,10.5,10.9,13c-5.8-3.7-8.5-11.1-8.2-17.9
			c0.3-6.9,3.1-13.4,6.3-19.5"/>
	</g>
	<g>
		<path class="st4" d="M1341.8,441.4c-1.2,1-1.8,2.4-2.4,3.8c-6.8,16.3-13.7,33.1-13.9,50.7c0,0.9,0.4,2.2,1.3,2
			c7.6-17.1,12.2-35.4,16.8-53.6c0.2-0.7,0.3-1.4,0.1-2c-0.2-0.6-1.1-1.1-1.6-0.7"/>
	</g>
	<g>
		<path class="st6" d="M1343.1,534c-1.1-0.4-2.3,0-3.1,0.7c-0.9,0.7-1.5,1.7-1.9,2.8c-0.6,1.3-1.1,2.7-1.4,4.1
			c-0.2,0.9-0.3,1.9,0.1,2.7c0.4,0.9,1.4,1.5,2.4,1.8c1.9,0.7,4,0.9,6,0.7c1-0.1,2-0.4,2.8-1.1c1.1-1,1.5-2.6,1.8-4.1
			c0.1-0.6,0.3-1.3,0.1-1.9c-0.2-0.6-3.1-0.8-3.5-1.3c-1.5-1.6-0.5-3.5-2.5-4.2"/>
	</g>
	<g>
		<path class="st6" d="M1363,464c-0.7,9.6-8.3,17.8-8.3,27.4c2.7-1.4,4.1-4.5,5.2-7.3c1.4-3.9,2.6-7.9,3.4-12
			c0.5-2.5,0.8-5.3-0.8-7.2"/>
	</g>
	<g>
		<path class="st6" d="M1372.6,434.6c-1.7,2.6-2.5,5.8-2.4,8.9c0,0.4,0.1,0.9,0.4,1.1c0.5,0.3,1.2-0.2,1.6-0.7
			c1.8-2.6,2.2-6.1,0.9-9"/>
	</g>
	<path class="st5" d="M1392.5,492.3"/>
	<path class="st5" d="M1393,492"/>
	<g>
		<linearGradient id="SVGID_1_" gradientUnits="userSpaceOnUse" x1="1419.5238" y1="550.6251" x2="1359.1543" y2="490.2556">
			<stop  offset="0.1288" style="stop-color:#0D3F3F"/>
			<stop  offset="1" style="stop-color:#207070"/>
			<stop  offset="1" style="stop-color:#000000"/>
		</linearGradient>
		<path class="st18" d="M1381.1,543.4c0.5-16.3,15.8-76.5,18.9-92.4c2.3-11.6,12.8,12.3,11,24c-2.8,18.5-9.9,57.2-11,76
			c-0.8,13.1-11.6,33.1-23.7,42.3c5.8-8.4,12.6-27.6,7.9-35.7C1383.8,557.2,1380.9,548.1,1381.1,543.4z"/>
	</g>
	<g>
		<g>
			<path class="st2" d="M1468.6,492.8c9,6.1,22.6,8.3,33.2,7c10.6-1.3,22.7-5.5,31.6-11.5c0.4-0.3,0-0.9-0.4-0.6
				c-8.6,5.8-20.1,9.7-30.4,11.2c-10.7,1.6-24.6-0.6-33.7-6.8C1468.6,491.9,1468.2,492.5,1468.6,492.8L1468.6,492.8z"/>
		</g>
	</g>
</g>
</svg>
